<svg
  xmlns="http://www.w3.org/2000/svg"
  fill="none"
  viewBox="0 0 24 24"
  height="24"
  width="24"
  id="Collaborations-Idea--Streamline-Core"
>
  <desc>
    { "Collaborations Idea Streamline Icon: https://streamlinehq.com" }
  </desc>
  <g id="Collaborations-Idea--Streamline-Core">
    <path
      id="Union"
      fill="#ffffff"
      fillRule="evenodd"
      d="M16.949142857142856 0c0.5914285714285713 0 1.0714285714285714 0.48000000000000004 1.0714285714285714 1.0714285714285714v1.4057142857142855a1.0714285714285714 1.0714285714285714 0 1 1 -2.142857142857143 0v-1.4057142857142855c0 -0.5914285714285713 0.48000000000000004 -1.0714285714285714 1.0714285714285714 -1.0714285714285714Zm-10.01142857142857 14.97942857142857a4.164 4.164 0 1 0 0 -8.326285714285714 4.164 4.164 0 0 0 0 8.326285714285714ZM0 23.305714285714284a6.9394285714285715 6.9394285714285715 0 0 1 13.877142857142857 0A0.6942857142857143 0.6942857142857143 0 0 1 13.182857142857143 24H0.6942857142857143A0.6942857142857143 0.6942857142857143 0 0 1 0 23.305714285714284ZM23.513142857142853 4.273714285714285a1.0714285714285714 1.0714285714285714 0 1 0 -1.2308571428571426 -1.7537142857142856l-1.1502857142857144 0.8074285714285714a1.0714285714285714 1.0714285714285714 0 0 0 1.2308571428571426 1.7537142857142856l1.1502857142857144 -0.8074285714285714Zm-13.393714285714285 -1.4914285714285713a1.0714285714285714 1.0714285714285714 0 0 0 0.26057142857142856 1.4914285714285713l1.152 0.8074285714285714a1.0714285714285714 1.0714285714285714 0 1 0 1.2308571428571426 -1.7537142857142856l-1.152 -0.8074285714285714a1.0714285714285714 1.0714285714285714 0 0 0 -1.4914285714285713 0.26057142857142856ZM16.86857142857143 4.868571428571428a3.853714285714286 3.853714285714286 0 0 1 3.894857142857142 3.8297142857142856c-0.017142857142857144 1.4057142857142855 -0.8571428571428571 2.742857142857143 -2.115428571428571 3.370285714285714v1.908a0.4251428571428571 0.4251428571428571 0 0 1 -0.4251428571428571 0.4148571428571428H15.671999999999999a0.4251428571428571 0.4251428571428571 0 0 1 -0.4251428571428571 -0.4148571428571428V12.101142857142857a3.876 3.876 0 0 1 -2.1102857142857143 -3.243428571428571A3.853714285714286 3.853714285714286 0 0 1 16.86857142857143 4.868571428571428Z"
      clipRule="evenodd"
      strokeWidth="{1}"
    />
  </g>
</svg>
