<svg
                  xmlns="http://www.w3.org/2000/svg"
                  fill="none"
                  viewBox="0 0 25 25"
                  height="24"
                  width="24"
                >
                  <g id="customer-support-5--customer-headset-help-phone-support">
                    <path
                      id="Union"
                      fill="#000000"
                      fill-rule="evenodd"
                      d="m2.8125 12.928571428571429 -0.06964285714285715 -0.7678571428571429C2.367857142857143 7.607142857142857 5.914285714285715 2.8160714285714286 12.5 2.8160714285714286c6.585714285714286 0 10.133928571428571 4.791071428571429 9.757142857142858 9.344642857142857l-0.06964285714285715 0.7625000000000001a4.635714285714286 4.635714285714286 0 0 0 -6.928571428571429 3.616071428571429l-0.28571428571428575 3.2839285714285715a4.635714285714286 4.635714285714286 0 0 0 9.235714285714286 0.8071428571428572l0.28571428571428575 -3.2821428571428575a4.053571428571429 4.053571428571429 0 0 0 0.01785714285714286 -0.3571428571428572l0.41250000000000003 -4.5964285714285715 0 -0.0071428571428571435C25.439285714285717 6.210714285714286 20.592857142857145 0.1375 12.5 0.1375 4.405357142857143 0.1375 -0.4392857142857143 6.210714285714286 0.07142857142857144 12.387500000000001l0 0.0071428571428571435 0.4142857142857143 4.5982142857142865 0.00892857142857143 0c0.0017857142857142859 0.11785714285714287 0.0071428571428571435 0.23571428571428574 0.01785714285714286 0.35535714285714287l0.28750000000000003 3.2821428571428575a4.635714285714286 4.635714285714286 0 1 0 9.235714285714286 -0.8071428571428572l-0.28571428571428575 -3.2839285714285715a4.635714285714286 4.635714285714286 0 0 0 -6.9375 -3.6089285714285713Z"
                      clip-rule="evenodd"
                      stroke-width="1"
                    ></path>
                  </g>
                </svg>