<svg
        width="95"
        height="60"
        viewBox="0 0 367 201"
        fill="none"
        xmlns="http://www.w3.org/2000/svg"
      >
        
        <path
          d="M62.6 97.7C57.4667 97.7 52.8667 96.8667 48.8 95.2C44.7333 93.5333 41.4667 91.0667 39 87.8C36.6 84.5333 35.3333 80.6 35.2 76H53.4C53.6667 78.6 54.5667 80.6 56.1 82C57.6333 83.3333 59.6333 84 62.1 84C64.6333 84 66.6333 83.4333 68.1 82.3C69.5667 81.1 70.3 79.4667 70.3 77.4C70.3 75.6667 69.7 74.2333 68.5 73.1C67.3667 71.9667 65.9333 71.0333 64.2 70.3C62.5333 69.5667 60.1333 68.7333 57 67.8C52.4667 66.4 48.7667 65 45.9 63.6C43.0333 62.2 40.5667 60.1333 38.5 57.4C36.4333 54.6667 35.4 51.1 35.4 46.7C35.4 40.1667 37.7667 35.0667 42.5 31.4C47.2333 27.6667 53.4 25.8 61 25.8C68.7333 25.8 74.9667 27.6667 79.7 31.4C84.4333 35.0667 86.9667 40.2 87.3 46.8H68.8C68.6667 44.5333 67.8333 42.7667 66.3 41.5C64.7667 40.1667 62.8 39.5 60.4 39.5C58.3333 39.5 56.6667 40.0667 55.4 41.2C54.1333 42.2667 53.5 43.8333 53.5 45.9C53.5 48.1667 54.5667 49.9333 56.7 51.2C58.8333 52.4667 62.1667 53.8333 66.7 55.3C71.2333 56.8333 74.9 58.3 77.7 59.7C80.5667 61.1 83.0333 63.1333 85.1 65.8C87.1667 68.4667 88.2 71.9 88.2 76.1C88.2 80.1 87.1667 83.7333 85.1 87C83.1 90.2667 80.1667 92.8667 76.3 94.8C72.4333 96.7333 67.8667 97.7 62.6 97.7ZM139.423 97L115.823 66V97H98.7234V26.8H115.823V57.6L139.223 26.8H159.323L132.123 61.2L160.323 97H139.423ZM176.2 41.83C173.08 41.83 170.56 40.99 168.64 39.31C166.78 37.57 165.85 35.41 165.85 32.83C165.85 30.19 166.78 28 168.64 26.26C170.56 24.52 173.08 23.65 176.2 23.65C179.26 23.65 181.72 24.52 183.58 26.26C185.5 28 186.46 30.19 186.46 32.83C186.46 35.41 185.5 37.57 183.58 39.31C181.72 40.99 179.26 41.83 176.2 41.83ZM184.93 46.51V97H167.29V46.51H184.93ZM213.236 83.8H235.636V97H196.136V26.8H213.236V83.8ZM260.892 83.8H283.292V97H243.792V26.8H260.892V83.8Z"
          fill="black"
        />
        <path
          d="M62.6 177.7C57.4667 177.7 52.8667 176.867 48.8 175.2C44.7333 173.533 41.4667 171.067 39 167.8C36.6 164.533 35.3333 160.6 35.2 156H53.4C53.6667 158.6 54.5667 160.6 56.1 162C57.6333 163.333 59.6333 164 62.1 164C64.6333 164 66.6333 163.433 68.1 162.3C69.5667 161.1 70.3 159.467 70.3 157.4C70.3 155.667 69.7 154.233 68.5 153.1C67.3667 151.967 65.9333 151.033 64.2 150.3C62.5333 149.567 60.1333 148.733 57 147.8C52.4667 146.4 48.7667 145 45.9 143.6C43.0333 142.2 40.5667 140.133 38.5 137.4C36.4333 134.667 35.4 131.1 35.4 126.7C35.4 120.167 37.7667 115.067 42.5 111.4C47.2333 107.667 53.4 105.8 61 105.8C68.7333 105.8 74.9667 107.667 79.7 111.4C84.4333 115.067 86.9667 120.2 87.3 126.8H68.8C68.6667 124.533 67.8333 122.767 66.3 121.5C64.7667 120.167 62.8 119.5 60.4 119.5C58.3333 119.5 56.6667 120.067 55.4 121.2C54.1333 122.267 53.5 123.833 53.5 125.9C53.5 128.167 54.5667 129.933 56.7 131.2C58.8333 132.467 62.1667 133.833 66.7 135.3C71.2333 136.833 74.9 138.3 77.7 139.7C80.5667 141.1 83.0333 143.133 85.1 145.8C87.1667 148.467 88.2 151.9 88.2 156.1C88.2 160.1 87.1667 163.733 85.1 167C83.1 170.267 80.1667 172.867 76.3 174.8C72.4333 176.733 67.8667 177.7 62.6 177.7ZM195.323 106.8L177.023 177H156.323L145.123 130.8L133.523 177H112.823L95.0234 106.8H113.323L123.423 157.9L135.923 106.8H154.723L166.723 157.9L176.923 106.8H195.323ZM201.115 142.84C201.115 135.845 202.417 129.705 205.019 124.418C207.703 119.131 211.323 115.065 215.877 112.218C220.432 109.371 225.515 107.948 231.127 107.948C235.926 107.948 240.115 108.924 243.693 110.876C247.353 112.828 250.159 115.39 252.111 118.562V108.924H272.973V177H252.111V167.362C250.078 170.534 247.231 173.096 243.571 175.048C239.993 177 235.804 177.976 231.005 177.976C225.475 177.976 220.432 176.553 215.877 173.706C211.323 170.778 207.703 166.671 205.019 161.384C202.417 156.016 201.115 149.835 201.115 142.84ZM252.111 142.962C252.111 137.757 250.647 133.649 247.719 130.64C244.873 127.631 241.375 126.126 237.227 126.126C233.079 126.126 229.541 127.631 226.613 130.64C223.767 133.568 222.343 137.635 222.343 142.84C222.343 148.045 223.767 152.193 226.613 155.284C229.541 158.293 233.079 159.798 237.227 159.798C241.375 159.798 244.873 158.293 247.719 155.284C250.647 152.275 252.111 148.167 252.111 142.962ZM340.202 129.4C340.202 133.467 339.269 137.2 337.402 140.6C335.535 143.933 332.669 146.633 328.802 148.7C324.935 150.767 320.135 151.8 314.402 151.8H303.802V177H286.702V106.8H314.402C320.002 106.8 324.735 107.767 328.602 109.7C332.469 111.633 335.369 114.3 337.302 117.7C339.235 121.1 340.202 125 340.202 129.4ZM313.102 138.2C316.369 138.2 318.802 137.433 320.402 135.9C322.002 134.367 322.802 132.2 322.802 129.4C322.802 126.6 322.002 124.433 320.402 122.9C318.802 121.367 316.369 120.6 313.102 120.6H303.802V138.2H313.102Z"
          fill="#8C52FF"
        />
      </svg>