<?xml version="1.0" encoding="utf-8"?>
<!-- Generator: Adobe Illustrator 27.5.0, SVG Export Plug-In . SVG Version: 6.00 Build 0)  -->
<svg version="1.1" xmlns="http://www.w3.org/2000/svg" xmlns:xlink="http://www.w3.org/1999/xlink" x="0px" y="0px"
	 viewBox="0 0 500 500" style="enable-background:new 0 0 500 500;" xml:space="preserve">
<g id="BACKGROUND">
	<rect style="fill:#C4C8FF;" width="500" height="500"/>
</g>
<g id="OBJECTS">
	<path style="fill:#D8DBFF;" d="M460.49,330.35c-14,38.8-48.2,68.16-86.75,82.82c-12.53,4.77-25.45,8.39-38.58,10.95
		c-27.27,5.34-55.48,6.14-83.17,3.24c-13.16-1.38-26.35-3.54-39.31-6.6c-34.66-8.2-67.66-22.9-94.05-46.51
		c-36.26-32.43-57.84-83.68-46.44-130.97c5.1-21.12,24.95-34.85,45.68-41.34c20.74-6.5,42.95-6.16,64.27-10.36
		c21.32-4.19,38.96-12.26,50.8-30.48c20.44-31.47,58.92-49.31,96.42-47.87c37.51,1.43,73.26,20.9,97.58,49.48
		c24.32,28.59,37.64,65.63,40.73,103.03C469.47,287.51,467.9,309.81,460.49,330.35z"/>
	<g>
		<g>
			<path style="fill:#814EFF;" d="M367.22,290.98c-10.92,44.24-21.22,88.86-32.06,133.14c-27.27,5.34-55.48,6.14-83.17,3.24
				c-13.16-1.38-26.35-3.54-39.31-6.6c-5.39-15.62-8.09-32.21-6.19-48.56c4.46-38.22,19.948-81.637,41.098-113.777
				C288.768,263.923,327.29,279.55,367.22,290.98z"/>
			<path style="fill:none;stroke:#060305;stroke-linecap:round;stroke-linejoin:round;stroke-miterlimit:10;" d="M277.542,329.846
				c-4.204,34.812-7.518,62.253-11.721,97.065"/>
			<path style="fill:none;stroke:#060305;stroke-linecap:round;stroke-linejoin:round;stroke-miterlimit:10;" d="M213.262,406.544
				c2.577,4.045,6.988,6.871,11.74,7.519c4.752,0.648,9.759-0.892,13.325-4.1"/>
			<path style="fill:none;stroke:#060305;stroke-linecap:round;stroke-linejoin:round;stroke-miterlimit:10;" d="M271.055,380.386
				c-2.686,4.756-5.371,9.512-8.057,14.268c1.731,0.097,3.266,0.952,3.509,2.668c0.243,1.716-0.858,3.528-2.494,4.102
				c1.032,4.858,1.972,9.478,3.004,14.336"/>
			<path style="fill:none;stroke:#060305;stroke-linecap:round;stroke-linejoin:round;stroke-miterlimit:10;" d="M357.734,292.649
				c-9.649,46.48-18.977,85.723-31.274,131.573"/>
			<path style="fill:none;stroke:#060305;stroke-linecap:round;stroke-linejoin:round;stroke-miterlimit:10;" d="M338.643,285.512
				c-1.236,14.845,2.738,30.073,11.071,42.42"/>
		</g>
		<g>
			<path style="fill:#060305;" d="M337.416,156.393c-2.424,2.323-3.069,6.294-1.505,9.264c1.564,2.971,5.203,4.686,8.49,4.001
				l2.335-14.374C343.835,153.595,339.84,154.07,337.416,156.393z"/>
			<path style="fill:none;stroke:#060305;stroke-linecap:round;stroke-linejoin:round;stroke-miterlimit:10;" d="M378.103,167.034
				c2.546,0.481,4.877,2.009,6.333,4.152c1.456,2.143,2.018,4.874,1.526,7.417"/>
			<path style="fill:#060305;" d="M379.244,167.283c1.146-1.292,0.535-4.516-1.102-5.062c2.117-1.962,2.084-5.769-0.066-7.694
				c-1.34-1.2-3.273-1.686-4.379-3.105c-0.649-0.831-0.928-1.881-1.305-2.865c-1.332-3.479-4.092-6.386-7.497-7.897
				c-3.405-1.511-7.412-1.608-10.886-0.262c2.42,10.434,3.718,21.851,4.091,32.555l20.825,9.217
				c3.087-0.926,5.406-3.976,5.472-7.197C384.462,171.75,382.29,168.334,379.244,167.283z"/>
		</g>
		<g>
			<path style="fill:#FFFFFF;" d="M397.033,191.915c-9.009-10.154-19.424-19.059-30.854-26.382c-1.964,1.13-4.848,2.602-7.082,2.981
				c-2.233,0.379-4.679,0.026-6.448-1.39c-1.583-1.268-2.482-3.345-2.322-5.367c-19.935-1.338-40.808-2.352-60.743-3.689
				c-7.535,36.99-18.462,67.345-39.025,99.002l117.558,37.606c3.226-13.791,7.1-27.349,10.326-41.14
				c12.064-4.958,24.64-10.202,36.747-15.054c3.48-1.395,6.695-1.983,10.176-3.378C418.57,219.115,408.564,204.911,397.033,191.915z
				"/>
			<path style="fill:none;stroke:#060305;stroke-linecap:round;stroke-linejoin:round;stroke-miterlimit:10;" d="M343.044,163.567
				c-0.95,5.413,1.184,11.203,5.248,14.903c4.064,3.699,9.887,5.285,15.314,4.42c5.427-0.864,10.385-4.089,13.604-8.542"/>
			<path style="fill:none;stroke:#060305;stroke-linecap:round;stroke-linejoin:round;stroke-miterlimit:10;" d="M313.128,160.008
				c-4.967,11.776-10.622,23.262-16.925,34.381"/>
			<path style="fill:none;stroke:#060305;stroke-linecap:round;stroke-linejoin:round;stroke-miterlimit:10;" d="M403.852,201.334
				c-6.769,9.61-13.539,19.219-20.308,28.829"/>
			<path style="fill:none;stroke:#060305;stroke-linecap:round;stroke-linejoin:round;stroke-miterlimit:10;" d="M401.077,238.737
				c7.483-3.061,14.967-6.121,22.45-9.181"/>
		</g>
		<g>
			<g>
				<path style="fill:#C14F4F;" d="M372.602,172.087c-1.346-1.006-2.835-2.167-4.181-3.173c-0.257-1.654-0.503-3.387-0.76-5.041
					c2.106-0.137,4.073-1.578,4.839-3.545c0.766-1.967,0.292-4.358-1.166-5.884c-1.458-1.526-3.826-2.107-5.825-1.431
					c-0.636,1.271-1.37,2.616-2.005,3.887c-0.298-2.177-0.893-4.353-1.191-6.53c-0.626-4.567-5.035-8.441-9.632-8.78
					c-4.597-0.34-8.11,2.823-9.458,7.231c-1.169,3.823-1.731,7.884-1.336,11.862c0.3,3.023,2.048,5.35,4.914,6.357
					c1.058,5.518,5.637,10.635,11.157,11.683C363.477,179.772,369.595,176.833,372.602,172.087z"/>
				<g>
					<path style="fill:none;stroke:#060305;stroke-linecap:round;stroke-linejoin:round;stroke-miterlimit:10;" d="M346.664,167.409
						c2.471,1.432,5.424,2.016,8.255,1.633c2.831-0.383,5.521-1.731,7.523-3.769"/>
					<path style="fill:none;stroke:#060305;stroke-linecap:round;stroke-linejoin:round;stroke-miterlimit:10;" d="M366.483,157.397
						c1.099-0.42,2.198-0.84,3.297-1.26"/>
					<path style="fill:none;stroke:#060305;stroke-linecap:round;stroke-linejoin:round;stroke-miterlimit:10;" d="M367.935,163.915
						c-0.457,0-0.914,0-1.371,0"/>
				</g>
				<g>
					<circle style="fill:#060305;" cx="355.402" cy="158.984" r="1"/>
					<circle style="fill:#060305;" cx="344.738" cy="156.752" r="1"/>
					<path style="fill:none;stroke:#060305;stroke-linecap:round;stroke-linejoin:round;stroke-miterlimit:10;" d="M343.674,151.594
						c0.535-0.703,1.489-1.058,2.353-0.877c0.864,0.182,1.595,0.891,1.801,1.75"/>
					<path style="fill:none;stroke:#060305;stroke-linecap:round;stroke-linejoin:round;stroke-miterlimit:10;" d="M353.848,153.256
						c1.078,0.157,2.156,0.314,3.234,0.471"/>
					<path style="fill:none;stroke:#060305;stroke-linecap:round;stroke-linejoin:round;stroke-miterlimit:10;" d="M349.723,156.179
						c-0.605,1.299-1.21,2.599-1.814,3.899c0.474,0.076,0.947,0.151,1.421,0.227"/>
					<path style="fill:none;stroke:#060305;stroke-linecap:round;stroke-linejoin:round;stroke-miterlimit:10;" d="M350.917,162.042
						c0.302,0.487,0.906,0.769,1.473,0.687c0.567-0.082,1.067-0.523,1.218-1.076"/>
				</g>
			</g>
			<g>
				<path style="fill:#060305;" d="M362.447,142.442c-1.277-1.617-3.203-2.616-5.19-3.163c-3.485-0.959-7.312-0.622-10.576,0.932
					c-3.264,1.554-5.938,4.312-7.391,7.622l24.758,5.371C364.459,149.5,364.756,145.366,362.447,142.442z"/>
				<path style="fill:none;stroke:#060305;stroke-linecap:round;stroke-linejoin:round;stroke-miterlimit:10;" d="M337.401,147.18
					c2.134-3.72,5.76-6.555,9.885-7.729c4.125-1.174,8.7-0.675,12.474,1.363"/>
			</g>
		</g>
	</g>
	<g>
		<g>
			<rect x="36.353" y="94.569" style="fill:#9E97FF;" width="262.419" height="189.076"/>
			<rect x="119.041" y="154.375" style="fill:#FFFFFF;" width="77.005" height="31.333"/>
			<g>
				
					<line style="fill:none;stroke:#060305;stroke-linecap:round;stroke-linejoin:round;stroke-miterlimit:10;" x1="119.041" y1="205.613" x2="196.045" y2="205.613"/>
				
					<line style="fill:none;stroke:#060305;stroke-linecap:round;stroke-linejoin:round;stroke-miterlimit:10;" x1="119.041" y1="213.446" x2="196.045" y2="213.446"/>
				
					<line style="fill:none;stroke:#060305;stroke-linecap:round;stroke-linejoin:round;stroke-miterlimit:10;" x1="119.041" y1="221.28" x2="196.045" y2="221.28"/>
				
					<line style="fill:none;stroke:#060305;stroke-linecap:round;stroke-linejoin:round;stroke-miterlimit:10;" x1="119.041" y1="229.113" x2="196.045" y2="229.113"/>
				
					<line style="fill:none;stroke:#060305;stroke-linecap:round;stroke-linejoin:round;stroke-miterlimit:10;" x1="119.041" y1="236.946" x2="196.045" y2="236.946"/>
				
					<line style="fill:none;stroke:#060305;stroke-linecap:round;stroke-linejoin:round;stroke-miterlimit:10;" x1="119.041" y1="244.779" x2="196.045" y2="244.779"/>
			</g>
			<g>
				
					<line style="fill:none;stroke:#060305;stroke-linecap:round;stroke-linejoin:round;stroke-miterlimit:10;" x1="212.904" y1="154.375" x2="285.005" y2="154.375"/>
				
					<line style="fill:none;stroke:#060305;stroke-linecap:round;stroke-linejoin:round;stroke-miterlimit:10;" x1="212.904" y1="162.208" x2="285.005" y2="162.208"/>
				
					<line style="fill:none;stroke:#060305;stroke-linecap:round;stroke-linejoin:round;stroke-miterlimit:10;" x1="212.904" y1="170.041" x2="285.005" y2="170.041"/>
				
					<line style="fill:none;stroke:#060305;stroke-linecap:round;stroke-linejoin:round;stroke-miterlimit:10;" x1="212.904" y1="177.874" x2="285.005" y2="177.874"/>
				
					<line style="fill:none;stroke:#060305;stroke-linecap:round;stroke-linejoin:round;stroke-miterlimit:10;" x1="212.904" y1="185.708" x2="285.005" y2="185.708"/>
			</g>
		</g>
		<g>
			<rect x="36.353" y="140.627" style="fill:#060305;" width="66.85" height="143.019"/>
			<path style="fill:none;stroke:#FFFFFF;stroke-linecap:round;stroke-linejoin:round;stroke-miterlimit:10;" d="M58.358,266.825
				c0-2.857-2.316-5.174-5.174-5.174c-2.857,0-5.174,2.316-5.174,5.174c0,2.857,2.316,5.174,5.174,5.174
				C56.042,271.999,58.358,269.683,58.358,266.825z"/>
			<path style="fill:#F6921E;" d="M74.952,266.825c0-2.857-2.316-5.174-5.174-5.174c-2.857,0-5.174,2.316-5.174,5.174
				c0,2.857,2.316,5.174,5.174,5.174C72.635,271.999,74.952,269.683,74.952,266.825z"/>
			<path style="fill:#FF99A8;" d="M91.545,266.825c0-2.857-2.316-5.174-5.174-5.174c-2.857,0-5.174,2.316-5.174,5.174
				c0,2.857,2.316,5.174,5.174,5.174C89.229,271.999,91.545,269.683,91.545,266.825z"/>
		</g>
		<g>
			<rect x="36.353" y="94.569" style="fill:#814EFF;" width="262.419" height="20.159"/>
			
				<circle style="fill:none;stroke:#FFFFFF;stroke-linecap:round;stroke-linejoin:round;stroke-miterlimit:10;" cx="47.468" cy="104.649" r="3.007"/>
			
				<circle style="fill:none;stroke:#FFFFFF;stroke-linecap:round;stroke-linejoin:round;stroke-miterlimit:10;" cx="60.166" cy="104.649" r="3.007"/>
			
				<circle style="fill:none;stroke:#FFFFFF;stroke-linecap:round;stroke-linejoin:round;stroke-miterlimit:10;" cx="72.864" cy="104.649" r="3.007"/>
		</g>
		<g>
			<rect x="36.353" y="114.728" style="fill:#FFFFFF;" width="262.419" height="25.898"/>
			<rect x="44.462" y="124.445" style="fill:#FF99A8;" width="14.794" height="6.047"/>
			<g>
				
					<line style="fill:none;stroke:#060305;stroke-linecap:round;stroke-linejoin:round;stroke-miterlimit:10;" x1="74.561" y1="125.644" x2="107.086" y2="125.644"/>
				
					<line style="fill:none;stroke:#060305;stroke-linecap:round;stroke-linejoin:round;stroke-miterlimit:10;" x1="74.561" y1="129.293" x2="107.086" y2="129.293"/>
			</g>
			<g>
				
					<line style="fill:none;stroke:#060305;stroke-linecap:round;stroke-linejoin:round;stroke-miterlimit:10;" x1="119.041" y1="125.644" x2="151.566" y2="125.644"/>
				
					<line style="fill:none;stroke:#060305;stroke-linecap:round;stroke-linejoin:round;stroke-miterlimit:10;" x1="119.041" y1="129.293" x2="151.566" y2="129.293"/>
			</g>
			<g>
				
					<line style="fill:none;stroke:#060305;stroke-linecap:round;stroke-linejoin:round;stroke-miterlimit:10;" x1="163.52" y1="125.644" x2="196.045" y2="125.644"/>
				
					<line style="fill:none;stroke:#060305;stroke-linecap:round;stroke-linejoin:round;stroke-miterlimit:10;" x1="163.52" y1="129.293" x2="196.045" y2="129.293"/>
			</g>
			<g>
				
					<line style="fill:none;stroke:#060305;stroke-linecap:round;stroke-linejoin:round;stroke-miterlimit:10;" x1="208" y1="125.644" x2="240.525" y2="125.644"/>
				
					<line style="fill:none;stroke:#060305;stroke-linecap:round;stroke-linejoin:round;stroke-miterlimit:10;" x1="208" y1="129.293" x2="240.525" y2="129.293"/>
			</g>
			<g>
				
					<line style="fill:none;stroke:#060305;stroke-linecap:round;stroke-linejoin:round;stroke-miterlimit:10;" x1="252.48" y1="125.644" x2="285.005" y2="125.644"/>
				
					<line style="fill:none;stroke:#060305;stroke-linecap:round;stroke-linejoin:round;stroke-miterlimit:10;" x1="252.48" y1="129.293" x2="285.005" y2="129.293"/>
			</g>
		</g>
	</g>
	<g>
		<polygon style="fill:#060305;" points="168.193,318.253 174.188,307.869 162.199,307.869 		"/>
		<polygon style="fill:#814EFF;" points="123.151,398.175 117.156,408.559 129.145,408.559 		"/>
		<polygon style="fill:#814EFF;" points="447.284,348.901 457.668,354.896 457.668,342.906 		"/>
		<polygon style="fill:#814EFF;" points="401.811,131.52 391.428,125.525 391.428,137.515 		"/>
		<polygon style="fill:none;stroke:#060305;stroke-linecap:round;stroke-linejoin:round;stroke-miterlimit:10;" points="
			203.59,60.422 197.595,70.805 209.585,70.805 		"/>
		<path style="fill:#814EFF;" d="M205.917,303.127c0-0.919-0.745-1.665-1.665-1.665c-0.919,0-1.664,0.745-1.664,1.665
			c0,0.919,0.745,1.665,1.664,1.665C205.172,304.792,205.917,304.046,205.917,303.127z"/>
		<path style="fill:#814EFF;" d="M370.867,362.202c0-0.919-0.745-1.664-1.665-1.664c-0.919,0-1.665,0.745-1.665,1.664
			c0,0.919,0.745,1.665,1.665,1.665C370.122,363.867,370.867,363.121,370.867,362.202z"/>
		<circle style="fill:#060305;" cx="100.122" cy="290.786" r="1.665"/>
		<circle style="fill:#814EFF;" cx="56.394" cy="310.73" r="1.665"/>
		<path style="fill:none;stroke:#060305;stroke-linecap:round;stroke-linejoin:round;stroke-miterlimit:10;" d="M196.546,429.017
			c0-0.919-0.745-1.665-1.665-1.665c-0.919,0-1.665,0.745-1.665,1.665c0,0.919,0.745,1.664,1.665,1.664
			C195.8,430.682,196.546,429.937,196.546,429.017z"/>
		<path style="fill:#060305;" d="M392.567,336.052c0-0.919-0.745-1.664-1.665-1.664c-0.919,0-1.665,0.745-1.665,1.664
			c0,0.919,0.745,1.665,1.665,1.665C391.822,337.716,392.567,336.971,392.567,336.052z"/>
		<path style="fill:none;stroke:#060305;stroke-linecap:round;stroke-linejoin:round;stroke-miterlimit:10;" d="M448.949,330.475
			c0-0.919-0.745-1.665-1.665-1.665c-0.919,0-1.665,0.745-1.665,1.665c0,0.919,0.745,1.665,1.665,1.665
			C448.203,332.14,448.949,331.394,448.949,330.475z"/>
		<path style="fill:#060305;" d="M434.199,117.445c0-0.919-0.745-1.665-1.664-1.665c-0.919,0-1.665,0.745-1.665,1.665
			c0,0.919,0.745,1.665,1.665,1.665C433.453,119.11,434.199,118.364,434.199,117.445z"/>
		<path style="fill:none;stroke:#060305;stroke-linecap:round;stroke-linejoin:round;stroke-miterlimit:10;" d="M316.772,133.627
			c0-0.919-0.745-1.665-1.664-1.665c-0.919,0-1.665,0.745-1.665,1.665c0,0.919,0.745,1.665,1.665,1.665
			C316.027,135.291,316.772,134.546,316.772,133.627z"/>
		<path style="fill:#814EFF;" d="M403.476,159.546c0-0.919-0.745-1.665-1.665-1.665c-0.919,0-1.664,0.745-1.664,1.665
			c0,0.919,0.745,1.665,1.664,1.665C402.73,161.21,403.476,160.465,403.476,159.546z"/>
		<path style="fill:#814EFF;" d="M244.546,75.6c0-0.919-0.745-1.665-1.665-1.665s-1.665,0.745-1.665,1.665
			c0,0.919,0.745,1.664,1.665,1.664S244.546,76.52,244.546,75.6z"/>
		
			<circle style="fill:none;stroke:#060305;stroke-linecap:round;stroke-linejoin:round;stroke-miterlimit:10;" cx="134.117" cy="341.738" r="1.665"/>
	</g>
	<g>
		<path style="fill:none;stroke:#060305;stroke-linecap:round;stroke-linejoin:round;stroke-miterlimit:10;" d="M150.006,363.867
			L150.006,363.867c-1.033,3.211-5.577,3.211-6.611,0h0c-1.034-3.211-5.577-3.211-6.611,0l0,0c-1.033,3.211-5.577,3.211-6.611,0l0,0
			c-1.033-3.211-5.577-3.211-6.611,0l0,0c-1.034,3.211-5.577,3.211-6.61,0l0,0c-1.034-3.211-5.577-3.211-6.611,0l0,0
			c-1.034,3.211-5.577,3.211-6.611,0l0,0c-1.034-3.211-5.577-3.211-6.611,0l0,0c-1.034,3.211-5.577,3.211-6.61,0l0,0
			c-1.034-3.211-5.577-3.211-6.611,0"/>
		<path style="fill:none;stroke:#060305;stroke-linecap:round;stroke-linejoin:round;stroke-miterlimit:10;" d="M382.242,65.614
			L382.242,65.614c-1.034,3.211-5.577,3.211-6.611,0v0c-1.034-3.211-5.577-3.211-6.611,0v0c-1.034,3.211-5.577,3.211-6.611,0v0
			c-1.034-3.211-5.577-3.211-6.611,0v0c-1.033,3.211-5.577,3.211-6.611,0v0c-1.034-3.211-5.577-3.211-6.611,0v0
			c-1.034,3.211-5.577,3.211-6.611,0v0c-1.033-3.211-5.577-3.211-6.611,0v0c-1.034,3.211-5.577,3.211-6.611,0v0
			c-1.033-3.211-5.577-3.211-6.611,0"/>
		<path style="fill:none;stroke:#060305;stroke-linecap:round;stroke-linejoin:round;stroke-miterlimit:10;" d="M429.223,400.764
			L429.223,400.764c-1.033,3.211-5.577,3.211-6.611,0l0,0c-1.033-3.211-5.577-3.211-6.61,0l0,0c-1.034,3.211-5.577,3.211-6.611,0
			l0,0c-1.033-3.211-5.577-3.211-6.61,0l0,0c-1.034,3.211-5.577,3.211-6.611,0l0,0c-1.034-3.211-5.577-3.211-6.611,0l0,0
			c-1.034,3.211-5.577,3.211-6.611,0l0,0c-1.034-3.211-5.577-3.211-6.611,0l0,0c-1.034,3.211-5.577,3.211-6.611,0l0,0
			c-1.034-3.211-5.577-3.211-6.611,0"/>
	</g>
	<g>
		
			<rect x="234.552" y="200.105" style="fill:none;stroke:#060305;stroke-linecap:round;stroke-linejoin:round;stroke-miterlimit:10;" width="88.362" height="43.112"/>
		<g>
			<path style="fill:#C14F4F;" d="M418.84,235.848c-4.899,1.689-9.837,3.537-14.736,5.227
				c-15.285-14.041-37.053-20.714-57.712-18.715c-11.43,1.106-22.861,2.212-34.291,3.318c-0.235,1.359,0.548,2.706,1.729,3.419
				c1.181,0.713,2.587,0.925,3.952,1.122c-2.415,0.267-4.829,0.534-7.244,0.802c-0.65,1.234-0.103,2.646,1.016,3.478
				c1.119,0.832,2.552,1.087,3.927,1.319c9.307,1.569,18.614,3.137,27.921,4.706c-8.382,2.389-17.109,4.811-25.491,7.199
				c0.026,1.397,0.565,2.69,1.875,3.178s2.749,0.437,4.145,0.379c7.165-0.298,14.331-0.596,21.496-0.893
				c-3.482,0.964-7.14,1.842-10.622,2.806c-1.306,1.632-2.17,3.006-3.476,4.637c0.305,0.634,0.857,1.046,1.55,1.166
				c0.693,0.12,1.405,0,2.087-0.171c1.165-0.291,2.293-0.73,3.349-1.304c3.5,0.186,6.995,0.001,10.495,0.188
				c4.742,0.252,9.491,0.504,14.236,0.333c5.821,8.458,11.549,16.419,17.37,24.877c4.793,6.966,13.98,10.065,22.391,9.193
				c8.411-0.873,16.228-6.211,20.101-13.727c3.393-6.584,3.769-14.392,2.476-21.685C424.091,249.406,421.674,242.691,418.84,235.848
				z"/>
			<path style="fill:none;stroke:#060305;stroke-linecap:round;stroke-linejoin:round;stroke-miterlimit:10;" d="M404.004,240.839
				c4.036,1.044,7.748,3.307,10.524,6.417"/>
			<path style="fill:none;stroke:#060305;stroke-linecap:round;stroke-linejoin:round;stroke-miterlimit:10;" d="M362.863,258.423
				c4.896-0.451,9.793-0.902,14.689-1.353"/>
			<path style="fill:none;stroke:#060305;stroke-linecap:round;stroke-linejoin:round;stroke-miterlimit:10;" d="M342.08,251.314
				c3.011-0.397,6.021-0.794,9.032-1.191"/>
			<path style="fill:none;stroke:#060305;stroke-linecap:round;stroke-linejoin:round;stroke-miterlimit:10;" d="M340.325,240.747
				c3.13,0.235,6.261,0.471,9.391,0.706"/>
			<path style="fill:none;stroke:#060305;stroke-linecap:round;stroke-linejoin:round;stroke-miterlimit:10;" d="M317.017,230.595
				c-0.289-0.054-0.578-0.109-0.867-0.163c11.387,0.132,22.773,0.264,34.16,0.397"/>
		</g>
	</g>
</g>
</svg>
