<?xml version="1.0" encoding="utf-8"?>
<!-- Generator: Adobe Illustrator 27.5.0, SVG Export Plug-In . SVG Version: 6.00 Build 0)  -->
<svg version="1.1" xmlns="http://www.w3.org/2000/svg" xmlns:xlink="http://www.w3.org/1999/xlink" x="0px" y="0px"
	 viewBox="0 0 3710 3710" style="enable-background:new 0 0 3710 3710;" xml:space="preserve">
<g id="Background">
	<g>
		<g>
			<rect style="fill:#FFFFFF;" width="3710" height="3710"/>
		</g>
	</g>
</g>
<g id="Illustration">
	<g>
		<path style="fill:#F4F7FA;" d="M1125.07,623.292c-94.432,135.184,16.292,354.351-123.829,456.021
			c-136.397,98.968-303.956-63.254-432.501,21.937c-190.69,126.376-155.866,704.648,122.932,1063.941
			c83.844,108.052,153.901,150.093,184.929,272.294c66.625,262.397-167.53,418.487-122.971,548.264
			c100.332,292.211,1643.366,537.41,2262.5-340.78c289.161-410.151,332.426-1002.412,74.069-1452.238
			C2623.354,379.902,1336.958,319.963,1125.07,623.292z"/>
		<g>
			<g>
				<defs>
					<path id="SVGID_1_" d="M1577.372,2069.937l197.487-94.962c0,0-11.538-119.182-94.313-167.406
						c-168.886-98.39-70.926-239.439-38.734-304.654c48.548-98.349,48.438-206.191-84.36-189.307
						c-132.798,16.884-103.075-215.799-1.779-363.333c99.126-144.372-100.313-403.887-343.55-111.11
						c-145.26,174.845-21.124,358.304,19.539,465.852s-108.764,189.916,4.422,290.759c96.681,86.138,219.728,123.678,190.258,229.03
						C1396.874,1930.158,1430.068,2016.43,1577.372,2069.937z"/>
				</defs>
				<clipPath id="SVGID_00000123436626265486763650000013709415452645534115_">
					<use xlink:href="#SVGID_1_"  style="overflow:visible;"/>
				</clipPath>
				
					<linearGradient id="SVGID_00000075138018416849013880000005463403589866784429_" gradientUnits="userSpaceOnUse" x1="3062.9023" y1="189.9877" x2="2626.6565" y2="1429.8456" gradientTransform="matrix(0.9012 -0.4334 0.4334 0.9012 -1468.5117 1908.72)">
					<stop  offset="0.0036" style="stop-color:#E38DDD"/>
					<stop  offset="1" style="stop-color:#9571F6"/>
				</linearGradient>
				
					<path style="clip-path:url(#SVGID_00000123436626265486763650000013709415452645534115_);fill:url(#SVGID_00000075138018416849013880000005463403589866784429_);" d="
					M1577.372,2069.937l197.487-94.962c0,0-11.538-119.182-94.313-167.406c-168.886-98.39-70.926-239.439-38.734-304.654
					c48.548-98.349,45.002-193.555-73.159-199.602c-133.692-6.842-114.276-205.504-12.98-353.038
					c99.126-144.372-100.313-403.887-343.55-111.11c-145.26,174.845-21.124,358.304,19.539,465.852s-108.764,189.916,4.422,290.759
					c96.681,86.138,219.728,123.678,190.258,229.03C1396.874,1930.158,1430.068,2016.43,1577.372,2069.937z"/>
				<g style="opacity:0.5;clip-path:url(#SVGID_00000123436626265486763650000013709415452645534115_);">
					<path style="fill:#BEB8F2;" d="M1671.658,2047.166l3.74-2.724c-1.687-2.316-169.742-234.806-266.846-515.516
						c-89.461-258.609-135.253-612.255,154.617-828.412l-2.765-3.709c-129.037,96.223-203.433,227.211-221.126,389.325
						c-14.133,129.502,7.713,279.018,64.932,444.397C1501.553,1811.871,1669.969,2044.844,1671.658,2047.166z"/>
					<path style="fill:#BEB8F2;" d="M1334.811,1154.193l3.89-2.507c-83.356-129.456-124.951-350.283-125.362-352.498l-4.549,0.841
						C1209.203,802.255,1250.966,1023.978,1334.811,1154.193z"/>
					<path style="fill:#BEB8F2;" d="M1349.56,1046.5c98.3-154.927,249.601-176.022,251.116-176.216l-0.588-4.587
						c-1.54,0.195-154.928,21.499-254.434,178.325L1349.56,1046.5z"/>
					<path style="fill:#BEB8F2;" d="M1482.034,1708.986c-47.902-218.978,196.258-395.737,198.781-397.26l-2.125-4.104
						c-2.617,1.26-249.503,181.43-201.174,402.353L1482.034,1708.986z"/>
					<path style="fill:#BEB8F2;" d="M1440.696,1626.314l3.675-2.814c-86.937-113.586-265.596-134.597-267.392-134.796l-0.51,4.597
						C1178.246,1493.499,1354.976,1514.311,1440.696,1626.314z"/>
					<path style="fill:#BEB8F2;" d="M1649.759,2007.276c-30.776-79.398,49.324-192.5,50.135-193.634l-3.758-2.695
						c-3.379,4.707-82.376,116.262-50.69,198.001L1649.759,2007.276z"/>
					<path style="fill:#BEB8F2;" d="M1609.221,1952.755l3.772-2.679c-38.974-54.902-161.424-78.059-201.662-85.669
						c-5.687-1.076-10.595-2.004-11.437-2.342l-1.782,4.269c1.181,0.493,4.442,1.12,12.36,2.618
						C1450.257,1876.477,1571.328,1899.374,1609.221,1952.755z"/>
				</g>
			</g>
			<g>
				
					<linearGradient id="SVGID_00000067915364133543291610000009894467144962660279_" gradientUnits="userSpaceOnUse" x1="-1571.0814" y1="-865.1766" x2="-943.7891" y2="783.0876" gradientTransform="matrix(-0.5417 0.8406 0.8406 0.5417 310.1608 2786.2822)">
					<stop  offset="0" style="stop-color:#FFC444"/>
					<stop  offset="0.9964" style="stop-color:#F36F56"/>
				</linearGradient>
				<path style="fill:url(#SVGID_00000067915364133543291610000009894467144962660279_);" d="M1381.909,1875.805
					c67.633,2.489,75.343,62.175,97.329,104.926c-3.202,5.66-3.601,9.733-5.557,16.138c-17.663,57.81-37.516,78.709-63.922,132.941
					c-5.684,11.674-32.787,40.863-44.627,52.078l-22.407,20.557c0,0-153.79-24.752-149.436-113.293
					c4.354-88.541-138.726-130.579-211.78-162.19c-44.86-19.412-59.159-42.66-74.497-52.439
					c-162.37-103.516-240.325-80.64-272.446-146.736c-35.46-72.965,49.392-121.73,15.011-203.142
					c-38.824-91.93-173.084-91.471-190.383-186.677c-2.966-16.323-5.569-33.174-0.66-54.753
					c12.118-53.262,59.537-75.576,40.097-129.244c-39.076-107.874-4.955-230.552,111.291-252.176
					c114.728-21.342,226.559,139.506,242.124,398.434c32.063,182.877,62.264,201.686,144.29,232.695
					c57.453,21.722,227.614,42.552,239.218,149.167C1247.158,1788.702,1304.591,1872.962,1381.909,1875.805z"/>
				<g>
					<defs>
						<path id="SVGID_00000111886853786886612820000014349307141716953510_" d="M1503.324,2037.343l-153.525,163.412
							c0,0-160.864-23.062-156.51-111.604c4.354-88.542-138.725-130.579-211.78-162.191
							c-198.215-85.771-57.062-292.794-301.529-424.392c-65.021-35.001-202.231-78.746-220.786-164.601
							c-21.139-97.814,64.437-114.979,39.436-183.997c-39.076-107.874-4.954-230.553,111.291-252.177
							c114.728-21.342,226.559,139.506,242.125,398.433c32.063,182.879,62.265,201.685,144.29,232.696
							c57.454,21.721,227.615,42.552,239.219,149.167c11.604,106.614,38.059,197.543,115.376,200.388
							C1468.576,1886.804,1503.324,2037.343,1503.324,2037.343z"/>
					</defs>
					<clipPath id="SVGID_00000099624382897668034450000005996864757695433368_">
						<use xlink:href="#SVGID_00000111886853786886612820000014349307141716953510_"  style="overflow:visible;"/>
					</clipPath>
					<g style="opacity:0.5;clip-path:url(#SVGID_00000099624382897668034450000005996864757695433368_);">
						<path style="fill:#FCFDFE;" d="M1427.361,2103.641l-2.639,3.576c-19.882-14.387-39.74-29.159-59.02-43.906
							c-142.748-109.202-269.245-228.778-375.98-355.413c-90.439-107.302-167.987-221.159-230.489-338.409
							c-50.264-94.292-91.116-191.281-121.419-288.273c-21.301-68.185-37.212-135.665-47.282-200.57
							c-1.757-11.31-2.921-23.025-4.047-34.354c-1.499-15.095-3.049-30.703-6.018-45.474l4.172-1.162
							c3.009,14.974,4.571,30.688,6.081,45.885c1.12,11.273,2.278,22.93,4.017,34.125c10.04,64.7,25.901,131.98,47.144,199.971
							c30.227,96.751,70.983,193.509,121.132,287.584c62.374,117.008,139.768,230.638,230.032,337.733
							c106.554,126.421,232.851,245.806,375.379,354.838C1387.675,2074.522,1407.504,2089.274,1427.361,2103.641z"/>
						<path style="fill:#FCFDFE;" d="M845.11,1506.21l-3.542,2.656c-101.133-146.073-397.599-224.7-400.582-225.476l1.344-4.187
							C445.327,1279.984,743.167,1358.968,845.11,1506.21z"/>
						<path style="fill:#FCFDFE;" d="M1165.305,1886.892l-3.243,3.032c-80.82-90.211-43.995-332.925-43.615-335.366l4.203,0.359
							C1122.271,1557.339,1085.747,1798.092,1165.305,1886.892z"/>
						<path style="fill:#FCFDFE;" d="M1215.835,1933.711l-2.708,3.526c-62.925-47.68-176.464-76.574-319.695-81.355
							c-7.203-0.241-7.203-0.241-7.833-0.704l2.667-3.558l-1.333,1.779l0.613-2.099c0.474,0.072,3.193,0.163,6.345,0.267
							C1037.941,1856.378,1152.275,1885.548,1215.835,1933.711z"/>
						<path style="fill:#FCFDFE;" d="M1391.483,2076.836l-3.532,2.667c-50.055-71.634-10.502-203.369-10.098-204.69l4.056,0.991
							C1381.51,1877.108,1342.575,2006.842,1391.483,2076.836z"/>
						<path style="fill:#FCFDFE;" d="M1424.309,2109.611c-68.717-17.934-146.264-15.993-237.069,5.935l-0.685-4.198
							c91.503-22.094,169.714-24.031,239.1-5.923L1424.309,2109.611z"/>
						<path style="fill:#FCFDFE;" d="M660.674,1136.392l-3.667,2.459c-51.517-84.744-125.961-160.14-150.424-184.916
							c-5.922-5.997-7.999-8.116-8.586-8.991l3.575-2.606c0.458,0.662,3.843,4.09,8.129,8.43
							C534.242,975.624,608.922,1051.261,660.674,1136.392z"/>
						<path style="fill:#FCFDFE;" d="M723.354,1288.326l-4.14,1.306c-21.958-92.188,78.748-263.702,83.046-270.959l3.603,2.014
							C804.821,1022.447,701.806,1197.859,723.354,1288.326z"/>
					</g>
				</g>
			</g>
			<g>
				
					<linearGradient id="SVGID_00000161595429286989483450000015373902548507688377_" gradientUnits="userSpaceOnUse" x1="4652.5034" y1="-1192.85" x2="5295.6577" y2="-134.0521" gradientTransform="matrix(-0.5322 0.8466 0.8466 0.5322 4308.2866 -2451.8408)">
					<stop  offset="0" style="stop-color:#FF9085"/>
					<stop  offset="1" style="stop-color:#FB6FBB"/>
				</linearGradient>
				<path style="fill:url(#SVGID_00000161595429286989483450000015373902548507688377_);" d="M1459.168,1874.417
					c-7.134,8.712,38.675,41.314-41.113,29.643c-19.933-2.916,46.452-68.558,0,0c-9.017,13.308-182.032-81.978-191.049-68.67
					c-37.919-7.459-72.275-21.514-58.092-70.157c22.027-75.54-84.982-142.715-134.258-148.277
					c-60.988-6.885-202.505-25.892-170.24-143.113c26.859-97.587,63.612-156.125-34.028-223.427
					c-97.641-67.303-124.456-163.647-58.02-256.285c69.915-97.488-6.594-258.751,88.52-315.63
					c165.733-99.105,306.667,167.544,260.939,382.759c-45.727,215.213,78.046,151.028,163.892,196.633
					c7.729,4.685,19.351,12.545,31.307,24.425c73.607,73.145,32.252,171.931,62.323,279.984
					C1420.361,1709.665,1471.187,1859.741,1459.168,1874.417z"/>
				<g>
					<defs>
						<path id="SVGID_00000163752761806768202370000011470041850787678651_" d="M1396.21,1622.835l-140.183,219.803
							c-37.821-5.553-102.955-23.069-87.112-77.404c22.026-75.541-84.982-142.715-134.258-148.278
							c-60.988-6.885-202.506-25.892-170.241-143.114c26.86-97.587,63.613-156.124-34.028-223.426
							c-97.64-67.303-124.456-163.647-58.019-256.285c69.914-97.487-6.596-258.75,88.52-315.628
							c165.734-99.107,306.665,167.543,260.939,382.757c-45.727,215.214,78.046,151.029,163.893,196.635
							c117.2,62.261-7.59,207.953,10.278,277.322C1310.006,1589.597,1361.952,1612.649,1396.21,1622.835z"/>
					</defs>
					<clipPath id="SVGID_00000152242752836200415510000000611216674885368473_">
						<use xlink:href="#SVGID_00000163752761806768202370000011470041850787678651_"  style="overflow:visible;"/>
					</clipPath>
					<g style="opacity:0.5;clip-path:url(#SVGID_00000152242752836200415510000000611216674885368473_);">
						<path style="fill:#FCFDFE;" d="M1297.252,1705.932l-3.857,4.132c-282.733-268.839-427.216-682.92-377.064-1080.65l5.417,0.393
							C871.807,1025.861,1015.692,1438.209,1297.252,1705.932z"/>
						<path style="fill:#FCFDFE;" d="M1156.275,1545.256l-3.017,4.776c-130.81-80.137-307.003-25.144-308.767-24.579l-1.374-5.265
							C844.903,1519.614,1023.401,1463.857,1156.275,1545.256z"/>
						<path style="fill:#FCFDFE;" d="M1246.655,1654.962l-4.817,2.879c-74.979-137.551,68.217-400.411,69.674-403.05l4.734,2.483
							C1314.806,1259.883,1173.102,1520.027,1246.655,1654.962z"/>
						<path style="fill:#FCFDFE;" d="M980.092,1202.067l-4.58,3.274c-68.766-103.042-259.038-127.953-260.952-128.193l0.968-5.489
							C717.466,1071.901,910.056,1097.12,980.092,1202.067z"/>
						<path style="fill:#FCFDFE;" d="M922.737,955.638l-5.46,0.126c4.922-145.576,144.446-290.245,145.858-291.69l3.778,3.771
							C1065.517,669.271,927.581,812.331,922.737,955.638z"/>
					</g>
				</g>
			</g>
		</g>
		<g>
			<g>
				<g>
					<path style="fill:#97A6B7;" d="M3069.894,2448.395l-56.307,0.097c-3.879-37.194-12.821-72.897-26.126-106.439l47.608-27.609
						c13.011-7.545,17.46-24.563,9.96-38.051l-20.006-35.977c-7.545-13.57-24.302-18.553-37.45-11.091l-47.015,26.684
						c-21.882-30.664-47.998-58.31-77.578-82.09l27.042-46.452c7.76-13.328,3.156-30.869-10.305-39.221l-35.99-22.33
						c-13.606-8.441-31.063-4.452-38.967,8.955l-27.104,45.977c-34.824-16.222-72.457-27.923-112.149-34.2v-54.522
						c0-16.085-13.231-29.727-29.604-30.474l-43.82-2c-16.583-0.756-30.068,11.81-30.068,28.072v55.121
						c-40.916,3.409-80.359,12.607-117.438,26.839l-29.251-49.833c-8.596-14.644-27.688-20.322-42.671-12.637l-40.073,20.552
						c-15.154,7.772-20.356,26.061-11.592,40.805l30.308,50.983c-33.172,23.451-62.826,51.526-87.944,83.359l-54.82-31.016
						c-15.542-8.793-35.487-4.234-44.519,10.231l-24.1,38.599c-9.092,14.563-3.694,33.461,12.026,42.16l56.725,31.391
						c-15.729,36.223-26.353,75.052-30.976,115.651l-68.043,0.117c-18.313,0.031-33.207,13.912-33.207,31.001v45.45
						c0,17.09,14.894,30.759,33.207,30.531l69.85-0.869c5.897,39.649,17.544,77.395,34.096,112.439l-61.653,34.991
						c-15.721,8.923-21.119,27.896-12.026,42.33l24.1,38.258c9.032,14.338,28.977,18.614,44.519,9.601l62.358-36.163
						c24.916,29.469,53.893,55.362,86.049,76.913l-35.951,60.985c-8.764,14.867-3.562,33.083,11.592,40.64l40.073,19.985
						c14.983,7.472,34.075,1.524,42.671-13.242l35.655-61.247c35.207,12.418,72.467,20.298,111.035,23.019v68.278
						c0,16.261,13.486,28.637,30.068,27.645l43.82-2.62c16.373-0.979,29.604-14.809,29.604-30.893v-67.536
						c37.433-6.398,73.032-17.597,106.173-32.829l33.08,55.647c7.904,13.295,25.36,17.038,38.967,8.404l35.991-22.84
						c13.461-8.542,18.064-26.148,10.304-39.367l-32.113-54.708c28.745-22.748,54.335-49.064,76.104-78.171l53.56,29.64
						c13.147,7.276,29.904,2.055,37.45-11.621l20.006-36.26c7.5-13.593,3.051-30.548-9.96-37.909l-51.793-29.303
						c14.027-32.906,23.844-67.935,28.796-104.423l57.822-0.719c14.905-0.186,26.952-12.777,26.952-28.125v-40.817
						C3096.846,2460.791,3084.799,2448.369,3069.894,2448.395z M2614.044,2784.399c-166.612,6.182-306.041-123.126-306.041-289.019
						c0-165.892,139.429-296.983,306.041-292.93c160.95,3.915,287.467,133.313,287.467,289.137
						C2901.51,2647.411,2774.994,2778.426,2614.044,2784.399z"/>
					<polygon style="fill:#97A6B7;" points="2427.612,2045.077 2387.509,2043.694 2373.68,2079.649 					"/>
					<polygon style="fill:#97A6B7;" points="2825.273,2061.671 2871.517,2062.132 2871.517,2096.243 					"/>
					<polygon style="fill:#97A6B7;" points="3001.508,2226.216 3047.604,2228.078 3036.08,2253.892 					"/>
					<polygon style="fill:#97A6B7;" points="3073.878,2448.878 3120.435,2452.565 3105.224,2475.152 					"/>
					<polygon style="fill:#97A6B7;" points="2996.437,2768.323 3041.611,2774.776 3047.143,2737.9 					"/>
					<polygon style="fill:#97A6B7;" points="2823.577,2934.729 2864.142,2942.105 2867.368,2912.142 					"/>
					<polygon style="fill:#97A6B7;" points="2620.754,3006.639 2584.339,3000.186 2615.684,2953.629 					"/>
					<polygon style="fill:#97A6B7;" points="2423.464,2967.458 2381.055,2958.699 2413.783,2919.057 					"/>
					<polygon style="fill:#97A6B7;" points="2185.147,2207.796 2229.399,2209.178 2211.883,2241.446 					"/>
					<polygon style="fill:#97A6B7;" points="2097.104,2554.898 2137.669,2560.891 2134.442,2527.702 					"/>
					<polygon style="fill:#97A6B7;" points="2184.226,2797.824 2223.868,2804.278 2227.095,2778.003 					"/>
				</g>
				<path style="fill:#D8DEE8;" d="M3115.386,2452.051l-56.773,0.097c-3.911-37.497-12.927-73.491-26.343-107.306l48.003-27.834
					c13.118-7.607,17.604-24.763,10.042-38.36l-20.171-36.27c-7.608-13.68-24.503-18.705-37.76-11.181l-47.405,26.901
					c-22.063-30.913-48.396-58.785-78.221-82.759l27.266-46.83c7.823-13.437,3.182-31.12-10.39-39.54l-36.289-22.512
					c-13.719-8.51-31.32-4.488-39.29,9.028l-27.328,46.351c-35.114-16.353-73.058-28.15-113.079-34.478v-54.967
					c0-16.216-13.341-29.97-29.85-30.723l-44.183-2.016c-16.72-0.763-30.318,11.906-30.318,28.3v55.571
					c-41.255,3.437-81.025,12.709-118.412,27.057l-29.493-50.239c-8.667-14.763-27.917-20.487-43.024-12.741l-40.405,20.72
					c-15.28,7.836-20.525,26.273-11.688,41.137l30.559,51.398c-33.447,23.642-63.347,51.946-88.673,84.039l-55.274-31.268
					c-15.671-8.865-35.781-4.269-44.888,10.315l-24.299,38.913c-9.168,14.681-3.725,33.733,12.126,42.504l57.195,31.646
					c-15.859,36.518-26.572,75.664-31.232,116.594l-68.606,0.118c-18.464,0.032-33.482,14.025-33.482,31.254v45.82
					c0,17.229,15.018,31.01,33.482,30.78l70.429-0.876c5.946,39.973,17.69,78.026,34.379,113.355l-62.164,35.276
					c-15.851,8.995-21.294,28.124-12.126,42.675l24.299,38.57c9.107,14.455,29.217,18.766,44.888,9.679l62.875-36.458
					c25.122,29.709,54.34,55.813,86.762,77.539l-36.249,61.482c-8.837,14.989-3.591,33.352,11.688,40.971l40.405,20.148
					c15.107,7.533,34.357,1.536,43.024-13.35l35.95-61.746c35.499,12.519,73.068,20.464,111.955,23.207v68.834
					c0,16.393,13.598,28.87,30.318,27.871l44.183-2.642c16.509-0.987,29.85-14.929,29.85-31.145v-68.086
					c37.743-6.451,73.637-17.741,107.052-33.096l33.354,56.1c7.969,13.404,25.571,17.177,39.29,8.472l36.289-23.026
					c13.573-8.612,18.214-26.361,10.39-39.688l-32.379-55.154c28.983-22.933,54.785-49.464,76.735-78.807l54.004,29.881
					c13.257,7.335,30.152,2.072,37.76-11.716l20.171-36.556c7.562-13.704,3.076-30.797-10.042-38.218l-52.223-29.542
					c14.143-33.174,24.041-68.488,29.035-105.273l58.301-0.725c15.029-0.187,27.175-12.882,27.175-28.354v-41.149
					C3142.561,2464.548,3130.415,2452.025,3115.386,2452.051z M2655.758,2790.792c-167.993,6.233-308.578-124.129-308.578-291.373
					c0-167.244,140.585-299.402,308.578-295.316c162.284,3.947,289.849,134.399,289.849,291.492
					C2945.607,2652.689,2818.042,2784.771,2655.758,2790.792z"/>
			</g>
		</g>
		<g>
			
				<linearGradient id="SVGID_00000092423065565014354240000010058227949305113760_" gradientUnits="userSpaceOnUse" x1="3233.2144" y1="443.7464" x2="2819.3528" y2="841.5359">
				<stop  offset="0" style="stop-color:#311944"/>
				<stop  offset="1" style="stop-color:#A03976"/>
			</linearGradient>
			<path style="fill:url(#SVGID_00000092423065565014354240000010058227949305113760_);" d="M2407.432,2303.777
				c-36.509,1.057-72.119-8.144-102.964-26.629c-93.976-56.335-232.835-149.367-357.764-271.147
				c-158.522-154.534-249.603-311.616-269.531-465.867l-0.312-2.417l-3.867-658.18c0-130.077,84.843-235.665,244.13-305.046
				c131.604-57.322,306.034-85.725,490.308-80.391c182.129,5.272,350.659,42.851,475.399,105.467
				c148.28,74.435,226.081,179.039,226.081,303.058l-3.527,628.897l-0.286,2.312c-18.211,147.71-102.012,300.391-250.126,454.787
				c-118.802,123.835-253.05,221.973-345.249,282.778C2479.223,2291.516,2443.858,2302.723,2407.432,2303.777z"/>
			
				<linearGradient id="SVGID_00000009575636514755677000000006084889895573105576_" gradientUnits="userSpaceOnUse" x1="2104.5125" y1="1753.1251" x2="1397.4454" y2="2931.5681">
				<stop  offset="0" style="stop-color:#FF9085"/>
				<stop  offset="1" style="stop-color:#FB6FBB"/>
			</linearGradient>
			<path style="fill:url(#SVGID_00000009575636514755677000000006084889895573105576_);" d="M2443.576,2303.777
				c-36.026,1.057-71.166-8.144-101.604-26.629c-92.735-56.335-229.76-149.367-353.038-271.147
				c-156.427-154.534-246.304-311.616-265.967-465.867l-0.309-2.417l-3.816-658.18c0-130.077,83.721-235.665,240.903-305.046
				c129.866-57.322,301.991-85.725,483.831-80.391c179.723,5.272,346.026,42.851,469.116,105.467
				c146.323,74.435,223.095,179.039,223.095,303.058l-3.481,628.897l-0.282,2.312c-17.97,147.71-100.663,300.391-246.821,454.787
				c-117.233,123.835-249.706,221.973-340.687,282.778C2514.418,2291.516,2479.52,2302.723,2443.576,2303.777z"/>
			
				<linearGradient id="SVGID_00000081643103633303743100000003511262441243289244_" gradientUnits="userSpaceOnUse" x1="2749.1306" y1="1844.4514" x2="1606.5922" y2="-452.9579">
				<stop  offset="0" style="stop-color:#FF9085"/>
				<stop  offset="1" style="stop-color:#FB6FBB"/>
			</linearGradient>
			<path style="fill:url(#SVGID_00000081643103633303743100000003511262441243289244_);" d="M1762.298,880.008l3.842,654.855
				c43.106,334.125,435.777,604.641,606.799,707.42c48.992,29.442,111.629,27.697,160.275-4.313
				c167.451-110.187,538.616-387.583,578.274-708.83l3.522-627.163C3115.01,436.675,1762.298,394.137,1762.298,880.008z"/>
			
				<linearGradient id="SVGID_00000132057874558114418550000016279024792012105097_" gradientUnits="userSpaceOnUse" x1="1891.9606" y1="1398.7581" x2="2995.1416" y2="1398.7581">
				<stop  offset="0" style="stop-color:#311944"/>
				<stop  offset="1" style="stop-color:#893976"/>
			</linearGradient>
			<path style="fill:url(#SVGID_00000132057874558114418550000016279024792012105097_);" d="M2453.281,2141.344
				c-3.135,0.073-7.879-0.448-12.673-3.354c-70.417-42.642-206.919-131.961-325.672-248.606
				c-128.269-125.998-202.248-248.499-219.212-363.552l-3.763-644.012c0.156-61.793,49.071-114.677,144.954-156.993
				c107.038-47.241,259.047-72.03,416.366-68.293c155.751,3.697,303.323,35.051,405.56,85.783
				c90.434,44.873,136.155,97.774,136.3,157.43l-3.507,621.714c-15.833,111.335-85.267,231.361-207.177,357.531
				c-114.627,118.631-248.528,212.672-318.515,258.403C2461.155,2140.522,2456.415,2141.269,2453.281,2141.344z"/>
			<path style="fill:#F4F7FA;" d="M2437.212,2097.324c-71.114-43.799-197.569-128.374-307.899-236.954
				c-120.544-118.634-190.302-232.475-206.702-337.811l-3.734-640.272c0.112-44.181,40.723-84.708,120.398-119.984
				c101.398-44.898,246.674-68.556,397.934-65.161c149.809,3.364,291.014,32.953,388.051,80.964
				c75.396,37.304,113.539,77.996,113.643,121.086l-3.499,619.428c-15.385,102.201-81.184,213.973-196.245,332.838
				C2632.332,1961.815,2508.003,2050.556,2437.212,2097.324z"/>
			<g>
				
					<linearGradient id="SVGID_00000147201383055185904940000000198836712942984606_" gradientUnits="userSpaceOnUse" x1="2794.937" y1="829.5859" x2="2341.2173" y2="1668.2787">
					<stop  offset="0.0036" style="stop-color:#E38DDD"/>
					<stop  offset="1" style="stop-color:#9571F6"/>
				</linearGradient>
				<path style="fill:url(#SVGID_00000147201383055185904940000000198836712942984606_);" d="M2691.664,1259.034l-478.871,4.26
					c-36.813,0.328-66.805,29.025-66.805,64.078v306.817c0,34.848,29.88,61.858,66.56,60.356l477.181-19.538
					c33.941-1.39,61.467-29.487,61.64-62.782l1.517-293.103C2753.059,1285.643,2725.722,1258.732,2691.664,1259.034z"/>
				
					<linearGradient id="SVGID_00000057126247221997103010000008940820796417279647_" gradientUnits="userSpaceOnUse" x1="2388.9414" y1="1382.1144" x2="2546.7192" y2="1626.6705">
					<stop  offset="0" style="stop-color:#311944"/>
					<stop  offset="1" style="stop-color:#893976"/>
				</linearGradient>
				<path style="fill:url(#SVGID_00000057126247221997103010000008940820796417279647_);" d="M2517.753,1434.975
					c0.107-33.886-28.977-60.673-64.49-58.427c-31.442,1.985-57.525,27.378-59.289,57.85c-1.368,23.636,11.415,44.113,30.877,54.507
					c8.273,4.419,12.364,13.681,10.732,22.825l-13.84,77.507c-1.761,9.865,6.059,18.546,16.369,18.184l35.032-1.229
					c10.242-0.358,18.033-9.536,16.342-19.233l-13.391-76.772c-1.6-9.167,3.125-18.255,11.428-23.248
					C2505.57,1476.081,2517.683,1456.758,2517.753,1434.975z"/>
				
					<linearGradient id="SVGID_00000036959589552158227140000003695921078908649630_" gradientUnits="userSpaceOnUse" x1="2663.833" y1="758.661" x2="2210.1138" y2="1597.353">
					<stop  offset="0.0036" style="stop-color:#E38DDD"/>
					<stop  offset="1" style="stop-color:#9571F6"/>
				</linearGradient>
				<path style="fill:url(#SVGID_00000036959589552158227140000003695921078908649630_);" d="M2684.938,1228.602
					c-14.381,0.094-26.012-11.332-25.949-25.523l0.291-66.835c0.293-67.126-55.201-122.348-124.363-123.034l-156.305-1.551
					c-71.579-0.712-130.432,55.104-130.493,124.353l-0.06,68.946c-0.013,14.639-12.476,26.587-27.871,26.687
					c-15.429,0.1-27.958-11.731-27.951-26.433l0.027-69.233c0.039-98.97,84.324-178.444,186.452-177.025l156.374,2.174
					c98.237,1.365,176.709,79.991,176.251,175.144l-0.32,66.569C2710.95,1216.975,2699.286,1228.507,2684.938,1228.602z"/>
			</g>
		</g>
		<g>
			<path style="fill:#26264F;" d="M3213.74,3024.898l-2567.656-21.886v64.758c0,17.577,11.199,32.522,26.366,35.186l726.057,127.521
				c8.617,1.514,17.355,1.915,26.049,1.197l1761.281-145.394c15.724-1.298,27.903-16.29,27.903-34.349V3024.898z"/>
			<g>
				<path style="fill:#26264F;" d="M2281.948,2921.12L672.636,3039.588c-28.797,2.12-52.212-20.406-52.212-50.318V1790.861
					c0-29.912,23.414-54.162,52.212-54.162h1609.312c23.725,0,42.907,21.92,42.907,48.962V2869
					C2324.855,2896.04,2305.673,2919.373,2281.948,2921.12z"/>
				
					<linearGradient id="SVGID_00000021121720328595769690000012504454201050763406_" gradientUnits="userSpaceOnUse" x1="646.0848" y1="2388.2126" x2="2350.5154" y2="2388.2126">
					<stop  offset="0" style="stop-color:#444B8C"/>
					<stop  offset="0.9964" style="stop-color:#26264F"/>
				</linearGradient>
				<path style="fill:url(#SVGID_00000021121720328595769690000012504454201050763406_);" d="M2307.608,2921.12L698.297,3039.588
					c-28.798,2.12-52.212-20.406-52.212-50.318V1790.861c0-29.912,23.414-54.162,52.212-54.162h1609.311
					c23.726,0,42.907,21.92,42.907,48.962V2869C2350.515,2896.04,2331.334,2919.373,2307.608,2921.12z"/>
				<path style="fill:#FFFFFF;" d="M2257.474,2844.742L758.568,2947.648c-23.435,1.609-42.479-16.88-42.479-41.3V1857.141
					c0-24.42,19.044-44.299,42.479-44.4l1498.906-6.462c19.571-0.085,35.402,17.878,35.402,40.12v955.641
					C2292.876,2824.281,2277.045,2843.399,2257.474,2844.742z"/>
				<path style="fill:#FFFFFF;" d="M1559.789,1769.478c0,11.135-8.283,20.189-18.511,20.221
					c-10.241,0.033-18.552-8.988-18.552-20.149c0-11.16,8.311-20.213,18.552-20.221
					C1551.506,1749.322,1559.789,1758.343,1559.789,1769.478z"/>
			</g>
			
				<linearGradient id="SVGID_00000152253285871561434380000016457119230647514284_" gradientUnits="userSpaceOnUse" x1="646.0848" y1="3043.5713" x2="3213.7405" y2="3043.5713">
				<stop  offset="0" style="stop-color:#444B8C"/>
				<stop  offset="0.9964" style="stop-color:#26264F"/>
			</linearGradient>
			<path style="fill:url(#SVGID_00000152253285871561434380000016457119230647514284_);" d="M2371.751,2914.549L646.085,3039.247
				l752.423,132.151c8.617,1.513,17.355,1.915,26.049,1.198l1789.184-147.698l-814.539-109.502
				C2390.093,2914.171,2380.905,2913.887,2371.751,2914.549z"/>
			<polygon style="fill:#26264F;" points="897.886,3040.32 2334.555,2934.958 2779.192,2994.25 1354.899,3106.878 			"/>
			<g>
				<path style="fill:#D8DEE8;" d="M1363.366,2904.369l-611.47,41.146c-17.94,1.207-33.156-13.019-33.156-31V1843.591
					c0-17.11,13.834-31,30.944-31.069l613.681-2.478V2904.369z"/>
				<polygon style="fill:#D8DEE8;" points="2153.02,2320.376 1508.765,2343.014 1508.765,2277.873 2153.02,2257.681 				"/>
				<polygon style="fill:#D8DEE8;" points="2153.02,2423.087 1508.765,2449.733 1508.765,2384.592 2153.02,2360.392 				"/>
				<polygon style="fill:#FFFFFF;" points="1300.295,2332.077 930.356,2344.688 930.356,2296.001 1300.295,2284.406 				"/>
				<polygon style="fill:#FFFFFF;" points="1300.295,2410.175 930.356,2424.449 930.356,2375.762 1300.295,2362.504 				"/>
				<polygon style="fill:#FFFFFF;" points="1300.295,2488.273 930.356,2504.211 930.356,2455.524 1300.295,2440.602 				"/>
				<polygon style="fill:#FFFFFF;" points="1300.295,2566.371 930.356,2583.973 930.356,2535.285 1300.295,2518.7 				"/>
				<polygon style="fill:#D8DEE8;" points="1793.459,2542.906 1508.765,2556.452 1508.765,2491.31 1793.459,2478.846 				"/>
				<g>
					<path style="fill:#D8DEE8;" d="M1747.616,2032.448v97.853c0,28.292,23.802,50.607,53.073,49.844l72.579-1.894
						c28.919-0.755,52.288-24.059,52.288-52.053v-96.824L1747.616,2032.448z M1814.458,2133.61l13.489-40.872
						c-5.777-2.982-9.694-8.856-9.694-15.7c0-10.045,8.424-18.347,18.802-18.543c10.366-0.196,18.76,7.77,18.76,17.792
						c0,6.829-3.9,12.852-9.661,16.07l13.438,40.2L1814.458,2133.61z"/>
					<path style="fill:#D8DEE8;" d="M1904.925,2020.897c-7.699,0.129-13.946-5.831-13.946-13.311
						c0-28.762-24.147-51.852-53.923-51.469c-29.882,0.384-54.271,24.247-54.271,53.194c0,7.528-6.332,13.739-14.15,13.869
						c-7.825,0.131-14.174-5.877-14.174-13.418c0-44.055,37.153-80.313,82.595-80.823c45.198-0.507,81.792,34.576,81.792,78.202
						C1918.848,2014.609,1912.618,2020.768,1904.925,2020.897z"/>
				</g>
			</g>
			<path style="opacity:0.48;fill:#FFFFFF;" d="M698.291,3039.588l1601.17-117.868l8.148-0.6
				c10.886-0.801,20.784-6.182,28.344-14.345c-115.223-6.306-186.789-47.195-232.954-89.445
				c-92.71-84.848-76.629-168.52-176.607-224.305c-124.698-69.582-222.748,18.586-317.374-68.405
				c-57.367-52.74-29.203-92.069-99.793-170.882c-78.183-87.292-129.085-57.949-207.66-136.513
				c-99.35-99.339-49.661-176.627-135.24-247.948c-103.819-86.525-215.782-6.441-314.61-89.421
				c-42.626-35.789-66.015-87.82-78.227-143.156h-75.191c-28.798,0-52.213,24.249-52.213,54.162V2989.27
				C646.085,3019.179,669.495,3041.703,698.291,3039.588z"/>
		</g>
		<g>
			
				<linearGradient id="SVGID_00000120560880478905895920000014702318045052989333_" gradientUnits="userSpaceOnUse" x1="1159.0763" y1="2534.4141" x2="1214.6957" y2="2463.9868" gradientTransform="matrix(0.9973 -0.0737 0.0737 0.9973 282.9539 35.6386)">
				<stop  offset="0" style="stop-color:#AA80F9"/>
				<stop  offset="0.9964" style="stop-color:#6165D7"/>
			</linearGradient>
			<path style="fill:url(#SVGID_00000120560880478905895920000014702318045052989333_);" d="M1774.302,2579.491
				c28.909-18.934,13.076-113.096-32.745-176.698c-65.06-90.307-195.665-126.06-219.673-95.956
				c-24.57,30.807,60.292,133.364,74.077,150.022C1645.967,2517.294,1740.107,2601.889,1774.302,2579.491z"/>
			
				<linearGradient id="SVGID_00000114038625760702796870000001778889655136038304_" gradientUnits="userSpaceOnUse" x1="1460.2379" y1="3291.6274" x2="1551.7354" y2="3291.6274" gradientTransform="matrix(-0.942 0.3355 0.3355 0.942 2447.531 -434.2807)">
				<stop  offset="0" style="stop-color:#444B8C"/>
				<stop  offset="0.9964" style="stop-color:#26264F"/>
			</linearGradient>
			<path style="fill:url(#SVGID_00000114038625760702796870000001778889655136038304_);" d="M2091.612,3163.637
				c-5.17,6.631-5.606,18.173-0.294,23.45c5.22,5.188,12.148,0.495,32.712-0.409c22.027-0.967,28.149,3.798,42.78-1.426
				c5.911-2.115,16.269-6.947,15.749-11.241c-0.366-3.02-5.908-4.183-24.478-8.915c-26.359-6.715-26.28-7.194-31.809-7.694
				C2112.383,3156.143,2098.44,3154.879,2091.612,3163.637z"/>
			
				<linearGradient id="SVGID_00000089542317491157460370000014350676056084560025_" gradientUnits="userSpaceOnUse" x1="1280.3263" y1="3305.9578" x2="1318.9116" y2="3226.095" gradientTransform="matrix(-0.9629 0.2696 0.2696 0.9629 2464.4063 -354.0542)">
				<stop  offset="0" style="stop-color:#FFC444"/>
				<stop  offset="0.9964" style="stop-color:#F36F56"/>
			</linearGradient>
			<path style="fill:url(#SVGID_00000089542317491157460370000014350676056084560025_);" d="M2103.044,3126.748l13.734,35.854
				c-0.688,2.029-11.41,9.418-21.334,5.972l-19.002-34.38L2103.044,3126.748z"/>
			
				<linearGradient id="SVGID_00000134948467762749335890000007729425522314044302_" gradientUnits="userSpaceOnUse" x1="1603.5806" y1="3285.7217" x2="1695.0779" y2="3285.7217" gradientTransform="matrix(-0.942 0.3355 0.3355 0.942 2447.531 -434.2807)">
				<stop  offset="0" style="stop-color:#444B8C"/>
				<stop  offset="0.9964" style="stop-color:#26264F"/>
			</linearGradient>
			<path style="fill:url(#SVGID_00000134948467762749335890000007729425522314044302_);" d="M1954.602,3206.164
				c-5.171,6.633-5.607,18.174-0.296,23.452c5.221,5.188,12.149,0.496,32.712-0.409c22.027-0.968,28.149,3.798,42.78-1.426
				c5.911-2.115,16.269-6.948,15.748-11.242c-0.365-3.019-5.908-4.182-24.477-8.913c-26.359-6.716-26.279-7.195-31.809-7.696
				C1975.374,3198.672,1961.429,3197.408,1954.602,3206.164z"/>
			
				<linearGradient id="SVGID_00000165947737636751341370000005786398422221026441_" gradientUnits="userSpaceOnUse" x1="1423.7391" y1="3309.9712" x2="1462.3243" y2="3230.1086" gradientTransform="matrix(-0.9629 0.2696 0.2696 0.9629 2464.4063 -354.0542)">
				<stop  offset="0" style="stop-color:#FFC444"/>
				<stop  offset="0.9964" style="stop-color:#F36F56"/>
			</linearGradient>
			<path style="fill:url(#SVGID_00000165947737636751341370000005786398422221026441_);" d="M1966.033,3169.276l13.734,35.854
				c-0.688,2.028-11.409,9.418-21.335,5.972l-19.002-34.379L1966.033,3169.276z"/>
			
				<linearGradient id="SVGID_00000134218091950918366180000003013316248841223357_" gradientUnits="userSpaceOnUse" x1="856.403" y1="2860.0188" x2="1079.3174" y2="2577.7571" gradientTransform="matrix(0.9973 -0.0737 0.0737 0.9973 282.9539 35.6386)">
				<stop  offset="0" style="stop-color:#AA80F9"/>
				<stop  offset="0.9964" style="stop-color:#6165D7"/>
			</linearGradient>
			<path style="fill:url(#SVGID_00000134218091950918366180000003013316248841223357_);" d="M1280.568,2330.84
				c34.092-14.504,86.516-32.305,152.348-37.163c74.118-5.47,133.644-9.864,177.333,22.129
				c106.035,77.646,9.441,289.537,77.782,436.114c7.485,16.054,29.585,67.073,17.905,124.722
				c-2.153,10.626-7.504,20.092-16.666,36.123c-53.793,94.105-222.966,113.997-306.457,42.025
				c-44.125-38.038-80.513-27.785-84.966-74.58C1280.273,2695.497,1295.336,2508.841,1280.568,2330.84z"/>
			
				<linearGradient id="SVGID_00000052800835186434203850000011821418943937970841_" gradientUnits="userSpaceOnUse" x1="882.4933" y1="2871.8606" x2="1103.2806" y2="2592.2925" gradientTransform="matrix(0.9973 -0.0737 0.0737 0.9973 282.9539 35.6386)">
				<stop  offset="0" style="stop-color:#AA80F9"/>
				<stop  offset="0.9964" style="stop-color:#6165D7"/>
			</linearGradient>
			<path style="opacity:0.3;fill:url(#SVGID_00000052800835186434203850000011821418943937970841_);" d="M1371.872,2561.505
				c-16.989-37.64-5.621-83.004-38.553-100.005c-12.067-6.23-26.637-8.171-42.24-6.672
				c11.921,135.836,24.638,271.483,38.435,413.145c4.557,46.788,10.589,48.675,59.058,86.392
				c56.16,43.701,148.026,52.532,224.684,31.209c-106.536-55.137-184.042-114.679-177.742-171.093
				c7.337-65.699,124.594-93.606,116.414-139.327C1543.257,2626.698,1409.009,2643.79,1371.872,2561.505z"/>
			
				<linearGradient id="SVGID_00000100353272041686975530000014805318367064251310_" gradientUnits="userSpaceOnUse" x1="721.5911" y1="2747.0652" x2="948.309" y2="2459.9873" gradientTransform="matrix(0.9973 -0.0737 0.0737 0.9973 282.9539 35.6386)">
				<stop  offset="0" style="stop-color:#AA80F9"/>
				<stop  offset="0.9964" style="stop-color:#6165D7"/>
			</linearGradient>
			<path style="fill:url(#SVGID_00000100353272041686975530000014805318367064251310_);" d="M1313.287,2332.628
				c-35.969-20.597-114.198,43.833-156.16,98.559c-19.503,25.433-87.406,113.986-60.76,224.231
				c4.341,17.965,24.43,101.976,100.299,138.247c67.931,32.477,155.226,16.379,221.832-41.653
				c9.002-9.263,18.008-18.523,27.013-27.787c8.723-10.947,17.446-21.894,26.168-32.844c-15.819-11.295-42.461-27.305-78.869-36.15
				c-55.478-13.479-89.184,15.095-103.406-1.024c-17.51-19.845,28.168-62.608,34.326-152.667
				C1325.392,2477.239,1353.464,2355.635,1313.287,2332.628z"/>
			
				<linearGradient id="SVGID_00000027569204845489130890000016468361152846526628_" gradientUnits="userSpaceOnUse" x1="1167.8011" y1="3194.2419" x2="1475.1948" y2="2805.01" gradientTransform="matrix(0.9973 -0.0737 0.0737 0.9973 282.9539 35.6386)">
				<stop  offset="0" style="stop-color:#FF9085"/>
				<stop  offset="1" style="stop-color:#FB6FBB"/>
			</linearGradient>
			<path style="fill:url(#SVGID_00000027569204845489130890000016468361152846526628_);" d="M1412.501,2910.394
				c-17.193,75.349,22.51,42.299,104.77-6.07c86.635-50.942,278.469-129.083,369.315-52.02
				c67.659,57.394,30.295,158.813,135.86,259.604c18.595,17.754,35.869,29.837,46.62,36.796
				c17.048-8.577,34.095-17.152,51.144-25.73c3.921-40.803,14.172-197.739-93.873-329.627
				c-26.122-31.886-75.856-93.137-154.817-114.767C1658.05,2620.104,1428.356,2840.9,1412.501,2910.394z"/>
			
				<linearGradient id="SVGID_00000113337681962027630400000007674774877331120819_" gradientUnits="userSpaceOnUse" x1="1350.8386" y1="2834.7437" x2="994.2037" y2="3229.7856" gradientTransform="matrix(0.9973 -0.0737 0.0737 0.9973 282.9539 35.6386)">
				<stop  offset="0" style="stop-color:#FF9085"/>
				<stop  offset="1" style="stop-color:#FB6FBB"/>
			</linearGradient>
			<path style="fill:url(#SVGID_00000113337681962027630400000007674774877331120819_);" d="M1324.415,2847.791
				c-11.529,43.401,5.258,91.061,31.44,119.506c58.12,63.145,176.946,47.268,249.66,16.986
				c88.475-36.843,104.677-93.227,141.343-82.373c56.976,16.866,27.628,156.266,135.861,259.604
				c18.595,17.754,35.868,29.835,46.619,36.797c17.047-8.579,34.096-17.154,51.143-25.733c6.347-94.808-8.916-169.268-22.58-216.539
				c-15.669-54.208-29.707-102.771-72.022-147.479c-52.574-55.546-117.1-71.649-154.086-80.375
				C1575.314,2691.27,1354.369,2735.023,1324.415,2847.791z"/>
			<g>
				
					<linearGradient id="SVGID_00000120553916729461268530000009662660015092570534_" gradientUnits="userSpaceOnUse" x1="1183.0364" y1="2937.5972" x2="1132.9663" y2="2795.7319" gradientTransform="matrix(0.9973 -0.0737 0.0737 0.9973 282.9539 35.6386)">
					<stop  offset="0" style="stop-color:#311944"/>
					<stop  offset="1" style="stop-color:#893976"/>
				</linearGradient>
				<polygon style="fill:url(#SVGID_00000120553916729461268530000009662660015092570534_);" points="1811.769,2696.731 
					1398.507,2721.082 1512.195,2765.946 1814.814,2723.566 				"/>
				
					<linearGradient id="SVGID_00000141442064475419077870000016047885627406089638_" gradientUnits="userSpaceOnUse" x1="964.2971" y1="2732.0588" x2="982.6564" y2="2858.9055" gradientTransform="matrix(0.9973 -0.0737 0.0737 0.9973 282.9539 35.6386)">
					<stop  offset="0" style="stop-color:#311944"/>
					<stop  offset="1" style="stop-color:#893976"/>
				</linearGradient>
				<path style="fill:url(#SVGID_00000141442064475419077870000016047885627406089638_);" d="M1384.749,2733.128l0,0.003
					c0.571,7.725,5.916,14.269,13.371,16.372l135.729,41.96l-2.049-35.895l-133.292-34.487
					C1391.055,2719.525,1384.188,2725.539,1384.749,2733.128z"/>
			</g>
			
				<linearGradient id="SVGID_00000057125752374925456090000015526649887864214452_" gradientUnits="userSpaceOnUse" x1="958.7889" y1="2759.8474" x2="1062.5548" y2="2759.8474" gradientTransform="matrix(0.9973 -0.0737 0.0737 0.9973 282.9539 35.6386)">
				<stop  offset="0" style="stop-color:#FFC444"/>
				<stop  offset="0.9964" style="stop-color:#F36F56"/>
			</linearGradient>
			<path style="fill:url(#SVGID_00000057125752374925456090000015526649887864214452_);" d="M1442.459,2712.204
				c-2.575-0.378,10.11-31.119,22.042-28.562c11.929,2.559,71.493,31.438,77.692,44.685c6.2,13.246,6.2,13.246,6.2,13.246
				s-24.771,3.789-40.607-0.26C1491.951,2737.262,1463.402,2715.275,1442.459,2712.204z"/>
			<g>
				<g>
					
						<linearGradient id="SVGID_00000163753622662789093360000017258159011687713688_" gradientUnits="userSpaceOnUse" x1="1328.0845" y1="2743.1609" x2="1230.4629" y2="2604.5383" gradientTransform="matrix(0.9973 -0.0737 0.0737 0.9973 282.9539 35.6386)">
						<stop  offset="0" style="stop-color:#444B8C"/>
						<stop  offset="0.9964" style="stop-color:#26264F"/>
					</linearGradient>
					<path style="fill:url(#SVGID_00000163753622662789093360000017258159011687713688_);" d="M1524.156,2503.22l-9.513,267.089
						c-0.329,9.216,13.476,21.89,22.63,20.776l424.927-57.759c6.99-0.852,12.448-6.445,13.124-13.454l34.663-259.844
						c0.911-9.429-16.539-17.81-25.964-16.848l-446.396,45.644C1530.171,2489.587,1524.423,2495.731,1524.156,2503.22z"/>
					
						<linearGradient id="SVGID_00000170257071419251240550000006421550111476044957_" gradientUnits="userSpaceOnUse" x1="1140.8262" y1="2972.5845" x2="1354.4705" y2="2538.6199" gradientTransform="matrix(0.9973 -0.0737 0.0737 0.9973 282.9539 35.6386)">
						<stop  offset="0" style="stop-color:#311944"/>
						<stop  offset="1" style="stop-color:#893976"/>
					</linearGradient>
					<path style="fill:url(#SVGID_00000170257071419251240550000006421550111476044957_);" d="M1534.483,2510.223l-9.515,267.091
						c-0.326,9.216,7.657,16.544,16.812,15.432l430.75-52.415c6.989-0.851,12.447-6.447,13.125-13.453l25.16-260.319
						c0.912-9.432-7.037-17.338-16.463-16.373l-446.397,45.643C1540.499,2496.59,1534.749,2502.736,1534.483,2510.223z"/>
				</g>
				
					<linearGradient id="SVGID_00000088099722394960218700000017336875956063284900_" gradientUnits="userSpaceOnUse" x1="1036.4672" y1="2694.0554" x2="1505.8082" y2="2694.0554" gradientTransform="matrix(0.9973 -0.0737 0.0737 0.9973 282.9539 35.6386)">
					<stop  offset="0" style="stop-color:#311944"/>
					<stop  offset="1" style="stop-color:#893976"/>
				</linearGradient>
				<path style="opacity:0.3;fill:url(#SVGID_00000088099722394960218700000017336875956063284900_);" d="M1803.015,2690.439
					c-38.927-13.207-27.859-44.698-75.239-79.416c-62.505-45.801-120.83-19.624-144.684-56.941
					c-7.427-11.623-11.942-30.229-2.814-61.558l-32.325,3.304c-7.453,0.761-13.204,6.907-13.47,14.394l-9.515,267.091
					c-0.325,9.215,7.658,16.544,16.812,15.432l430.75-52.415c6.989-0.851,12.447-6.445,13.125-13.453l3.471-35.922
					c-13.655-6.329-29.818-11.808-48.379-14.166C1876.378,2668.615,1847.831,2705.645,1803.015,2690.439z"/>
			</g>
			<g>
				
					<linearGradient id="SVGID_00000128451484709772206840000011158706557913840545_" gradientUnits="userSpaceOnUse" x1="1549.3588" y1="2199.8669" x2="1559.6948" y2="1924.5491" gradientTransform="matrix(0.9439 0.3301 -0.3301 0.9439 667.8987 -178.5779)">
					<stop  offset="0" style="stop-color:#FFC444"/>
					<stop  offset="0.9964" style="stop-color:#F36F56"/>
				</linearGradient>
				<path style="fill:url(#SVGID_00000128451484709772206840000011158706557913840545_);" d="M1432.351,2191.903
					c2.261,27.461,0.806,49.479-0.991,64.617c-2.058,17.344-4.125,21.938-6.915,25.749c-4.2,5.736-10.834,10.777-49.487,23.451
					c-21.034,6.895-23.801,6.955-24.118,9.116c-1.541,10.543,59.499,41.576,119.231,28.595
					c36.557-7.946,68.612-31.507,65.731-42.422c-2.899-10.985-39.361-2.28-51.849-21.619c-8.687-13.454-1.581-33.988,7.338-51.219
					C1480.114,2210.499,1443.529,2209.574,1432.351,2191.903z"/>
				<g>
					
						<linearGradient id="SVGID_00000007425592541061923710000007138697585604347011_" gradientUnits="userSpaceOnUse" x1="993.0061" y1="2259.3655" x2="922.9304" y2="2081.386" gradientTransform="matrix(-0.9844 -0.1764 -0.1764 0.9844 2763.9204 280.6648)">
						<stop  offset="0" style="stop-color:#311944"/>
						<stop  offset="1" style="stop-color:#6B3976"/>
					</linearGradient>
					<path style="fill:url(#SVGID_00000007425592541061923710000007138697585604347011_);" d="M1512.457,2221.112
						c10.691-9.849,14.87-29.695,7.267-44.115c-6.542-12.408-19.677-16.41-27.54-18.81c-22.787-6.947-53.937-2.605-68.075,16.951
						c-8.377,11.59-0.109,40.367,1.073,45.484c1.341,5.789,5.213,8.399,8.366,13.166c4.369,6.613,11.183,17.1,22.239,34.578
						c1.879-4.217,4.508-9.381,8.18-14.828c1.414-2.097,7.045-10.265,14.452-16.538
						C1493.26,2224.426,1502.324,2230.447,1512.457,2221.112z"/>
					
						<linearGradient id="SVGID_00000071551075233911617350000007205635917280287147_" gradientUnits="userSpaceOnUse" x1="447.3367" y1="2112.1792" x2="444.1137" y2="2371.8555" gradientTransform="matrix(0.9932 0.1158 -0.1158 0.9932 1271.2925 64.4397)">
						<stop  offset="0" style="stop-color:#FFC444"/>
						<stop  offset="0.9964" style="stop-color:#F36F56"/>
					</linearGradient>
					<path style="fill:url(#SVGID_00000071551075233911617350000007205635917280287147_);" d="M1438.414,2252.191
						c0,0,10.709,27.908,41.542,31.501c27.605,3.217,42.796-57.231,27.748-73.402c-5.022-5.394-16.335-9.323-26.286-8.403
						c-5.878,0.544-8.197,2.52-17.818,3.221c-8.877,0.648-11.097-0.729-14.048,0.955c-3.692,2.108-7.243,8.28-5.174,27.141
						c-4.241-6.222-10.118-9.387-14.927-8.107c-0.767,0.205-2.873,1.136-4.281,2.874
						C1420.076,2234.26,1424.825,2244.352,1438.414,2252.191z"/>
					
						<linearGradient id="SVGID_00000138572325592790619340000012161076488758346641_" gradientUnits="userSpaceOnUse" x1="971.5965" y1="2267.8857" x2="901.4517" y2="2089.7307" gradientTransform="matrix(-0.9844 -0.1764 -0.1764 0.9844 2763.9204 280.6648)">
						<stop  offset="0" style="stop-color:#311944"/>
						<stop  offset="1" style="stop-color:#6B3976"/>
					</linearGradient>
					<path style="fill:url(#SVGID_00000138572325592790619340000012161076488758346641_);" d="M1448.987,2202.179
						c1.137,1.221-3.784,5.395-5.355,12.286c-3.051,13.378,7.636,32.063,21.31,35.985c8.084,2.318,11.256-2.23,25.127-1.177
						c8.588,0.651,15.407,3.007,19.643,4.778c1.57,15.573-5.152,29.583-16.29,34.615c-11.991,5.418-24.769-1.539-30.111-4.448
						c-3.573-1.945-15.03-8.154-19.354-20.493c-4.504-12.859,3.291-18.687-2.88-27.955c-3.112-4.675-7.84-7.318-11.342-15.907
						c-0.952-2.334-1.503-4.345-1.82-5.688C1436.32,2208.004,1447.342,2200.409,1448.987,2202.179z"/>
					
						<linearGradient id="SVGID_00000067920193229268019610000017424799947563845791_" gradientUnits="userSpaceOnUse" x1="902.9439" y1="2160.5396" x2="906.5919" y2="2193.0605" gradientTransform="matrix(-0.9844 -0.1764 -0.1764 0.9844 2763.9204 280.6648)">
						<stop  offset="0" style="stop-color:#FFC444"/>
						<stop  offset="1" style="stop-color:#F36F56"/>
					</linearGradient>
					<path style="fill:url(#SVGID_00000067920193229268019610000017424799947563845791_);" d="M1498.806,2257.721
						c0,0-6.456,1.999-16.532-0.435c-0.49-0.12-1.063-0.075-1.173,0.171c-0.41,0.924,5.328,6.448,11.656,5.858
						c4.493-0.421,8.558-3.856,8.172-4.991C1500.764,2257.846,1499.787,2257.725,1498.806,2257.721z"/>
				</g>
			</g>
		</g>
	</g>
</g>
</svg>
