
<svg viewBox="70.3468 79.2047 393.1438 267.9405" xmlns="http://www.w3.org/2000/svg">
  <path id="Path_2770" data-name="Path 2770" d="M143.489,387.016H92.756a2.361,2.361,0,0,1,0-4.722h50.733a1.43,1.43,0,0,0,1.428-1.428V367.675a1.429,1.429,0,0,0-1.428-1.428H92.756a2.361,2.361,0,0,1,0-4.722h50.733a6.157,6.157,0,0,1,6.15,6.15v13.191a6.157,6.157,0,0,1-6.15,6.15" transform="matrix(0.5598739981651306, -0.00048800001968629653, -0.0028550000861287117, 0.5777640342712402, 74.52451216022465, 94.15695721729554)" fill="#e0e0e0"/>
  <path id="Path_2771" data-name="Path 2771" d="M143.489,387.016H92.756a2.361,2.361,0,0,1,0-4.722h50.733a1.43,1.43,0,0,0,1.428-1.428V367.675a1.429,1.429,0,0,0-1.428-1.428H92.756a2.361,2.361,0,0,1,0-4.722h50.733a6.157,6.157,0,0,1,6.15,6.15v13.191A6.157,6.157,0,0,1,143.489,387.016Z" transform="matrix(0.5598739981651306, -0.00048800001968629653, -0.0028550000861287117, 0.5777640342712402, 74.52451216022465, 94.15695721729554)" fill="none" stroke="#000" stroke-linecap="round" stroke-linejoin="round" stroke-width="1.355"/>
  <line id="Line_40" data-name="Line 40" x1="28.765" transform="matrix(0.5598739981651306, -0.00048800001968629653, -0.0028550000861287117, 0.5777640342712402, 139.51827723284276, 308.19157972613914)" fill="none" stroke="#000" stroke-linecap="round" stroke-linejoin="round" stroke-width="1.355"/>
  <line id="Line_41" data-name="Line 41" x1="32.397" transform="matrix(0.5598739981651306, -0.00048800001968629653, -0.0028550000861287117, 0.5777640342712402, 137.46764415700343, 311.66861126981604)" fill="none" stroke="#000" stroke-linecap="round" stroke-linejoin="round" stroke-width="1.355"/>
  <rect id="Rectangle_282" data-name="Rectangle 282" width="108.086" height="35.564" transform="matrix(0.5598739981651306, -0.00048800001968629653, -0.0028550000861287117, 0.5777640342712402, 95.04660160046018, 320.64586809458797)" fill="#fff"/>
  <rect id="Rectangle_283" data-name="Rectangle 283" width="108.086" height="35.564" transform="matrix(0.5598739981651306, -0.00048800001968629653, -0.0028550000861287117, 0.5777640342712402, 95.04660160046018, 320.64586809458797)" fill="none" stroke="#000" stroke-linecap="round" stroke-linejoin="round" stroke-width="1.355"/>
  <line id="Line_42" data-name="Line 42" x2="46.895" transform="matrix(0.5598739981651306, -0.00048800001968629653, -0.0028550000861287117, 0.5777640342712402, 95.01237587304479, 327.6853390992456)" fill="none" stroke="#000" stroke-linecap="round" stroke-linejoin="round" stroke-width="1.355"/>
  <line id="Line_43" data-name="Line 43" x2="59.97" transform="matrix(0.5598739981651306, -0.00048800001968629653, -0.0028550000861287117, 0.5777640342712402, 94.9803541823205, 334.16554248241124)" fill="none" stroke="#000" stroke-linecap="round" stroke-linejoin="round" stroke-width="1.355"/>
  <path id="Path_2772" data-name="Path 2772" d="M153.869,429.366h-107a8.025,8.025,0,0,1-8.016-8.017v-27.37a8.025,8.025,0,0,1,8.016-8.016h107a3.527,3.527,0,1,1,0,7.054h-107a.964.964,0,0,0-.962.962v27.37a.963.963,0,0,0,.962.962h107a3.528,3.528,0,0,1,0,7.055" transform="matrix(0.5598739981651306, -0.00048800001968629653, -0.0028550000861287117, 0.5777640342712402, 72.43113449723964, 95.1802640672023)" fill="#f3da76"/>
  <path id="Path_2773" data-name="Path 2773" d="M153.869,429.366h-107a8.025,8.025,0,0,1-8.016-8.017v-27.37a8.025,8.025,0,0,1,8.016-8.016h107a3.527,3.527,0,1,1,0,7.054h-107a.964.964,0,0,0-.962.962v27.37a.963.963,0,0,0,.962.962h107a3.528,3.528,0,0,1,0,7.055Z" transform="matrix(0.5598739981651306, -0.00048800001968629653, -0.0028550000861287117, 0.5777640342712402, 72.43113449723964, 95.1802640672023)" stroke="#000" stroke-linecap="round" stroke-linejoin="round" stroke-width="1.355" style="fill: rgb(255, 124, 117);"/>
  <path id="Path_2774" data-name="Path 2774" d="M591.827,427.1H21.5" transform="matrix(0.5598739981651306, -0.00048800001968629653, -0.0028550000861287117, 0.5777640342712402, 71.71999336574535, 96.90087962284096)" stroke="#000" stroke-linecap="round" stroke-linejoin="round" stroke-width="1.355" style="fill: rgb(185, 237, 254);"/>
  <path id="Path_2775" data-name="Path 2775" d="M184.841,314.293v3.93a8.14,8.14,0,0,1-1.928,5.266H140.175v-9.2Z" transform="matrix(0.5598739981651306, -0.00048800001968629653, -0.0028550000861287117, 0.5777640342712402, 76.55037699426182, 92.18040178110436)" style="fill: rgb(255, 235, 212);"/>
  <path id="Path_2776" data-name="Path 2776" d="M184.841,314.293v3.93a8.14,8.14,0,0,1-1.928,5.266H140.175v-9.2Z" transform="matrix(0.5598739981651306, -0.00048800001968629653, -0.0028550000861287117, 0.5777640342712402, 76.55037699426182, 92.18040178110436)" stroke="#000" stroke-linecap="round" stroke-linejoin="round" stroke-width="1.355" style="fill: rgb(255, 235, 212);"/>
  <path id="Path_2777" data-name="Path 2777" d="M411.88,436.459l-113.41-3-113.41,3c-18.043-30.653-2.746-73.685,31.379-108.594,17.31-17.706,38.956-25.122,56.087-28.129a125.694,125.694,0,0,1,25.943-1.867,124.441,124.441,0,0,1,23.244,1.423c17.513,2.692,40.558,9.922,58.786,28.573,34.126,34.909,49.423,77.941,31.379,108.594" transform="matrix(0.5598739981651306, -0.00048800001968629653, -0.0028550000861287117, 0.5777640342712402, 78.06264326037945, 91.48981477188113)" style="fill: rgb(180, 255, 198);"/>
  <path id="Path_2778" data-name="Path 2778" d="M411.88,436.459l-113.41-3-113.41,3c-18.043-30.653-2.746-73.685,31.379-108.594,17.31-17.706,38.956-25.122,56.087-28.129a125.694,125.694,0,0,1,25.943-1.867,124.441,124.441,0,0,1,23.244,1.423c17.513,2.692,40.558,9.922,58.786,28.573C414.626,362.774,429.923,405.806,411.88,436.459Z" transform="matrix(0.5598739981651306, -0.00048800001968629653, -0.0028550000861287117, 0.5777640342712402, 78.06264326037945, 91.48981477188113)" fill="none" stroke="#000" stroke-linecap="round" stroke-linejoin="round" stroke-width="1.355"/>
  <path id="Path_2779" data-name="Path 2779" d="M181.438,376.831s11.226-11.594,25.468-7.3c13.816,4.167,22.927,21.647,21.52,31.328-.732,5.045-8.126,7.8-15.972,1.78s-31.017-25.809-31.017-25.809" transform="matrix(0.5598739981651306, -0.00048800001968629653, -0.0028550000861287117, 0.5777640342712402, 78.2109463480542, 94.44840144870588)" style="fill: rgb(255, 218, 180);"/>
  <path id="Path_2780" data-name="Path 2780" d="M181.438,376.831s11.226-11.594,25.468-7.3c13.816,4.167,22.927,21.647,21.52,31.328-.732,5.045-8.126,7.8-15.972,1.78S181.438,376.831,181.438,376.831Z" transform="matrix(0.5598739981651306, -0.00048800001968629653, -0.0028550000861287117, 0.5777640342712402, 78.2109463480542, 94.44840144870588)" stroke="#000" stroke-linecap="round" stroke-linejoin="round" stroke-width="1.355" style="fill: rgb(255, 218, 180);"/>
  <path id="Path_2781" data-name="Path 2781" d="M402.315,376.831s-11.228-11.594-25.468-7.3c-13.816,4.167-22.927,21.647-21.521,31.328.733,5.045,8.127,7.8,15.973,1.78s31.017-25.809,31.017-25.809" transform="matrix(0.5598739981651306, -0.00048800001968629653, -0.0028550000861287117, 0.5777640342712402, 85.24912190058009, 94.44226680087539)" style="fill: rgb(255, 218, 180);"/>
  <path id="Path_2782" data-name="Path 2782" d="M402.315,376.831s-11.228-11.594-25.468-7.3c-13.816,4.167-22.927,21.647-21.521,31.328.733,5.045,8.127,7.8,15.973,1.78S402.315,376.831,402.315,376.831Z" transform="matrix(0.5598739981651306, -0.00048800001968629653, -0.0028550000861287117, 0.5777640342712402, 85.24912190058009, 94.44226680087539)" stroke="#000" stroke-linecap="round" stroke-linejoin="round" stroke-width="1.355" style="fill: rgb(255, 218, 180);"/>
  <path id="Path_2783" data-name="Path 2783" d="M295.139,317.772c-1.086.076-2.226.113-3.428.113q-1.428,0-2.746-.069c-23.934-1.2-22.855-18.077-22.855-18.077v0a125.84,125.84,0,0,1,25.942-1.867,124.468,124.468,0,0,1,23.244,1.424s2.894,16.957-20.157,18.479" transform="matrix(0.5598739981651306, -0.00048800001968629653, -0.0028550000861287117, 0.5777640342712402, 81.6553546040891, 91.48668327584417)" style="fill: rgb(140, 82, 255);"/>
  <path id="Path_2784" data-name="Path 2784" d="M304.907,288.079v17.782s-4.184,5.753-14.811,5.753-14.825-5.753-14.825-5.753V288.079Z" transform="matrix(0.5598739981651306, -0.00048800001968629653, -0.0028550000861287117, 0.5777640342712402, 82.0285581926529, 91.08019102501567)" style="fill: rgb(255, 235, 212);"/>
  <path id="Path_2785" data-name="Path 2785" d="M304.907,288.079v17.782s-4.184,5.753-14.811,5.753-14.825-5.753-14.825-5.753V288.079Z" transform="matrix(0.5598739981651306, -0.00048800001968629653, -0.0028550000861287117, 0.5777640342712402, 82.0285581926529, 91.08019102501567)" fill="none" stroke="#000" stroke-linecap="round" stroke-linejoin="round" stroke-width="1.355"/>
  <path id="Path_2786" data-name="Path 2786" d="M320.261,264.987c0,21.086-13.347,37.09-29.81,37.09s-29.811-16-29.811-37.09,13.346-41.448,29.811-41.448,29.81,20.362,29.81,41.448" transform="matrix(0.5598739981651306, -0.00048800001968629653, -0.0028550000861287117, 0.5777640342712402, 81.44898447067308, 88.38254973291737)" style="fill: rgb(255, 218, 180);"/>
  <path id="Path_2787" data-name="Path 2787" d="M320.261,264.987c0,21.086-13.347,37.09-29.81,37.09s-29.811-16-29.811-37.09,13.346-41.448,29.811-41.448S320.261,243.9,320.261,264.987Z" transform="matrix(0.5598739981651306, -0.00048800001968629653, -0.0028550000861287117, 0.5777640342712402, 81.44898447067308, 88.38254973291737)" fill="none" stroke="#000" stroke-linecap="round" stroke-linejoin="round" stroke-width="1.355"/>
  <path id="Path_2788" data-name="Path 2788" d="M326.789,257.971q-.294.817-.589,1.5a19.665,19.665,0,0,1-1.671,3.2,8,8,0,0,1-.983,1.283c-.237.116-.469.228-.7.334q-.561.267-1.123.5c-.269.117-.534.226-.8.327-.24.1-.479.193-.72.28-27.893,10.37-47.734-23.1-47.734-23.1-.142,15.138-7.4,23.96-10.134,26.75-.406.417-.715.7-.883.846-.09.084-.142.123-.142.123-.534-.636-1.042-1.275-1.529-1.911-.105-.142-.21-.279-.315-.417q-.878-1.182-1.653-2.357a43.654,43.654,0,0,1-2.259-3.832q-.893-1.711-1.58-3.414a34.514,34.514,0,0,1-2.509-10.627c-1.446-20.622,16.935-37.831,34.077-39.5,23.186-2.266,27.719,9.414,27.719,9.414s.014,0,.047-.015c3.048-.824,15.657,2.408,16.006,21.487.167,9.095-1.123,15.215-2.524,19.133" transform="matrix(0.5598739981651306, -0.00048800001968629653, -0.0028550000861287117, 0.5777640342712402, 81.07770881121579, 87.71902523288242)" fill="#f3da76"/>
  <path id="Path_2789" data-name="Path 2789" d="M258.454,271.967l-3.88-.951,1.194-4.871c-.456-3.4-2.928-25.785,8.878-39.532,5.962-6.943,14.535-10.464,25.478-10.464,12.331,0,21.7,3.888,27.854,11.558,12.14,15.133,7.193,39.408,6.589,42.126l-3.9-.868c.562-2.526,5.169-25.079-5.8-38.759-5.356-6.678-13.679-10.063-24.738-10.063-9.72,0-17.269,3.049-22.437,9.061-11.334,13.182-7.947,36.507-7.912,36.741l.059.391Z" transform="matrix(0.5598739981651306, -0.00048800001968629653, -0.0028550000861287117, 0.5777640342712402, 81.20472767141098, 88.0736602943486)" fill="#fff"/>
  <path id="Path_2790" data-name="Path 2790" d="M258.454,271.967l-3.88-.951,1.194-4.871c-.456-3.4-2.928-25.785,8.878-39.532,5.962-6.943,14.535-10.464,25.478-10.464,12.331,0,21.7,3.888,27.854,11.558,12.14,15.133,7.193,39.408,6.589,42.126l-3.9-.868c.562-2.526,5.169-25.079-5.8-38.759-5.356-6.678-13.679-10.063-24.738-10.063-9.72,0-17.269,3.049-22.437,9.061-11.334,13.182-7.947,36.507-7.912,36.741l.059.391Z" transform="matrix(0.5598739981651306, -0.00048800001968629653, -0.0028550000861287117, 0.5777640342712402, 81.20472767141098, 88.0736602943486)" stroke="#000" stroke-linecap="round" stroke-linejoin="round" stroke-width="1.355" style="fill: rgb(186, 218, 85);"/>
  <path id="Path_2791" data-name="Path 2791" d="M295.869,257.232c-.512.884,5.884,3.53,6.8,2.615s-6.079-3.857-6.8-2.615" transform="matrix(0.5598739981651306, -0.00048800001968629653, -0.0028550000861287117, 0.5777640342712402, 82.86808635823999, 89.77718491481818)"/>
  <path id="Path_2792" data-name="Path 2792" d="M297.63,269.127h0a1.176,1.176,0,0,1-1.176-1.176v-2.877a1.176,1.176,0,1,1,2.353,0v2.877a1.176,1.176,0,0,1-1.176,1.176" transform="matrix(0.5598739981651306, -0.00048800001968629653, -0.0028550000861287117, 0.5777640342712402, 82.89184181165672, 90.06835586054916)"/>
  <path id="Path_2793" data-name="Path 2793" d="M280.837,269.127h0a1.176,1.176,0,0,1-1.176-1.176v-2.877a1.176,1.176,0,0,1,2.353,0v2.877a1.176,1.176,0,0,1-1.176,1.176" transform="matrix(0.5598739981651306, -0.00048800001968629653, -0.0028550000861287117, 0.5777640342712402, 82.21159481845609, 90.06894878064753)"/>
  <path id="Path_2794" data-name="Path 2794" d="M296.039,268.807a2.911,2.911,0,0,1,3.242,0" transform="matrix(0.5598739981651306, -0.00048800001968629653, -0.0028550000861287117, 0.5777640342712402, 82.87413160812054, 90.25325481553205)" fill="none" stroke="#000" stroke-linecap="round" stroke-linejoin="round" stroke-width="1.355"/>
  <path id="Path_2795" data-name="Path 2795" d="M286.244,284.509s8.8-.785,13.337-7.322" transform="matrix(0.5598739981651306, -0.00048800001968629653, -0.0028550000861287117, 0.5777640342712402, 82.47534823783181, 90.62452543197716)" fill="none" stroke="#000" stroke-linecap="round" stroke-linejoin="round" stroke-width="1.355"/>
  <path id="Path_2796" data-name="Path 2796" d="M282.905,257.232c.512.884-5.884,3.53-6.8,2.615s6.079-3.857,6.8-2.615" transform="matrix(0.5598739981651306, -0.00048800001968629653, -0.0028550000861287117, 0.5777640342712402, 82.06522703632822, 89.77788470685385)"/>
  <path id="Path_2797" data-name="Path 2797" d="M282.489,268.807a2.911,2.911,0,0,0-3.242,0" transform="matrix(0.5598739981651306, -0.00048800001968629653, -0.0028550000861287117, 0.5777640342712402, 82.19388461491991, 90.25384773563042)" fill="none" stroke="#000" stroke-linecap="round" stroke-linejoin="round" stroke-width="1.355"/>
  <path id="Path_2798" data-name="Path 2798" d="M286.573,270.1s-.686,3.486,2.708,3.138,3.481-4.009,1.04-4.1" transform="matrix(0.5598739981651306, -0.00048800001968629653, -0.0028550000861287117, 0.5777640342712402, 82.48821043965808, 90.28767913398147)" fill="none" stroke="#000" stroke-linecap="round" stroke-linejoin="round" stroke-width="1.355"/>
  <path id="Path_2799" data-name="Path 2799" d="M205.527,369.577c20.941,6.744,18.654,52.184,6.45,61.743H167s-1.94-26.729,6.079-42.072,22.162-22.984,32.448-19.671" transform="matrix(0.5598739981651306, -0.00048800001968629653, -0.0028550000861287117, 0.5777640342712402, 77.61743113949888, 94.45874083212186)" style="fill: rgb(255, 218, 180);"/>
  <path id="Path_2800" data-name="Path 2800" d="M205.527,369.577c20.941,6.744,18.654,52.184,6.45,61.743H167s-1.94-26.729,6.079-42.072S195.241,366.265,205.527,369.577Z" transform="matrix(0.5598739981651306, -0.00048800001968629653, -0.0028550000861287117, 0.5777640342712402, 77.61743113949888, 94.45874083212186)" stroke="#000" stroke-linecap="round" stroke-linejoin="round" stroke-width="1.355" style="fill: rgb(255, 218, 180);"/>
  <path id="Path_2801" data-name="Path 2801" d="M180.557,429.039h25.238c1.951,4.991,11.481,5.3,20.913,0l.157-.088a9.217,9.217,0,0,0,4.644-8.029V419.9a9.22,9.22,0,0,0-4.643-8.027l-.063-.035c-2.092-1.177-8.629.392-12.159-.523-3.48-.9-9.3-5.073-11.041-6.853-.026-.026-.047-.05-.073-.076a11.858,11.858,0,0,0-15.011-2.328c-5.193,2.829-7.2,17.4-7.961,26.982" transform="matrix(0.5598739981651306, -0.00048800001968629653, -0.0028550000861287117, 0.5777640342712402, 78.16855354839979, 95.77613462547728)" style="fill: rgb(255, 218, 180);"/>
  <path id="Path_2802" data-name="Path 2802" d="M180.557,429.039h25.238c1.951,4.991,11.481,5.3,20.913,0l.157-.088a9.217,9.217,0,0,0,4.644-8.029V419.9a9.22,9.22,0,0,0-4.643-8.027l-.063-.035c-2.092-1.177-8.629.392-12.159-.523-3.48-.9-9.3-5.073-11.041-6.853-.026-.026-.047-.05-.073-.076a11.858,11.858,0,0,0-15.011-2.328C183.325,404.887,181.319,419.455,180.557,429.039Z" transform="matrix(0.5598739981651306, -0.00048800001968629653, -0.0028550000861287117, 0.5777640342712402, 78.16855354839979, 95.77613462547728)" stroke="#000" stroke-linecap="round" stroke-linejoin="round" stroke-width="1.355" style="fill: rgb(255, 218, 180);"/>
  <path id="Path_2803" data-name="Path 2803" d="M225.469,427.81c-.145.087-.294.167-.44.251-9.431,5.3-18.962,4.99-20.912,0a6.659,6.659,0,0,1,.006-4.388c3.063-10.329,13.678-9.806,13.678-9.806" transform="matrix(0.5598739981651306, -0.00048800001968629653, -0.0028550000861287117, 0.5777640342712402, 79.10522679005621, 96.34094680413739)" stroke="#000" stroke-linecap="round" stroke-linejoin="round" stroke-width="1.355" style="fill: rgb(255, 218, 180);"/>
  <path id="Path_2804" data-name="Path 2804" d="M378.749,369.577c-20.941,6.744-18.654,52.184-6.45,61.743h44.978s1.94-26.729-6.079-42.072-22.162-22.984-32.448-19.671" transform="matrix(0.5598739981651306, -0.00048800001968629653, -0.0028550000861287117, 0.5777640342712402, 85.56764180665624, 94.45181123193538)" style="fill: rgb(255, 218, 180);"/>
  <path id="Path_2805" data-name="Path 2805" d="M378.749,369.577c-20.941,6.744-18.654,52.184-6.45,61.743h44.978s1.94-26.729-6.079-42.072S389.035,366.265,378.749,369.577Z" transform="matrix(0.5598739981651306, -0.00048800001968629653, -0.0028550000861287117, 0.5777640342712402, 85.56764180665624, 94.45181123193538)" stroke="#000" stroke-linecap="round" stroke-linejoin="round" stroke-width="1.355" style="fill: rgb(255, 218, 180);"/>
  <path id="Path_2806" data-name="Path 2806" d="M403.484,429.039H378.246c-1.951,4.991-11.481,5.3-20.913,0l-.157-.088a9.217,9.217,0,0,1-4.644-8.029V419.9a9.219,9.219,0,0,1,4.643-8.027l.063-.035c2.092-1.177,8.629.392,12.159-.523,3.48-.9,9.3-5.073,11.041-6.853.026-.026.047-.05.073-.076a11.858,11.858,0,0,1,15.011-2.328c5.193,2.829,7.2,17.4,7.961,26.982" transform="matrix(0.5598739981651306, -0.00048800001968629653, -0.0028550000861287117, 0.5777640342712402, 85.13506561786701, 95.77006244131053)" style="fill: rgb(255, 218, 180);"/>
  <path id="Path_2807" data-name="Path 2807" d="M403.484,429.039H378.246c-1.951,4.991-11.481,5.3-20.913,0l-.157-.088a9.217,9.217,0,0,1-4.644-8.029V419.9a9.219,9.219,0,0,1,4.643-8.027l.063-.035c2.092-1.177,8.629.392,12.159-.523,3.48-.9,9.3-5.073,11.041-6.853.026-.026.047-.05.073-.076a11.858,11.858,0,0,1,15.011-2.328C400.716,404.887,402.721,419.455,403.484,429.039Z" transform="matrix(0.5598739981651306, -0.00048800001968629653, -0.0028550000861287117, 0.5777640342712402, 85.13506561786701, 95.77006244131053)" stroke="#000" stroke-linecap="round" stroke-linejoin="round" stroke-width="1.355" style="fill: rgb(255, 218, 180);"/>
  <path id="Path_2808" data-name="Path 2808" d="M364.266,413.867s10.616-.523,13.678,9.807a6.663,6.663,0,0,1,.008,4.387c-1.951,4.99-11.481,5.3-20.913,0-.145-.084-.294-.164-.44-.251" transform="matrix(0.5598739981651306, -0.00048800001968629653, -0.0028550000861287117, 0.5777640342712402, 85.29687387824484, 96.33555001144686)" stroke="#000" stroke-linecap="round" stroke-linejoin="round" stroke-width="1.355" style="fill: rgb(255, 218, 180);"/>
  <path id="Path_2809" data-name="Path 2809" d="M409.21,430.021s5.32,2.964,7.442-4.1c2.449-8.141-1.632-24.145-5.99-25.017s-6.8,5.4-6.8,5.4Z" transform="matrix(0.5598739981651306, -0.00048800001968629653, -0.0028550000861287117, 0.5777640342712402, 87.21433811546291, 95.78847166193458)" style="fill: rgb(255, 218, 180);"/>
  <path id="Path_2810" data-name="Path 2810" d="M409.21,430.021s5.32,2.964,7.442-4.1c2.449-8.141-1.632-24.145-5.99-25.017s-6.8,5.4-6.8,5.4Z" transform="matrix(0.5598739981651306, -0.00048800001968629653, -0.0028550000861287117, 0.5777640342712402, 87.21433811546291, 95.78847166193458)" stroke="#000" stroke-linecap="round" stroke-linejoin="round" stroke-width="1.355" style="fill: rgb(255, 218, 180);"/>
  <path id="Path_2811" data-name="Path 2811" d="M390.939,405.086a10.823,10.823,0,0,1,10.591-5.361c7.715.523,10.679,27.879,9.668,31.278s-11.76,5.592-13.2-.814-7.06-25.1-7.06-25.1" transform="matrix(0.5598739981651306, -0.00048800001968629653, -0.0028550000861287117, 0.5777640342712402, 86.69108926496122, 95.74155197064334)" style="fill: rgb(255, 218, 180);"/>
  <path id="Path_2812" data-name="Path 2812" d="M390.939,405.086a10.823,10.823,0,0,1,10.591-5.361c7.715.523,10.679,27.879,9.668,31.278s-11.76,5.592-13.2-.814S390.939,405.086,390.939,405.086Z" transform="matrix(0.5598739981651306, -0.00048800001968629653, -0.0028550000861287117, 0.5777640342712402, 86.69108926496122, 95.74155197064334)" stroke="#000" stroke-linecap="round" stroke-linejoin="round" stroke-width="1.355" style="fill: rgb(255, 218, 180);"/>
  <path id="Path_2813" data-name="Path 2813" d="M400.152,429.039a7.278,7.278,0,0,1-.672,2.6c-2.76,5.212-14.069,5.07-16.68-2.6-.041-.128-.08-.257-.12-.388-1.639-5.615-3.28-17.506-4.122-24.189.025-.026.047-.05.073-.076a11.857,11.857,0,0,1,15.01-2.328c2.6,3.072,7.293,19.427,6.512,26.982" transform="matrix(0.5598739981651306, -0.00048800001968629653, -0.0028550000861287117, 0.5777640342712402, 86.18930803177798, 95.7691435375564)" style="fill: rgb(255, 218, 180);"/>
  <path id="Path_2814" data-name="Path 2814" d="M378.556,404.462c.026-.026.047-.05.073-.076a11.858,11.858,0,0,1,15.011-2.328c2.6,3.072,7.292,19.427,6.511,26.982a7.28,7.28,0,0,1-.671,2.6c-2.76,5.212-14.07,5.07-16.682-2.6-.04-.128-.08-.258-.12-.388a140.678,140.678,0,0,1-3.021-16.045" transform="matrix(0.5598739981651306, -0.00048800001968629653, -0.0028550000861287117, 0.5777640342712402, 86.18930803177798, 95.7691435375564)" stroke="#000" stroke-linecap="round" stroke-linejoin="round" stroke-width="1.355" style="fill: rgb(255, 218, 180);"/>
  <path id="Path_2815" data-name="Path 2815" d="M172.307,430.021s-5.32,2.964-7.443-4.1c-2.448-8.141,1.632-24.145,5.99-25.017s6.8,5.4,6.8,5.4Z" transform="matrix(0.5598739981651306, -0.00048800001968629653, -0.0028550000861287117, 0.5777640342712402, 77.50276336739859, 95.79693651060367)" style="fill: rgb(255, 218, 180);"/>
  <path id="Path_2816" data-name="Path 2816" d="M172.307,430.021s-5.32,2.964-7.443-4.1c-2.448-8.141,1.632-24.145,5.99-25.017s6.8,5.4,6.8,5.4Z" transform="matrix(0.5598739981651306, -0.00048800001968629653, -0.0028550000861287117, 0.5777640342712402, 77.50276336739859, 95.79693651060367)" stroke="#000" stroke-linecap="round" stroke-linejoin="round" stroke-width="1.355" style="fill: rgb(255, 218, 180);"/>
  <path id="Path_2817" data-name="Path 2817" d="M191.044,405.086a10.823,10.823,0,0,0-10.591-5.361c-7.715.523-10.678,27.879-9.668,31.278s11.761,5.592,13.2-.814,7.06-25.1,7.06-25.1" transform="matrix(0.5598739981651306, -0.00048800001968629653, -0.0028550000861287117, 0.5777640342712402, 77.76501873585349, 95.74933215441362)" style="fill: rgb(255, 218, 180);"/>
  <path id="Path_2818" data-name="Path 2818" d="M191.044,405.086a10.823,10.823,0,0,0-10.591-5.361c-7.715.523-10.678,27.879-9.668,31.278s11.761,5.592,13.2-.814S191.044,405.086,191.044,405.086Z" transform="matrix(0.5598739981651306, -0.00048800001968629653, -0.0028550000861287117, 0.5777640342712402, 77.76501873585349, 95.74933215441362)" stroke="#000" stroke-linecap="round" stroke-linejoin="round" stroke-width="1.355" style="fill: rgb(255, 218, 180);"/>
  <path id="Path_2819" data-name="Path 2819" d="M181.914,429.039a7.278,7.278,0,0,0,.672,2.6c2.76,5.212,14.069,5.07,16.68-2.6.041-.128.08-.257.12-.388,1.639-5.615,3.28-17.506,4.122-24.189l-.072-.076a11.859,11.859,0,0,0-15.011-2.328c-2.6,3.072-7.293,19.427-6.512,26.982" transform="matrix(0.5598739981651306, -0.00048800001968629653, -0.0028550000861287117, 0.5777640342712402, 78.22006196050248, 95.77608972947175)" style="fill: rgb(255, 218, 180);"/>
  <path id="Path_2820" data-name="Path 2820" d="M203.51,404.462c-.026-.026-.047-.05-.073-.076a11.858,11.858,0,0,0-15.011-2.328c-2.6,3.072-7.292,19.427-6.511,26.982a7.279,7.279,0,0,0,.671,2.6c2.76,5.212,14.07,5.07,16.682-2.6.04-.128.08-.258.12-.388a131.68,131.68,0,0,0,2.846-14.851" transform="matrix(0.5598739981651306, -0.00048800001968629653, -0.0028550000861287117, 0.5777640342712402, 78.22006196050248, 95.77608972947175)" stroke="#000" stroke-linecap="round" stroke-linejoin="round" stroke-width="1.355" style="fill: rgb(255, 218, 180);"/>
  <path id="Path_2821" data-name="Path 2821" d="M313.26,217.366c-15.69-12.2-53.706-12.029-61.8,30.09-1.446-20.621,16.935-37.829,34.077-39.5,23.186-2.266,27.719,9.414,27.719,9.414" transform="matrix(0.5598739981651306, -0.00048800001968629653, -0.0028550000861287117, 0.5777640342712402, 81.07770881121579, 87.71902523288242)" fill="#fff"/>
  <path id="Path_2822" data-name="Path 2822" d="M326.789,257.971q-.294.817-.589,1.5a19.665,19.665,0,0,1-1.671,3.2,8,8,0,0,1-.983,1.283c-.237.116-.469.228-.7.334q-.561.267-1.123.5c-.269.117-.534.226-.8.327-.24.1-.479.193-.72.28-27.893,10.37-47.734-23.1-47.734-23.1-.142,15.138-7.4,23.96-10.134,26.75-.406.417-.715.7-.883.846-.09.084-.142.123-.142.123-.534-.636-1.042-1.275-1.529-1.911-.105-.142-.21-.279-.315-.417q-.878-1.182-1.653-2.357a43.654,43.654,0,0,1-2.259-3.832q-.893-1.711-1.58-3.414a34.514,34.514,0,0,1-2.509-10.627c-1.446-20.622,16.935-37.831,34.077-39.5,23.186-2.266,27.719,9.414,27.719,9.414s.014,0,.047-.015c3.048-.824,15.657,2.408,16.006,21.487C329.48,247.932,328.19,254.052,326.789,257.971Z" transform="matrix(0.5598739981651306, -0.00048800001968629653, -0.0028550000861287117, 0.5777640342712402, 81.07770881121579, 87.71902523288242)" fill="none" stroke="#000" stroke-linecap="round" stroke-linejoin="round" stroke-width="1.355"/>
  <path id="Path_2823" data-name="Path 2823" d="M318.563,277.74l-1.91-.168L318.7,254.3l5.991.528a4.793,4.793,0,0,1,4.355,5.2l-.848,9.638a8.891,8.891,0,0,1-9.636,8.077" transform="matrix(0.5598739981651306, -0.00048800001968629653, -0.0028550000861287117, 0.5777640342712402, 83.71179827360484, 89.66667451239533)" fill="#fff"/>
  <path id="Path_2824" data-name="Path 2824" d="M318.685,277.74l-1.538-.135a2.39,2.39,0,0,1-2.18-2.4l.053-8.1a24.019,24.019,0,0,1,3.8-12.808l1.91.168a122.453,122.453,0,0,0-2.048,23.27" transform="matrix(0.5598739981651306, -0.00048800001968629653, -0.0028550000861287117, 0.5777640342712402, 83.64349379105968, 89.66673404827114)"/>
  <path id="Path_2825" data-name="Path 2825" d="M258.968,277.733l1.91-.173-2.108-23.266-5.99.543a4.8,4.8,0,0,0-4.342,5.207l.874,9.636a8.891,8.891,0,0,0,9.657,8.052" transform="matrix(0.5598739981651306, -0.00048800001968629653, -0.0028550000861287117, 0.5777640342712402, 80.9477041121963, 89.66850632103674)" fill="#fff"/>
  <path id="Path_2826" data-name="Path 2826" d="M318.563,277.74l-1.91-.168L318.7,254.3l5.991.528a4.793,4.793,0,0,1,4.355,5.2l-.848,9.638A8.891,8.891,0,0,1,318.563,277.74Z" transform="matrix(0.5598739981651306, -0.00048800001968629653, -0.0028550000861287117, 0.5777640342712402, 83.71179827360484, 89.66667451239533)" stroke="#000" stroke-linecap="round" stroke-linejoin="round" stroke-width="1.355" style="fill: rgb(180, 255, 198);"/>
  <path id="Path_2827" data-name="Path 2827" d="M258.968,277.733l1.91-.173-2.108-23.266-5.99.543a4.8,4.8,0,0,0-4.342,5.207l.874,9.636A8.891,8.891,0,0,0,258.968,277.733Z" transform="matrix(0.5598739981651306, -0.00048800001968629653, -0.0028550000861287117, 0.5777640342712402, 80.9477041121963, 89.66850632103674)" stroke="#000" stroke-linecap="round" stroke-linejoin="round" stroke-width="1.355" style="fill: rgb(121, 233, 179);"/>
  <path id="Path_2828" data-name="Path 2828" d="M258.4,277.733l1.538-.139a2.389,2.389,0,0,0,2.174-2.4l-.073-8.1a24.028,24.028,0,0,0-3.837-12.8l-1.91.174a122.442,122.442,0,0,1,2.108,23.265" transform="matrix(0.5598739981651306, -0.00048800001968629653, -0.0028550000861287117, 0.5777640342712402, 81.26683212029045, 89.66822816117445)"/>
  <path id="Path_2829" data-name="Path 2829" d="M318.685,277.74l-1.538-.135a2.39,2.39,0,0,1-2.18-2.4l.053-8.1a24.019,24.019,0,0,1,3.8-12.808l1.91.168A122.453,122.453,0,0,0,318.685,277.74Z" transform="matrix(0.5598739981651306, -0.00048800001968629653, -0.0028550000861287117, 0.5777640342712402, 83.64349379105968, 89.66673404827114)" stroke="#000" stroke-linecap="round" stroke-linejoin="round" stroke-width="1.355" style="fill: rgb(121, 233, 179);"/>
  <path id="Path_2830" data-name="Path 2830" d="M258.4,277.733l1.538-.139a2.389,2.389,0,0,0,2.174-2.4l-.073-8.1a24.028,24.028,0,0,0-3.837-12.8l-1.91.174A122.442,122.442,0,0,1,258.4,277.733Z" transform="matrix(0.5598739981651306, -0.00048800001968629653, -0.0028550000861287117, 0.5777640342712402, 81.26683212029045, 89.66822816117445)" stroke="#000" stroke-linecap="round" stroke-linejoin="round" stroke-width="1.355" style="fill: rgb(121, 233, 179);"/>
  <path id="Path_2831" data-name="Path 2831" d="M472.858,341.542H393.933A11.042,11.042,0,0,1,382.891,330.5V180.836" transform="matrix(0.5598739981651306, -0.00048800001968629653, -0.0028550000861287117, 0.5777640342712402, 86.41045218503555, 86.59294193035768)" fill="none" stroke="#000" stroke-linecap="round" stroke-linejoin="round" stroke-width="1.355"/>
  <path id="Path_2832" data-name="Path 2832" d="M382.892,110.666V88.511A11.041,11.041,0,0,1,393.933,77.47H634.6a11.041,11.041,0,0,1,11.041,11.041v229" transform="matrix(0.5598739981651306, -0.00048800001968629653, -0.0028550000861287117, 0.5777640342712402, 86.43180472957974, 82.27184494064653)" fill="none" stroke="#000" stroke-linecap="round" stroke-linejoin="round" stroke-width="1.355"/>
  <path id="Path_2833" data-name="Path 2833" d="M645.639,88.511V99.436H382.892V88.511A11.041,11.041,0,0,1,393.933,77.47H634.6a11.041,11.041,0,0,1,11.041,11.041" transform="matrix(0.5598739981651306, -0.00048800001968629653, -0.0028550000861287117, 0.5777640342712402, 86.43180472957974, 82.27184494064653)" style="fill: rgb(163, 163, 245);"/>
  <path id="Path_2834" data-name="Path 2834" d="M645.639,88.511V99.436H382.892V88.511A11.041,11.041,0,0,1,393.933,77.47H634.6A11.041,11.041,0,0,1,645.639,88.511Z" transform="matrix(0.5598739981651306, -0.00048800001968629653, -0.0028550000861287117, 0.5777640342712402, 86.43180472957974, 82.27184494064653)" fill="none" stroke="#000" stroke-linecap="round" stroke-linejoin="round" stroke-width="1.355"/>
  <path id="Path_2835" data-name="Path 2835" d="M597.66,87.811a3.825,3.825,0,1,1-3.824-3.824,3.824,3.824,0,0,1,3.824,3.824" transform="matrix(0.5598739981651306, -0.00048800001968629653, -0.0028550000861287117, 0.5777640342712402, 94.8207278719903, 82.53723646795638)" fill="#fff"/>
  <path id="Path_2836" data-name="Path 2836" d="M619.973,87.811a3.825,3.825,0,1,1-3.824-3.824,3.824,3.824,0,0,1,3.824,3.824" transform="matrix(0.5598739981651306, -0.00048800001968629653, -0.0028550000861287117, 0.5777640342712402, 95.72436575230671, 82.53644883483747)"/>
  <path id="Path_2837" data-name="Path 2837" d="M575.348,87.811a3.825,3.825,0,1,1-3.824-3.824,3.824,3.824,0,0,1,3.824,3.824" transform="matrix(0.5598739981651306, -0.00048800001968629653, -0.0028550000861287117, 0.5777640342712402, 93.91653256097351, 82.53802458694571)" fill="#fff"/>
  <path id="Path_2838" data-name="Path 2838" d="M359.075,427.315H230.942l-10.389-78.043a3.362,3.362,0,0,1,3.333-3.806H366.132a3.362,3.362,0,0,1,3.333,3.806Z" transform="matrix(0.5598739981651306, -0.00048800001968629653, -0.0028550000861287117, 0.5777640342712402, 79.79904361053391, 93.48100050998582)" fill="#e0e0e0"/>
  <path id="Path_2839" data-name="Path 2839" d="M359.075,427.315H230.942l-10.389-78.043a3.362,3.362,0,0,1,3.333-3.806H366.132a3.362,3.362,0,0,1,3.333,3.806Z" transform="matrix(0.5598739981651306, -0.00048800001968629653, -0.0028550000861287117, 0.5777640342712402, 79.79904361053391, 93.48100050998582)" style="fill: rgb(163, 163, 245);"/>
  <rect id="Rectangle_284" data-name="Rectangle 284" width="128.133" height="8.31" transform="matrix(0.5598739981651306, -0.00048800001968629653, -0.0028550000861287117, 0.5777640342712402, 207.88494293213185, 338.7446943218187)" fill="#e0e0e0"/>
  <rect id="Rectangle_285" data-name="Rectangle 285" width="128.133" height="8.31" transform="matrix(0.5598739981651306, -0.00048800001968629653, -0.0028550000861287117, 0.5777640342712402, 207.88494293213185, 338.7446943218187)" style="fill: rgb(129, 75, 237);"/>
  <path id="Path_2840" data-name="Path 2840" d="M302.217,385.445a13.86,13.86,0,1,1-13.859-13.859,13.859,13.859,0,0,1,13.859,13.859" transform="matrix(0.5598739981651306, -0.00048800001968629653, -0.0028550000861287117, 0.5777640342712402, 81.97995547544602, 94.57106854217272)" style="fill: rgb(129, 75, 237);"/>
  <path id="Path_2841" data-name="Path 2841" d="M449.838,115.877H341.185a8.77,8.77,0,0,0-8.771,8.771v50.317a8.77,8.77,0,0,0,8.771,8.771h97.343l13.01,18.159a8.7,8.7,0,0,0,7.071,3.632V124.648a8.77,8.77,0,0,0-8.771-8.771m-84.682,37.176a3.825,3.825,0,1,1,3.824-3.824,3.822,3.822,0,0,1-3.824,3.824m28.339,0a3.825,3.825,0,1,1,3.825-3.824,3.822,3.822,0,0,1-3.825,3.824m28.34,0a3.825,3.825,0,1,1,3.824-3.824,3.822,3.822,0,0,1-3.824,3.824" transform="matrix(0.5598739981651306, -0.00048800001968629653, -0.0028550000861287117, 0.5777640342712402, 84.3792106043928, 83.87923325576298)" style="fill: rgb(255, 124, 117);"/>
  <path id="Path_2842" data-name="Path 2842" d="M443.064,108.426H334.411a8.77,8.77,0,0,0-8.771,8.771v50.317a8.77,8.77,0,0,0,8.771,8.771h97.343l13.01,18.159a8.7,8.7,0,0,0,7.071,3.632V117.2A8.77,8.77,0,0,0,443.064,108.426ZM358.382,145.6a3.825,3.825,0,1,1,3.824-3.824A3.822,3.822,0,0,1,358.382,145.6Zm28.339,0a3.825,3.825,0,1,1,3.825-3.824A3.822,3.822,0,0,1,386.721,145.6Zm28.34,0a3.825,3.825,0,1,1,3.824-3.824A3.822,3.822,0,0,1,415.061,145.6Z" transform="matrix(0.5598739981651306, -0.00048800001968629653, -0.0028550000861287117, 0.5777640342712402, 84.10585175076974, 83.5680583045841)" fill="none" stroke="#000" stroke-linecap="round" stroke-linejoin="round" stroke-width="1.355"/>
  <path id="Path_2843" data-name="Path 2843" d="M494.721,67.452S455.463,15.676,335.611,21.168,175.278,85.2,243.412,98.752C310.877,112.169,353.084,80,292.265,66.668s-137.7,19.612-169.078,71.684" transform="matrix(0.5598739981651306, -0.00048800001968629653, -0.0028550000861287117, 0.5777640342712402, 75.92292629050814, 79.91044909068336)" fill="none" stroke="#000" stroke-linecap="round" stroke-linejoin="round" stroke-width="1.693" stroke-dasharray="13.547 13.547"/>
  <path id="Path_2844" data-name="Path 2844" d="M282.313,145.506H221.646a4.356,4.356,0,0,0-4.358,4.358v31.728a4.357,4.357,0,0,0,4.358,4.359h46.547l12.159,14.113a1.117,1.117,0,0,0,1.961-.73V185.951a4.357,4.357,0,0,0,4.358-4.359V149.864a4.356,4.356,0,0,0-4.358-4.358M251.98,176.885c-5.927,0-15.846-17.4-9.936-21.094,5.578-3.486,9.936,3.138,9.936,3.138s4.358-6.624,9.936-3.138c5.91,3.694-4.01,21.094-9.936,21.094" transform="matrix(0.5598739981651306, -0.00048800001968629653, -0.0028550000861287117, 0.5777640342712402, 79.7093391220551, 85.12202441622318)" style="fill: rgb(255, 124, 117);"/>
  <path id="Path_2845" data-name="Path 2845" d="M276.894,149.57H216.227a4.356,4.356,0,0,0-4.358,4.358v31.728a4.357,4.357,0,0,0,4.358,4.359h46.547l12.159,14.113a1.117,1.117,0,0,0,1.961-.73V190.015a4.357,4.357,0,0,0,4.358-4.359V153.928A4.356,4.356,0,0,0,276.894,149.57Zm-30.334,31.379c-5.927,0-15.846-17.4-9.936-21.094,5.578-3.486,9.936,3.138,9.936,3.138s4.358-6.624,9.937-3.138C262.407,163.548,252.488,180.949,246.561,180.949Z" transform="matrix(0.5598739981651306, -0.00048800001968629653, -0.0028550000861287117, 0.5777640342712402, 79.4890290346267, 85.2920781488599)" fill="none" stroke="#000" stroke-linecap="round" stroke-linejoin="round" stroke-width="1.355"/>
  <path id="Path_2846" data-name="Path 2846" d="M486.9,19.178v2.543L502.4,35.048a2.454,2.454,0,0,0,4.055-1.859V5.168A2.454,2.454,0,0,0,502.4,3.307L486.9,16.636Z" transform="matrix(0.5598739981651306, -0.00048800001968629653, -0.0028550000861287117, 0.5777640342712402, 90.66029904773231, 79.14304706532982)" fill="#f3da76"/>
  <rect id="Rectangle_286" data-name="Rectangle 286" width="6.93" height="9.529" transform="matrix(0.5598739981651306, -0.00048800001968629653, -0.0028550000861287117, 0.5777640342712402, 361.2835085771372, 87.23501991025765)"/>
  <path id="Path_2847" data-name="Path 2847" d="M486.225,17.146v2.543l15.492,13.327a2.454,2.454,0,0,0,4.055-1.859V3.136a2.454,2.454,0,0,0-4.055-1.861L486.225,14.6Z" transform="matrix(0.5598739981651306, -0.00048800001968629653, -0.0028550000861287117, 0.5777640342712402, 90.63328502641525, 79.05813966856223)" fill="none" stroke="#000" stroke-linecap="round" stroke-linejoin="round" stroke-width="1.355"/>
  <rect id="Rectangle_287" data-name="Rectangle 287" width="6.93" height="9.529" transform="matrix(0.5598739981651306, -0.00048800001968629653, -0.0028550000861287117, 0.5777640342712402, 360.8832537182224, 85.97642643133238)" fill="none" stroke="#000" stroke-linecap="round" stroke-linejoin="round" stroke-width="1.355"/>
  <path id="Path_2848" data-name="Path 2848" d="M481.358,31.814H458.564a6.879,6.879,0,0,1-6.879-6.879v-12a6.879,6.879,0,0,1,6.879-6.879h22.794a6.879,6.879,0,0,1,6.879,6.879v12a6.879,6.879,0,0,1-6.879,6.879" transform="matrix(0.5598739981651306, -0.00048800001968629653, -0.0028550000861287117, 0.5777640342712402, 89.23304900244449, 79.28410938507983)" fill="#f3da76"/>
  <path id="Path_2849" data-name="Path 2849" d="M473.814,18.388a4.764,4.764,0,1,1-4.764-4.764,4.764,4.764,0,0,1,4.764,4.764" transform="matrix(0.5598739981651306, -0.00048800001968629653, -0.0028550000861287117, 0.5777640342712402, 89.74208884817548, 79.60027902499885)" fill="#fff"/>
  <rect id="Rectangle_288" data-name="Rectangle 288" width="36.552" height="25.758" rx="6.415" transform="matrix(0.5598739981651306, -0.00048800001968629653, -0.0028550000861287117, 0.5777640342712402, 341.7022068434452, 81.30403257458332)" fill="none" stroke="#000" stroke-linecap="round" stroke-linejoin="round" stroke-width="1.355"/>
  <circle id="Ellipse_41" data-name="Ellipse 41" cx="4.764" cy="4.764" r="4.764" transform="matrix(0.13140629767151285, -0.56242160059314, 0.5442420691008424, 0.13226284673954566, 348.6789317724106, 90.78595127830724)" fill="none" stroke="#000" stroke-linecap="round" stroke-linejoin="round" stroke-width="1.355"/>
  <path id="Path_2850" data-name="Path 2850" d="M194.934,152.61v177.9a8.168,8.168,0,0,1-8.161,8.164H8.842a8.164,8.164,0,0,1-8.165-8.164V152.61a8.165,8.165,0,0,1,8.165-8.165H186.773A8.164,8.164,0,0,1,194.934,152.61Z" transform="matrix(0.5598739981651306, -0.00048800001968629653, -0.0028550000861287117, 0.5777640342712402, 70.93465371588547, 85.0851852039028)" fill="none" stroke="#000" stroke-linecap="round" stroke-linejoin="round" stroke-width="1.355"/>
  <path id="Path_2851" data-name="Path 2851" d="M194.935,152.61v14.978H.678V152.61a8.163,8.163,0,0,1,8.163-8.163H186.772a8.163,8.163,0,0,1,8.163,8.163" transform="matrix(0.5598739981651306, -0.00048800001968629653, -0.0028550000861287117, 0.5777640342712402, 70.93465371588547, 85.0851852039028)" style="fill: rgb(185, 237, 254);"/>
  <path id="Path_2852" data-name="Path 2852" d="M132.187,155.843a3.825,3.825,0,1,1-3.824-3.824,3.824,3.824,0,0,1,3.824,3.824" transform="matrix(0.5598739981651306, -0.00048800001968629653, -0.0028550000861287117, 0.5777640342712402, 75.95067976838729, 85.3974260816174)" fill="#fff"/>
  <path id="Path_2853" data-name="Path 2853" d="M154.5,155.843a3.825,3.825,0,1,1-3.824-3.824,3.824,3.824,0,0,1,3.824,3.824" transform="matrix(0.5598739981651306, -0.00048800001968629653, -0.0028550000861287117, 0.5777640342712402, 76.8543165808288, 85.39663844942925)" fill="#fff"/>
  <path id="Path_2854" data-name="Path 2854" d="M176.812,155.843a3.825,3.825,0,1,1-3.824-3.824,3.824,3.824,0,0,1,3.824,3.824" transform="matrix(0.5598739981651306, -0.00048800001968629653, -0.0028550000861287117, 0.5777640342712402, 77.75851295972049, 85.39585032950916)" fill="#fff"/>
  <path id="Path_2855" data-name="Path 2855" d="M176.812,155.843a3.825,3.825,0,1,1-3.824-3.824,3.824,3.824,0,0,1,3.824,3.824" transform="matrix(0.5598739981651306, -0.00048800001968629653, -0.0028550000861287117, 0.5777640342712402, 77.75851295972049, 85.39585032950916)" fill="#846bfa"/>
  <path id="Path_2856" data-name="Path 2856" d="M194.935,152.61v14.978H.678V152.61a8.163,8.163,0,0,1,8.163-8.163H186.772A8.163,8.163,0,0,1,194.935,152.61Z" transform="matrix(0.5598739981651306, -0.00048800001968629653, -0.0028550000861287117, 0.5777640342712402, 70.93465371588547, 85.0851852039028)" fill="none" stroke="#000" stroke-linecap="round" stroke-linejoin="round" stroke-width="1.355"/>
  <path id="Path_2857" data-name="Path 2857" d="M112.284,96.671a16.15,16.15,0,0,1-1.758.977H92.119V88.909h4.326L85.931,76.9,75.413,88.909h4.329v8.739h-19.6A21.18,21.18,0,0,1,91.637,69.32,8.812,8.812,0,0,1,97.6,67.068c4.627,0,8.375,3.37,8.375,7.532v.051c4.679-.651,9.2,1.027,11.593,4.757a10.005,10.005,0,0,1,1.362,3.3c1.079,4.935-1.459,10.638-6.65,13.964" transform="matrix(0.5598739981651306, -0.00048800001968629653, -0.0028550000861287117, 0.5777640342712402, 73.14518161415438, 81.65482143164161)" style="fill: rgb(163, 163, 245);"/>
  <path id="Path_2858" data-name="Path 2858" d="M115.671,99.041a16.152,16.152,0,0,1-1.758.977H95.506V91.279h4.326L89.318,79.272,78.8,91.279h4.329v8.739h-19.6A21.18,21.18,0,0,1,95.024,71.69a8.812,8.812,0,0,1,5.967-2.252c4.627,0,8.375,3.37,8.375,7.532v.05c4.679-.65,9.2,1.028,11.593,4.758a10,10,0,0,1,1.362,3.3C123.4,90.012,120.861,95.715,115.671,99.041Z" transform="matrix(0.5598739981651306, -0.00048800001968629653, -0.0028550000861287117, 0.5777640342712402, 73.28185961981356, 81.75407724591537)" fill="none" stroke="#000" stroke-linecap="round" stroke-linejoin="round" stroke-width="1.355"/>
  <path id="Path_2859" data-name="Path 2859" d="M201.952,20.435l4.01,8.891L233.593,3.176Z" transform="matrix(0.5598739981651306, -0.00048800001968629653, -0.0028550000861287117, 0.5777640342712402, 79.11727943289839, 79.17275214455611)" fill="#f3da76"/>
  <path id="Path_2860" data-name="Path 2860" d="M201.952,20.435l4.01,8.891L233.593,3.176Z" transform="matrix(0.5598739981651306, -0.00048800001968629653, -0.0028550000861287117, 0.5777640342712402, 79.11727943289839, 79.17275214455611)" fill="none" stroke="#000" stroke-linecap="round" stroke-linejoin="round" stroke-width="1.016"/>
  <path id="Path_2861" data-name="Path 2861" d="M203.467,19.378l2.524,8.83-4.01-8.892-.436-.225,1.94-.449Z" transform="matrix(0.5598739981651306, -0.00048800001968629653, -0.0028550000861287117, 0.5777640342712402, 79.09784871782443, 79.81928423494398)"/>
  <path id="Path_2862" data-name="Path 2862" d="M234.2,3.176,221.124,21.219l-17.08-.723-1.485-.062-.436-.225-8.542-4.394Z" transform="matrix(0.5598739981651306, -0.00048800001968629653, -0.0028550000861287117, 0.5777640342712402, 78.77799581991081, 79.17304787254201)" fill="#b03032"/>
  <path id="Path_2863" data-name="Path 2863" d="M234.2,3.176,221.124,21.219l-17.08-.723-1.485-.062-.436-.225-8.542-4.394Z" transform="matrix(0.5598739981651306, -0.00048800001968629653, -0.0028550000861287117, 0.5777640342712402, 78.77799581991081, 79.17304787254201)" fill="none" stroke="#000" stroke-linecap="round" stroke-linejoin="round" stroke-width="1.016"/>
  <path id="Path_2864" data-name="Path 2864" d="M233.623,3.176,203.467,20.5l-1.485-.062-.436-.225Z" transform="matrix(0.5598739981651306, -0.00048800001968629653, -0.0028550000861287117, 0.5777640342712402, 79.10104346284356, 79.17276629622907)"/>
  <path id="Path_2865" data-name="Path 2865" d="M180.658,234.045h-4.25v-23.8h1.2a3.051,3.051,0,0,1,3.051,3.051Z" transform="matrix(0.5598739981651306, -0.00048800001968629653, -0.0028550000861287117, 0.5777640342712402, 78.03985891251966, 87.82971466571325)" fill="#fff"/>
  <path id="Path_2866" data-name="Path 2866" d="M157.248,213.378l-16.91,20.833H150.1a10.515,10.515,0,0,1,1.648-5.944l5.5-8.613Z" transform="matrix(0.5598739981651306, -0.00048800001968629653, -0.0028550000861287117, 0.5777640342712402, 76.57793988383136, 87.96214091802435)" fill="#fff"/>
  <path id="Path_2867" data-name="Path 2867" d="M180.658,234.045h-4.25v-23.8h1.2a3.051,3.051,0,0,1,3.051,3.051Z" transform="matrix(0.5598739981651306, -0.00048800001968629653, -0.0028550000861287117, 0.5777640342712402, 78.03985891251966, 87.82971466571325)" fill="none" stroke="#000" stroke-linecap="round" stroke-linejoin="round" stroke-width="1.355"/>
  <path id="Path_2868" data-name="Path 2868" d="M157.248,213.378l-16.91,20.833H150.1a10.515,10.515,0,0,1,1.648-5.944l5.5-8.613Z" transform="matrix(0.5598739981651306, -0.00048800001968629653, -0.0028550000861287117, 0.5777640342712402, 76.57793988383136, 87.96214091802435)" fill="none" stroke="#000" stroke-linecap="round" stroke-linejoin="round" stroke-width="1.355"/>
  <rect id="Rectangle_289" data-name="Rectangle 289" width="10.983" height="29.68" transform="matrix(0.5598739981651306, -0.00048800001968629653, -0.0028550000861287117, 0.5777640342712402, 166.96233532296128, 205.826443604297)" fill="#1f1f1f"/>
  <rect id="Rectangle_290" data-name="Rectangle 290" width="10.983" height="29.68" transform="matrix(0.5598739981651306, -0.00048800001968629653, -0.0028550000861287117, 0.5777640342712402, 166.96233532296128, 205.826443604297)" fill="none" stroke="#000" stroke-linecap="round" stroke-linejoin="round" stroke-width="1.355"/>
  <rect id="Rectangle_291" data-name="Rectangle 291" width="8.498" height="33.08" transform="matrix(0.5598739981651306, -0.00048800001968629653, -0.0028550000861287117, 0.5777640342712402, 162.9465468921414, 203.86555813549953)" fill="#846bfa"/>
  <rect id="Rectangle_292" data-name="Rectangle 292" width="8.498" height="33.08" transform="matrix(0.5598739981651306, -0.00048800001968629653, -0.0028550000861287117, 0.5777640342712402, 162.9465468921414, 203.86555813549953)" fill="none" stroke="#000" stroke-linecap="round" stroke-linejoin="round" stroke-width="1.355"/>
  <rect id="Rectangle_293" data-name="Rectangle 293" width="8.498" height="33.08" transform="matrix(0.5598739981651306, -0.00048800001968629653, -0.0028550000861287117, 0.5777640342712402, 172.31603859315484, 203.85739145487227)" fill="#846bfa"/>
  <rect id="Rectangle_294" data-name="Rectangle 294" width="8.498" height="33.08" transform="matrix(0.5598739981651306, -0.00048800001968629653, -0.0028550000861287117, 0.5777640342712402, 172.31603859315484, 203.85739145487227)" fill="none" stroke="#000" stroke-linecap="round" stroke-linejoin="round" stroke-width="1.355"/>
  <rect id="Rectangle_295" data-name="Rectangle 295" width="65.367" height="3.671" transform="matrix(0.5598739981651306, -0.00048800001968629653, -0.0028550000861287117, 0.5777640342712402, 142.79723155787323, 222.466817018019)" fill="#fff"/>
  <rect id="Rectangle_296" data-name="Rectangle 296" width="65.367" height="3.671" transform="matrix(0.5598739981651306, -0.00048800001968629653, -0.0028550000861287117, 0.5777640342712402, 142.79723155787323, 222.466817018019)" fill="none" stroke="#000" stroke-linecap="round" stroke-linejoin="round" stroke-width="1.355"/>
  <path id="Path_2869" data-name="Path 2869" d="M427.8,234.778s-11.368-32.665-11.376-36.087c-.01-4.664,6.581-7.453,10.591-5.23,5.831,3.232,14.775,43.409,14.775,43.409Z" transform="matrix(0.5598739981651306, -0.00048800001968629653, -0.0028550000861287117, 0.5777640342712402, 87.76625903381046, 87.08690202308827)" style="fill: rgb(255, 218, 180);"/>
  <path id="Path_2870" data-name="Path 2870" d="M427.8,234.778s-11.368-32.665-11.376-36.087c-.01-4.664,6.581-7.453,10.591-5.23,5.831,3.232,14.775,43.409,14.775,43.409Z" transform="matrix(0.5598739981651306, -0.00048800001968629653, -0.0028550000861287117, 0.5777640342712402, 87.76625903381046, 87.08690202308827)" stroke="#000" stroke-linecap="round" stroke-linejoin="round" stroke-width="1.355" style="fill: rgb(255, 218, 180);"/>
  <path id="Path_2871" data-name="Path 2871" d="M453.033,243.917c-14.059,11.6-31.5,12.922-38.855,12.908-2.763-14.06-4.707-25.235-4.707-25.235L443.99,224.1s3.664,7.837,9.043,19.812" transform="matrix(0.5598739981651306, -0.00048800001968629653, -0.0028550000861287117, 0.5777640342712402, 87.47815106470225, 88.40098299720256)" style="fill: rgb(255, 218, 180);"/>
  <path id="Path_2872" data-name="Path 2872" d="M453.033,243.917c-14.059,11.6-31.5,12.922-38.855,12.908-2.763-14.06-4.707-25.235-4.707-25.235L443.99,224.1S447.654,231.942,453.033,243.917Z" transform="matrix(0.5598739981651306, -0.00048800001968629653, -0.0028550000861287117, 0.5777640342712402, 87.47815106470225, 88.40098299720256)" stroke="#000" stroke-linecap="round" stroke-linejoin="round" stroke-width="1.355" style="fill: rgb(255, 218, 180);"/>
  <path id="Path_2873" data-name="Path 2873" d="M411.788,223.368a9.626,9.626,0,0,1,6.537-6.537c5.361-1.569,10.33,8.629,11.506,14.252s.262,10.46-4.968,10.591-6.669-6.146-7.715-9.807-5.361-8.5-5.361-8.5" transform="matrix(0.5598739981651306, -0.00048800001968629653, -0.0028550000861287117, 0.5777640342712402, 87.57374547668132, 88.0900639014069)" style="fill: rgb(255, 218, 180);"/>
  <path id="Path_2874" data-name="Path 2874" d="M411.788,223.368a9.626,9.626,0,0,1,6.537-6.537c5.361-1.569,10.33,8.629,11.506,14.252s.262,10.46-4.968,10.591-6.669-6.146-7.715-9.807S411.788,223.368,411.788,223.368Z" transform="matrix(0.5598739981651306, -0.00048800001968629653, -0.0028550000861287117, 0.5777640342712402, 87.57374547668132, 88.0900639014069)" stroke="#000" stroke-linecap="round" stroke-linejoin="round" stroke-width="1.355" style="fill: rgb(255, 218, 180);"/>
  <path id="Path_2875" data-name="Path 2875" d="M538.056,267.278l-51.4,47.592,0,.007-3.008,3.792c-4.031,4.14-12.429,10.144-27.061,9.8-21.817-.513-31.289-19.416-36.825-42.37L430.17,278c5.888-12.167,14.855-21.275,24.973-28.092,29.888-20.14,69.788-20.285,69.788-20.285Z" transform="matrix(0.5598739981651306, -0.00048800001968629653, -0.0028550000861287117, 0.5777640342712402, 87.89355788336158, 88.63114787209108)" style="fill: rgb(163, 163, 245);"/>
  <path id="Path_2876" data-name="Path 2876" d="M538.056,267.278l-51.4,47.592,0,.007-3.008,3.792c-4.031,4.14-12.429,10.144-27.061,9.8-21.817-.513-31.289-19.416-36.825-42.37L430.17,278c5.888-12.167,14.855-21.275,24.973-28.092,29.888-20.14,69.788-20.285,69.788-20.285Z" transform="matrix(0.5598739981651306, -0.00048800001968629653, -0.0028550000861287117, 0.5777640342712402, 87.89355788336158, 88.63114787209108)" fill="none" stroke="#000" stroke-linecap="round" stroke-linejoin="round" stroke-width="1.355"/>
  <path id="Path_2877" data-name="Path 2877" d="M484.166,318.3c-4.031,4.14-12.429,10.144-27.061,9.8-21.817-.513-31.289-19.416-36.825-42.37-.105-.432-.207-.864-.309-1.3-.432-1.849-.86-3.737-1.286-5.651-.236-1.056-.469-2.121-.7-3.185-.189-.864-.379-1.733-.563-2.6q-.3-1.406-.6-2.818c-.382-1.809-.756-3.614-1.118-5.4l-.348-1.7c-.047-.247-.1-.493-.149-.737-.073-.371-.146-.738-.222-1.1-.138-.686-.272-1.365-.406-2.037-.094-.483-.193-.959-.283-1.435-.117-.574-.229-1.14-.338-1.7-.1-.5-.2-1-.291-1.485-.076-.374-.149-.744-.218-1.115l-.055-.272c-.062-.312-.12-.625-.182-.933a.2.2,0,0,0-.011-.065c-.079-.421-.16-.835-.239-1.249-.073-.374-.146-.741-.211-1.1-.079-.406-.155-.806-.233-1.205,7.736.468,20.993-1.254,36.516-13.831h0c.094.211.193.426.291.639.142.313.287.636.436.963.119.262.236.523.359.791.832,1.841,1.733,3.836,2.687,5.96.905,2.016,1.859,4.155,2.855,6.389,8.571,19.275,20.067,45.969,28.5,68.763" transform="matrix(0.5598739981651306, -0.00048800001968629653, -0.0028550000861287117, 0.5777640342712402, 87.59911604274956, 88.847487650376)" style="fill: rgb(163, 163, 245);"/>
  <path id="Path_2878" data-name="Path 2878" d="M484.166,318.3c-4.031,4.14-12.429,10.144-27.061,9.8-21.817-.513-31.289-19.416-36.825-42.37-.105-.432-.207-.864-.309-1.3-.432-1.849-.86-3.737-1.286-5.651-.236-1.056-.469-2.121-.7-3.185-.189-.864-.379-1.733-.563-2.6q-.3-1.406-.6-2.818c-.382-1.809-.756-3.614-1.118-5.4l-.348-1.7c-.047-.247-.1-.493-.149-.737-.073-.371-.146-.738-.222-1.1-.138-.686-.272-1.365-.406-2.037-.094-.483-.193-.959-.283-1.435-.117-.574-.229-1.14-.338-1.7-.513-2.593-.992-5.085-1.439-7.43,7.736.468,21-1.254,36.519-13.831,1.856,4.087,4.119,9.1,6.628,14.743,2.9,6.53,6.145,13.913,9.487,21.707" transform="matrix(0.5598739981651306, -0.00048800001968629653, -0.0028550000861287117, 0.5777640342712402, 87.59911604274956, 88.847487650376)" fill="none" stroke="#000" stroke-linecap="round" stroke-linejoin="round" stroke-width="1.355"/>
  <path id="Path_2879" data-name="Path 2879" d="M452.813,243.144c-14.059,11.6-31.5,12.922-38.855,12.908-.1-.5-.2-1-.291-1.485q-.108-.561-.218-1.115l-.055-.272c-.058-.312-.119-.625-.181-.934a.2.2,0,0,0-.011-.065c-.08-.42-.16-.835-.24-1.249-.072-.37-.142-.741-.21-1.1-.08-.407-.157-.806-.233-1.206,7.736.469,20.992-1.253,36.516-13.83.1.211.192.425.294.639.142.312.287.636.436.963.116.262.236.522.359.791.831,1.841,1.732,3.836,2.687,5.96" transform="matrix(0.5598739981651306, -0.00048800001968629653, -0.0028550000861287117, 0.5777640342712402, 87.59967560919972, 88.84748716264406)" style="fill: rgb(255, 218, 180);"/>
  <path id="Path_2880" data-name="Path 2880" d="M452.813,243.144c-14.059,11.6-31.5,12.922-38.855,12.908-.1-.5-.2-1-.291-1.485q-.108-.561-.218-1.115l-.055-.272c-.058-.312-.119-.625-.181-.934a.2.2,0,0,0-.011-.065c-.08-.42-.16-.835-.24-1.249-.072-.37-.142-.741-.21-1.1-.08-.407-.157-.806-.233-1.206,7.736.469,20.992-1.253,36.516-13.83.1.211.192.425.294.639.142.312.287.636.436.963.116.262.236.522.359.791C450.956,239.025,451.857,241.019,452.813,243.144Z" transform="matrix(0.5598739981651306, -0.00048800001968629653, -0.0028550000861287117, 0.5777640342712402, 87.59967560919972, 88.84748716264406)" stroke="#000" stroke-linecap="round" stroke-linejoin="round" stroke-width="1.355" style="fill: rgb(254, 232, 130);"/>
  <path id="Path_2881" data-name="Path 2881" d="M405.949,226.009c-1.093,3.715,2.615,17.913,10.721,16.213s.944-17.793-3.53-20.136c-2.745-1.438-6.537,1.7-7.191,3.923" transform="matrix(0.5598739981651306, -0.00048800001968629653, -0.0028550000861287117, 0.5777640342712402, 87.3285950243496, 88.30173785674589)" style="fill: rgb(255, 218, 180);"/>
  <path id="Path_2882" data-name="Path 2882" d="M405.949,226.009c-1.093,3.715,2.615,17.913,10.721,16.213s.944-17.793-3.53-20.136C410.395,220.649,406.6,223.786,405.949,226.009Z" transform="matrix(0.5598739981651306, -0.00048800001968629653, -0.0028550000861287117, 0.5777640342712402, 87.3285950243496, 88.30173785674589)" stroke="#000" stroke-linecap="round" stroke-linejoin="round" stroke-width="1.355" style="fill: rgb(255, 218, 180);"/>
  <path id="Path_2883" data-name="Path 2883" d="M443.953,226.117s-1.145-6.945-5.459-7.468-19.026,8.238-18.077,11.9,3.834,6.713,9.249,5.1,14.287-9.53,14.287-9.53" transform="matrix(0.5598739981651306, -0.00048800001968629653, -0.0028550000861287117, 0.5777640342712402, 87.92102198128029, 88.17180346072743)" style="fill: rgb(255, 218, 180);"/>
  <path id="Path_2884" data-name="Path 2884" d="M443.953,226.117s-1.145-6.945-5.459-7.468-19.026,8.238-18.077,11.9,3.834,6.713,9.249,5.1c2.65-.789,6.126-3.088,8.987-5.23" transform="matrix(0.5598739981651306, -0.00048800001968629653, -0.0028550000861287117, 0.5777640342712402, 87.92102198128029, 88.17180346072743)" stroke="#000" stroke-linecap="round" stroke-linejoin="round" stroke-width="1.355" style="fill: rgb(255, 218, 180);"/>
  <path id="Path_2885" data-name="Path 2885" d="M521.579,229.66s39.649-6.275,63.968,23.273,26.5,69.6,27.022,80.847l-144.434-.044s-6.49-25.06,3.661-53.345,49.783-50.731,49.783-50.731" transform="matrix(0.5598739981651306, -0.00048800001968629653, -0.0028550000861287117, 0.5777640342712402, 89.77092318044853, 88.60755651362894)" style="fill: rgb(163, 163, 245);"/>
  <path id="Path_2886" data-name="Path 2886" d="M521.579,229.66s39.649-6.275,63.968,23.273,26.5,69.6,27.022,80.847l-144.434-.044s-6.49-25.06,3.661-53.345" transform="matrix(0.5598739981651306, -0.00048800001968629653, -0.0028550000861287117, 0.5777640342712402, 89.77092318044853, 88.60755651362894)" fill="none" stroke="#000" stroke-linecap="round" stroke-linejoin="round" stroke-width="1.355"/>
  <path id="Path_2887" data-name="Path 2887" d="M564.045,278.3s4.216,18.8,2.648,52.921" transform="matrix(0.5598739981651306, -0.00048800001968629653, -0.0028550000861287117, 0.5777640342712402, 93.72858741473684, 90.66093771005711)" fill="none" stroke="#000" stroke-linecap="round" stroke-linejoin="round" stroke-width="1.355"/>
  <path id="Path_2888" data-name="Path 2888" d="M531.779,215.654v19.737s-3.564,6.386-12.617,6.386-12.629-6.386-12.629-6.386V215.654Z" transform="matrix(0.5598739981651306, -0.00048800001968629653, -0.0028550000861287117, 0.5777640342712402, 91.41189381671833, 88.04396391485295)" style="fill: rgb(255, 218, 180);"/>
  <path id="Path_2889" data-name="Path 2889" d="M531.779,215.654v19.737s-3.564,6.386-12.617,6.386-12.629-6.386-12.629-6.386V215.654Z" transform="matrix(0.5598739981651306, -0.00048800001968629653, -0.0028550000861287117, 0.5777640342712402, 91.41189381671833, 88.04396391485295)" stroke="#000" stroke-linecap="round" stroke-linejoin="round" stroke-width="1.355" style="fill: rgb(255, 218, 180);"/>
  <path id="Path_2890" data-name="Path 2890" d="M529.716,213.789V230.5s-3.019,5.408-10.686,5.408-10.693-5.408-10.693-5.408V213.789Z" transform="matrix(0.5598739981651306, -0.00048800001968629653, -0.0028550000861287117, 0.5777640342712402, 91.48505846825049, 87.96648019698213)" style="fill: rgb(255, 218, 180);"/>
  <path id="Path_2891" data-name="Path 2891" d="M529.716,213.789V230.5s-3.019,5.408-10.686,5.408-10.693-5.408-10.693-5.408V213.789Z" transform="matrix(0.5598739981651306, -0.00048800001968629653, -0.0028550000861287117, 0.5777640342712402, 91.48505846825049, 87.96648019698213)" stroke="#000" stroke-linecap="round" stroke-linejoin="round" stroke-width="1.355" style="fill: rgb(255, 218, 180);"/>
  <path id="Path_2892" data-name="Path 2892" d="M567.292,251.076c-8.891,10.111-28.242,10.46-35.477-3.661s.484-47.07.484-47.07l-27.941.175s15.167,20.571,6.56,41.49c-6.552,15.934-20.887,21.348-30.119,15.32l0,0a17.568,17.568,0,0,1-6.771-9.04c-6.275-17.433,10.286-25.279,16.388-31.729s2.964-20.048,2.615-31.554,6.995-32.872,26.592-33.82c18.047-.872,31.808,16.038,29.891,40.445s5.927,28.416,10.808,32.251,15.864,17.085,6.974,27.2" transform="matrix(0.5598739981651306, -0.00048800001968629653, -0.0028550000861287117, 0.5777640342712402, 90.0518455438426, 85.34873633817881)" style="fill: rgb(31, 31, 31);"/>
  <path id="Path_2893" data-name="Path 2893" d="M495.293,207.324c1.293,12.473-12.2,18.835-16.387,24.915s-4.881,16.042,1.888,25.086a17.561,17.561,0,0,1-6.77-9.04c-6.276-17.433,10.285-25.279,16.387-31.729s2.964-20.048,2.615-31.554,6.995-32.872,26.592-33.82C492.6,156.746,494,194.853,495.293,207.324" transform="matrix(0.5598739981651306, -0.00048800001968629653, -0.0028550000861287117, 0.5777640342712402, 90.05183697810176, 85.35046978015328)" fill="#fff"/>
  <path id="Path_2894" data-name="Path 2894" d="M519.619,151.184c-19.6.947-26.94,22.315-26.591,33.82s3.486,25.1-2.615,31.555-22.663,14.294-16.388,31.728,28.289,14.644,36.894-6.275-6.56-41.492-6.56-41.492l27.94-.174s-7.717,32.948-.483,47.069,26.585,13.772,35.476,3.661-2.092-23.36-6.974-27.2-12.726-7.844-10.808-32.251S537.667,150.312,519.619,151.184Z" transform="matrix(0.5598739981651306, -0.00048800001968629653, -0.0028550000861287117, 0.5777640342712402, 90.0518455438426, 85.34873633817881)" fill="none" stroke="#000" stroke-linecap="round" stroke-linejoin="round" stroke-width="1.355"/>
  <path id="Path_2895" data-name="Path 2895" d="M540.791,197.129c0,15.211-9.629,26.756-21.506,26.756s-21.5-11.545-21.5-26.756,9.629-29.9,21.5-29.9,21.506,14.689,21.506,29.9" transform="matrix(0.5598739981651306, -0.00048800001968629653, -0.0028550000861287117, 0.5777640342712402, 91.06693326163332, 86.02036629725089)" style="fill: rgb(255, 218, 180);"/>
  <path id="Path_2896" data-name="Path 2896" d="M540.791,197.129c0,15.211-9.629,26.756-21.506,26.756s-21.5-11.545-21.5-26.756,9.629-29.9,21.5-29.9S540.791,181.918,540.791,197.129Z" transform="matrix(0.5598739981651306, -0.00048800001968629653, -0.0028550000861287117, 0.5777640342712402, 91.06693326163332, 86.02036629725089)" stroke="#000" stroke-linecap="round" stroke-linejoin="round" stroke-width="1.355" style="fill: rgb(255, 218, 180);"/>
  <path id="Path_2897" data-name="Path 2897" d="M510.484,194.651h-2.367v-3.68a1.183,1.183,0,1,1,2.367,0Z" transform="matrix(0.5598739981651306, -0.00048800001968629653, -0.0028550000861287117, 0.5777640342712402, 91.48106026730335, 86.96291215899873)" style="fill: rgb(255, 218, 180);"/>
  <path id="Path_2898" data-name="Path 2898" d="M522.846,185.226c.115,1.34,7.107,2.173,7.311.629s-7.472-2.514-7.311-.629" transform="matrix(0.5598739981651306, -0.00048800001968629653, -0.0028550000861287117, 0.5777640342712402, 92.07904328567454, 86.72839711945548)" style="fill: rgb(255, 218, 180);"/>
  <path id="Path_2899" data-name="Path 2899" d="M526.1,194.651h-2.367v-3.68a1.183,1.183,0,1,1,2.367,0Z" transform="matrix(0.5598739981651306, -0.00048800001968629653, -0.0028550000861287117, 0.5777640342712402, 92.1137184832399, 86.96236071845524)" style="fill: rgb(255, 218, 180);"/>
  <path id="Path_2900" data-name="Path 2900" d="M523.432,194.353a2.708,2.708,0,0,1,3.016,0" transform="matrix(0.5598739981651306, -0.00048800001968629653, -0.0028550000861287117, 0.5777640342712402, 92.10055082582491, 87.13454477930858)" stroke="#000" stroke-linecap="round" stroke-linejoin="round" stroke-width="1.355" style="fill: rgb(255, 218, 180);"/>
  <path id="Path_2901" data-name="Path 2901" d="M511.675,184.951c-.01,1.346-6.916,2.719-7.24,1.2S511.688,183.059,511.675,184.951Z" transform="matrix(0.5598739981651306, -0.00048800001968629653, -0.0028550000861287117, 0.5777640342712402, 91.33275398194971, 86.72442584630414)" stroke="#000" stroke-width="0.425" style="fill: rgb(255, 218, 180);"/>
  <path id="Path_2902" data-name="Path 2902" d="M510.83,194.353a2.707,2.707,0,0,0-3.015,0" transform="matrix(0.5598739981651306, -0.00048800001968629653, -0.0028550000861287117, 0.5777640342712402, 91.46845217633856, 87.13509573212013)" stroke="#000" stroke-linecap="round" stroke-linejoin="round" stroke-width="1.355" style="fill: rgb(255, 218, 180);"/>
  <path id="Path_2903" data-name="Path 2903" d="M516.15,200.818s-.5,2.516,1.954,2.264,2.51-2.892.75-2.955" transform="matrix(0.5598739981651306, -0.00048800001968629653, -0.0028550000861287117, 0.5777640342712402, 91.80309097144351, 87.39479663807526)" stroke="#000" stroke-linecap="round" stroke-linejoin="round" stroke-width="1.355" style="fill: rgb(255, 218, 180);"/>
  <path id="Path_2904" data-name="Path 2904" d="M526.455,169.633s-8.456,23.97-29.9,26.549c0,0-5.392-35.6,21.362-37.517s24.836,37.262,24.836,37.262-7.671-.857-16.3-26.294" transform="matrix(0.5598739981651306, -0.00048800001968629653, -0.0028550000861287117, 0.5777640342712402, 91.00153335491731, 85.65932233531248)" style="fill: rgb(255, 218, 180);"/>
  <path id="Path_2905" data-name="Path 2905" d="M526.455,169.633s-8.456,23.97-29.9,26.549c0,0-5.392-35.6,21.362-37.517s24.836,37.262,24.836,37.262S535.085,195.07,526.455,169.633Z" transform="matrix(0.5598739981651306, -0.00048800001968629653, -0.0028550000861287117, 0.5777640342712402, 91.00153335491731, 85.65932233531248)" stroke="#000" stroke-linecap="round" stroke-linejoin="round" stroke-width="1.355" style="fill: rgb(31, 31, 31);"/>
  <path id="Path_2906" data-name="Path 2906" d="M535.978,193.548s1.917-3.267,7.409-1.612,3.923,15.691-7.409,12.64Z" transform="matrix(0.5598739981651306, -0.00048800001968629653, -0.0028550000861287117, 0.5777640342712402, 92.60941728906639, 87.03241541383443)" style="fill: rgb(255, 218, 180);"/>
  <path id="Path_2907" data-name="Path 2907" d="M537.338,192.253c1.145-.679,3.06-1.2,6-.315,5.369,1.619,3.989,15.07-6.666,12.818" transform="matrix(0.5598739981651306, -0.00048800001968629653, -0.0028550000861287117, 0.5777640342712402, 92.63741269757449, 87.03239101234416)" stroke="#000" stroke-linecap="round" stroke-linejoin="round" stroke-width="1.355" style="fill: rgb(255, 218, 180);"/>
  <path id="Path_2908" data-name="Path 2908" d="M538.958,196.387a3.153,3.153,0,0,1,4.881,1.542" transform="matrix(0.5598739981651306, -0.00048800001968629653, -0.0028550000861287117, 0.5777640342712402, 92.7294676554819, 87.21083910142954)" stroke="#000" stroke-linecap="round" stroke-linejoin="round" stroke-width="1.355" style="fill: rgb(255, 218, 180);"/>
  <line id="Line_44" data-name="Line 44" y1="4.058" transform="matrix(0.5598739981651306, -0.00048800001968629653, -0.0028550000861287117, 0.5777640342712402, 394.993007554146, 200.0459347480348)" stroke="#000" stroke-linecap="round" stroke-linejoin="round" stroke-width="1.355" style="fill: rgb(255, 218, 180);"/>
  <path id="Path_2909" data-name="Path 2909" d="M524.482,212a6.717,6.717,0,0,1-2.132.228c-2.3-.1-4.616-1.209-4.475-2.945.229-2.79,5.263-1.918,6.607-4.011s4.06-2.528,4.544,0c.008.044.015.084.021.128.426,2.5-.657,5.47-4.565,6.6" transform="matrix(0.5598739981651306, -0.00048800001968629653, -0.0028550000861287117, 0.5777640342712402, 91.87349130286091, 87.5374427783394)" style="fill: rgb(255, 218, 180);"/>
  <path id="Path_2910" data-name="Path 2910" d="M524.482,212a6.717,6.717,0,0,1-2.132.228c-2.3-.1-4.616-1.209-4.475-2.945.229-2.79,5.263-1.918,6.607-4.011s4.06-2.528,4.544,0c.008.044.015.084.021.128C529.473,207.9,528.39,210.869,524.482,212Z" transform="matrix(0.5598739981651306, -0.00048800001968629653, -0.0028550000861287117, 0.5777640342712402, 91.87349130286091, 87.5374427783394)" stroke="#000" stroke-linecap="round" stroke-linejoin="round" stroke-width="1.355" style="fill: rgb(255, 218, 180);"/>
  <path id="Path_2911" data-name="Path 2911" d="M524.194,211.892a6.717,6.717,0,0,1-2.132.228c-.345-1.986-.523-4.515,1.485-5.125,1.584-.483,2.462-2.814,5.212-1.7.426,2.5-.657,5.47-4.565,6.6" transform="matrix(0.5598739981651306, -0.00048800001968629653, -0.0028550000861287117, 0.5777640342712402, 92.03443423255644, 87.59796719433146)" style="fill: rgb(255, 218, 180);"/>
  <path id="Path_2912" data-name="Path 2912" d="M500.177,193.548s-1.917-3.267-7.409-1.612-3.923,15.691,7.409,12.64Z" transform="matrix(0.5598739981651306, -0.00048800001968629653, -0.0028550000861287117, 0.5777640342712402, 90.7349593824135, 87.03404923769182)" style="fill: rgb(255, 218, 180);"/>
  <path id="Path_2913" data-name="Path 2913" d="M499.839,193.548s-1.917-3.267-7.409-1.612-3.923,15.691,7.409,12.64" transform="matrix(0.5598739981651306, -0.00048800001968629653, -0.0028550000861287117, 0.5777640342712402, 90.72152338035946, 87.0340609488434)" stroke="#000" stroke-linecap="round" stroke-linejoin="round" stroke-width="1.355" style="fill: rgb(255, 218, 180);"/>
  <path id="Path_2914" data-name="Path 2914" d="M496.82,196.387a3.153,3.153,0,0,0-4.881,1.542" transform="matrix(0.5598739981651306, -0.00048800001968629653, -0.0028550000861287117, 0.5777640342712402, 90.82477821026995, 87.21249927584344)" stroke="#000" stroke-linecap="round" stroke-linejoin="round" stroke-width="1.355" style="fill: rgb(255, 218, 180);"/>
  <line id="Line_45" data-name="Line 45" y1="4.058" transform="matrix(0.5598739981651306, -0.00048800001968629653, -0.0028550000861287117, 0.5777640342712402, 367.3492288947427, 200.07002974900678)" stroke="#000" stroke-linecap="round" stroke-linejoin="round" stroke-width="1.355" style="fill: rgb(255, 218, 180);"/>
  <path id="Path_2915" data-name="Path 2915" d="M104.224,269.286v58.14h-93.6v-55.6a11.943,11.943,0,0,1,11.942-11.942H92.644a11.944,11.944,0,0,1,11.571,8.985c0,.138.009.276.009.414" transform="matrix(0.5598739981651306, -0.00048800001968629653, -0.0028550000861287117, 0.5777640342712402, 71.31335530538644, 89.91089768042536)" fill="#e0e0e0"/>
  <path id="Path_2916" data-name="Path 2916" d="M104.248,269.458V327.6H10.283v-58.14a11.943,11.943,0,0,1,11.942-11.942h70.08a11.941,11.941,0,0,1,11.934,11.528c0,.138.009.276.009.414" transform="matrix(0.5598739981651306, -0.00048800001968629653, -0.0028550000861287117, 0.5777640342712402, 71.30040939811227, 89.81153346719901)" fill="#e0e0e0"/>
  <path id="Path_2917" data-name="Path 2917" d="M54.8,326.492H10.283V301.155C19.591,276.056,39.4,272.8,39.4,272.8a67.075,67.075,0,0,0,8.611,14.294c5.478,6.8,2.721,14.3,5.51,28.591A59.043,59.043,0,0,1,54.8,326.492" transform="matrix(0.5598739981651306, -0.00048800001968629653, -0.0028550000861287117, 0.5777640342712402, 71.29725176544673, 90.4505410092458)" fill="#e0e0e0"/>
  <path id="Path_2918" data-name="Path 2918" d="M54.916,259.887v12.45c-7.264-3.054-10.659-7.9-12.164-12.45Z" transform="matrix(0.5598739981651306, -0.00048800001968629653, -0.0028550000861287117, 0.5777640342712402, 72.61506231107504, 89.9097630804145)" fill="#e0e0e0"/>
  <path id="Path_2919" data-name="Path 2919" d="M43.534,291.168v33.995H32.707a9.4,9.4,0,0,1-8.471-5.179,12.55,12.55,0,0,1-1.266-5.154c0-.155-.008-.315-.008-.475V291.168Z" transform="matrix(0.5598739981651306, -0.00048800001968629653, -0.0028550000861287117, 0.5777640342712402, 71.80686192834199, 91.21794108607426)" fill="#fff"/>
  <path id="Path_2920" data-name="Path 2920" d="M43.534,324.618H32.707a9.4,9.4,0,0,1-8.471-5.179,12.555,12.555,0,0,1-1.266-5.154c0-.155-.008-.315-.008-.475V298.7" transform="matrix(0.5598739981651306, -0.00048800001968629653, -0.0028550000861287117, 0.5777640342712402, 71.80530595307724, 91.53282252883199)" fill="none" stroke="#000" stroke-linecap="round" stroke-linejoin="round" stroke-width="1.355"/>
  <path id="Path_2921" data-name="Path 2921" d="M44.674,324.859H32.563a9.452,9.452,0,0,1-7.925-4.249l-.06-.092a9.34,9.34,0,0,1-1.452-5.053V292.956l15.515.131,5.4.043Z" transform="matrix(0.5598739981651306, -0.00048800001968629653, -0.0028550000861287117, 0.5777640342712402, 71.81320931024581, 91.2930451716069)" fill="#fff"/>
  <path id="Path_2922" data-name="Path 2922" d="M164.236,310.975s4.271-1.569,6.887-.349,6.711,6.886,6.8,8.106-2.964,2.529-5.492.436-8.194-8.194-8.194-8.194" transform="matrix(0.5598739981651306, -0.00048800001968629653, -0.0028550000861287117, 0.5777640342712402, 77.52597136772766, 92.00680085016106)" style="fill: rgb(255, 235, 212);"/>
  <path id="Path_2923" data-name="Path 2923" d="M164.236,310.975s4.271-1.569,6.887-.349,6.711,6.886,6.8,8.106-2.964,2.529-5.492.436S164.236,310.975,164.236,310.975Z" transform="matrix(0.5598739981651306, -0.00048800001968629653, -0.0028550000861287117, 0.5777640342712402, 77.52597136772766, 92.00680085016106)" stroke="#000" stroke-linecap="round" stroke-linejoin="round" stroke-width="1.355" style="fill: rgb(255, 235, 212);"/>
  <path id="Path_2924" data-name="Path 2924" d="M157.083,311.286s2.005-3.486,5.4-2.964,10.764,7.58,11.611,8.86c1.463,2.21-1.731,5.509-5.089,5.072s-11.142-7.525-11.142-7.525Z" transform="matrix(0.5598739981651306, -0.00048800001968629653, -0.0028550000861287117, 0.5777640342712402, 77.23690753214595, 91.9278999760837)" style="fill: rgb(255, 235, 212);"/>
  <path id="Path_2925" data-name="Path 2925" d="M157.083,311.286s2.005-3.486,5.4-2.964,10.764,7.58,11.611,8.86c1.463,2.21-1.731,5.509-5.089,5.072s-11.142-7.525-11.142-7.525Z" transform="matrix(0.5598739981651306, -0.00048800001968629653, -0.0028550000861287117, 0.5777640342712402, 77.23690753214595, 91.9278999760837)" stroke="#000" stroke-linecap="round" stroke-linejoin="round" stroke-width="1.355" style="fill: rgb(255, 235, 212);"/>
  <path id="Path_2926" data-name="Path 2926" d="M126.867,327.119H44.059L43.537,313.7c-8.891-11.855-23.012-12.9-23.012-12.9-.175-3.486,4.183-19.177,16.91-28.94,6.621-5.081,17.368-6.9,26.149-7.485a110.2,110.2,0,0,1,14.536-.011,76.382,76.382,0,0,1,14.752,3c42.566,13.424,33.995,59.756,33.995,59.756" transform="matrix(0.5598739981651306, -0.00048800001968629653, -0.0028550000861287117, 0.5777640342712402, 71.7139084835812, 90.08792088449789)" style="fill: rgb(185, 237, 254);"/>
  <path id="Path_2927" data-name="Path 2927" d="M126.867,327.119H44.059L43.537,313.7c-8.891-11.855-23.012-12.9-23.012-12.9-.175-3.486,4.183-19.177,16.91-28.94,6.621-5.081,17.368-6.9,26.149-7.485a110.2,110.2,0,0,1,14.536-.011,76.382,76.382,0,0,1,14.752,3C135.439,280.787,126.867,327.119,126.867,327.119Z" transform="matrix(0.5598739981651306, -0.00048800001968629653, -0.0028550000861287117, 0.5777640342712402, 71.7139084835812, 90.08792088449789)" fill="none" stroke="#000" stroke-linecap="round" stroke-linejoin="round" stroke-width="1.355"/>
  <path id="Path_2928" data-name="Path 2928" d="M98.014,313.3s-1.57,8.891-1.57,10.808h47.244l14.469-7.147s7.323,4.881,9.938,5.578c0,0,5.4.872,4.184-4.707,0,0-12.988-10.2-15.6-11.245s-11.159,1.656-16.649,4.968l-19.177-5.84Z" transform="matrix(0.5598739981651306, -0.00048800001968629653, -0.0028550000861287117, 0.5777640342712402, 74.78070574184952, 91.82373272905377)" style="fill: rgb(255, 235, 212);"/>
  <path id="Path_2929" data-name="Path 2929" d="M98.014,313.3s-1.57,8.891-1.57,10.808h47.244l14.469-7.147s7.323,4.881,9.938,5.578c0,0,5.4.872,4.184-4.707,0,0-12.988-10.2-15.6-11.245s-11.159,1.656-16.649,4.968l-19.177-5.84Z" transform="matrix(0.5598739981651306, -0.00048800001968629653, -0.0028550000861287117, 0.5777640342712402, 74.78070574184952, 91.82373272905377)" fill="none" stroke="#000" stroke-linecap="round" stroke-linejoin="round" stroke-width="1.355"/>
  <line id="Line_46" data-name="Line 46" x2="1.569" y2="14.993" transform="matrix(0.5598739981651306, -0.00048800001968629653, -0.0028550000861287117, 0.5777640342712402, 127.9260792780718, 264.12887006118876)" fill="none" stroke="#000" stroke-linecap="round" stroke-linejoin="round" stroke-width="1.355"/>
  <path id="Path_2930" data-name="Path 2930" d="M89.967,267.363v6.047a10.3,10.3,0,0,1-2.905,7.209,16.037,16.037,0,0,1-11.847,4.834c-6.185-.015-9.822-2.281-11.91-4.544A10.173,10.173,0,0,1,60.679,274V264.37a110.2,110.2,0,0,1,14.536-.011,76.382,76.382,0,0,1,14.752,3" transform="matrix(0.5598739981651306, -0.00048800001968629653, -0.0028550000861287117, 0.5777640342712402, 73.34034236549061, 90.08650324451284)"/>
  <path id="Path_2931" data-name="Path 2931" d="M132.372,319.162s5.753,5.035,10.721,6.1,10.1-2.461,9.763-4.968S139,315.066,139,315.066Z" transform="matrix(0.5598739981651306, -0.00048800001968629653, -0.0028550000861287117, 0.5777640342712402, 76.2344481073734, 92.21303165804227)" fill="#fff"/>
  <path id="Path_2932" data-name="Path 2932" d="M134.339,320.755c2.124,1.568,5.519,3.768,8.612,4.432,4.968,1.067,10.1-2.461,9.763-4.968-.2-1.495-5.09-3.067-9-4.092" transform="matrix(0.5598739981651306, -0.00048800001968629653, -0.0028550000861287117, 0.5777640342712402, 76.3137304921236, 92.25744999863)" stroke="#000" stroke-linecap="round" stroke-linejoin="round" stroke-width="1.355" style="fill: rgb(255, 235, 212);"/>
  <path id="Path_2933" data-name="Path 2933" d="M84.355,257.516v15.073a4.928,4.928,0,0,1-2.088,4.052c-2.849,1.982-8.392,4.364-15.237-.077a4.992,4.992,0,0,1-2.28-4.185V257.516Z" transform="matrix(0.5598739981651306, -0.00048800001968629653, -0.0028550000861287117, 0.5777640342712402, 73.50687278296695, 89.80961025915798)" style="fill: rgb(255, 235, 212);"/>
  <path id="Path_2934" data-name="Path 2934" d="M84.355,257.516v15.073a4.928,4.928,0,0,1-2.088,4.052c-2.849,1.982-8.392,4.364-15.237-.077a4.992,4.992,0,0,1-2.28-4.185V257.516Z" transform="matrix(0.5598739981651306, -0.00048800001968629653, -0.0028550000861287117, 0.5777640342712402, 73.50687278296695, 89.80961025915798)" fill="none" stroke="#000" stroke-linecap="round" stroke-linejoin="round" stroke-width="1.016"/>
  <path id="Path_2935" data-name="Path 2935" d="M91.655,245.126c0,12.185-7.712,21.433-17.226,21.433S57.2,257.311,57.2,245.126s7.712-23.951,17.227-23.951,17.226,11.766,17.226,23.951" transform="matrix(0.5598739981651306, -0.00048800001968629653, -0.0028550000861287117, 0.5777640342712402, 73.20868737223176, 88.29093522857511)" style="fill: rgb(255, 235, 212);"/>
  <path id="Path_2936" data-name="Path 2936" d="M91.655,245.126c0,12.185-7.712,21.433-17.226,21.433S57.2,257.311,57.2,245.126s7.712-23.951,17.227-23.951S91.655,232.941,91.655,245.126Z" transform="matrix(0.5598739981651306, -0.00048800001968629653, -0.0028550000861287117, 0.5777640342712402, 73.20868737223176, 88.29093522857511)" fill="none" stroke="#000" stroke-linecap="round" stroke-linejoin="round" stroke-width="1.355"/>
  <path id="Path_2937" data-name="Path 2937" d="M77.965,240.486c.824.695,5.256-2.795,4.5-3.784s-5.656,2.807-4.5,3.784" transform="matrix(0.5598739981651306, -0.00048800001968629653, -0.0028550000861287117, 0.5777640342712402, 74.0391651762009, 88.9326819203877)"/>
  <path id="Path_2938" data-name="Path 2938" d="M79.887,245.851h-1.9V242.9a.948.948,0,1,1,1.9,0Z" transform="matrix(0.5598739981651306, -0.00048800001968629653, -0.0028550000861287117, 0.5777640342712402, 74.04644690425383, 89.1585807698356)"/>
  <path id="Path_2939" data-name="Path 2939" d="M67.377,245.851h-1.9V242.9a.948.948,0,1,1,1.9,0Z" transform="matrix(0.5598739981651306, -0.00048800001968629653, -0.0028550000861287117, 0.5777640342712402, 73.53976081844814, 89.15902240995581)"/>
  <path id="Path_2940" data-name="Path 2940" d="M77.749,245.612a2.168,2.168,0,0,1,2.415,0" transform="matrix(0.5598739981651306, -0.00048800001968629653, -0.0028550000861287117, 0.5777640342712402, 74.03568675587167, 89.2966753432238)" fill="none" stroke="#000" stroke-linecap="round" stroke-linejoin="round" stroke-width="1.016"/>
  <path id="Path_2941" data-name="Path 2941" d="M67.747,240.3c-.768.757-5.457-2.376-4.778-3.423s5.857,2.359,4.778,3.423" transform="matrix(0.5598739981651306, -0.00048800001968629653, -0.0028550000861287117, 0.5777640342712402, 73.43615225049999, 88.93898526906017)"/>
  <path id="Path_2942" data-name="Path 2942" d="M67.654,245.612a2.168,2.168,0,0,0-2.415,0" transform="matrix(0.5598739981651306, -0.00048800001968629653, -0.0028550000861287117, 0.5777640342712402, 73.52900067006601, 89.29711698334398)" fill="none" stroke="#000" stroke-linecap="round" stroke-linejoin="round" stroke-width="1.016"/>
  <path id="Path_2943" data-name="Path 2943" d="M71.915,248.08s-.4,2.015,1.565,1.813,2.012-2.317.6-2.368" transform="matrix(0.5598739981651306, -0.00048800001968629653, -0.0028550000861287117, 0.5777640342712402, 73.79782922806908, 89.392212747744)" fill="none" stroke="#000" stroke-linecap="round" stroke-linejoin="round" stroke-width="1.016"/>
  <path id="Path_2944" data-name="Path 2944" d="M93.526,239.415c3.584,1.8,2.546,10.915-4.683,10.257" transform="matrix(0.5598739981651306, -0.00048800001968629653, -0.0028550000861287117, 0.5777640342712402, 74.48647037401108, 89.05246654543174)" fill="none" stroke="#000" stroke-linecap="round" stroke-linejoin="round" stroke-width="1.355"/>
  <path id="Path_2945" data-name="Path 2945" d="M89.517,244.8a2.169,2.169,0,0,1,3.495.434" transform="matrix(0.5598739981651306, -0.00048800001968629653, -0.0028550000861287117, 0.5777640342712402, 74.51293935913205, 89.24772649779888)" fill="none" stroke="#000" stroke-linecap="round" stroke-linejoin="round" stroke-width="1.355"/>
  <path id="Path_2946" data-name="Path 2946" d="M67.081,251.155a8.8,8.8,0,0,0,7.257,3.6s-3.4,3.988-6.773,1.765c-2.141-1.411-.484-5.361-.484-5.361" transform="matrix(0.5598739981651306, -0.00048800001968629653, -0.0028550000861287117, 0.5777640342712402, 73.57761049674448, 89.54377882031417)"/>
  <path id="Path_2947" data-name="Path 2947" d="M67.081,251.155a8.8,8.8,0,0,0,7.257,3.6s-3.4,3.988-6.773,1.765C65.423,255.1,67.081,251.155,67.081,251.155Z" transform="matrix(0.5598739981651306, -0.00048800001968629653, -0.0028550000861287117, 0.5777640342712402, 73.57761049674448, 89.54377882031417)" fill="none" stroke="#000" stroke-linecap="round" stroke-linejoin="round" stroke-width="1.355"/>
  <circle id="Ellipse_42" data-name="Ellipse 42" cx="8.094" cy="8.094" r="8.094" transform="matrix(0.5598739981651306, -0.00048800001968629653, -0.0028550000861287117, 0.5777640342712402, 114.78817617931591, 224.23896436876808)" fill="none" stroke="#000" stroke-linecap="round" stroke-linejoin="round" stroke-width="1.355"/>
  <circle id="Ellipse_43" data-name="Ellipse 43" cx="8.094" cy="8.094" r="8.094" transform="matrix(0.5598739981651306, -0.00048800001968629653, -0.0028550000861287117, 0.5777640342712402, 104.56207580879999, 224.2478776906914)" fill="none" stroke="#000" stroke-linecap="round" stroke-linejoin="round" stroke-width="1.355"/>
  <path id="Path_2948" data-name="Path 2948" d="M70.718,271.443c-.872,6.974-6.1,24.929-13.249,40.62S44.743,328.8,44.743,328.8H32.563a9.45,9.45,0,0,1-7.925-4.248l-.061-.093a9.344,9.344,0,0,1-1.451-5.052V317.67c4.659-6.377,10.34-13.882,15.515-20.644,7.965-10.409,14.731-19.046,14.731-19.046s.523-8.281,0-9.675-5.4-8.717-6.333-10.808-1.773-13.424-.639-15.778a2.254,2.254,0,0,1,3.138-1.307l3.574,6.275s3.748-4.62,5.4-6.8,4.794-1.917,5.492,1.831-2.266,6.189-2.179,7.409.349,3.836,4.271,8.281,5.492,7.06,4.62,14.034" transform="matrix(0.5598739981651306, -0.00048800001968629653, -0.0028550000861287117, 0.5777640342712402, 71.82445801210989, 89.01665456801894)" style="fill: rgb(255, 235, 212);"/>
  <path id="Path_2949" data-name="Path 2949" d="M27.332,311.975c3.657-4.907,7.612-10.117,11.309-14.949,7.964-10.409,14.732-19.046,14.732-19.046s.522-8.281,0-9.675-5.4-8.717-6.335-10.809-1.773-13.424-.639-15.776a2.255,2.255,0,0,1,3.139-1.307l3.574,6.275s3.748-4.62,5.4-6.8,4.793-1.917,5.493,1.831-2.267,6.189-2.18,7.409.35,3.836,4.271,8.281,5.49,7.06,4.62,14.034-6.1,24.929-13.249,40.619S44.744,328.8,44.744,328.8H32.562a9.456,9.456,0,0,1-7.925-4.248c-.019-.031-.041-.062-.06-.093a9.336,9.336,0,0,1-1.452-5.052V317.67" transform="matrix(0.5598739981651306, -0.00048800001968629653, -0.0028550000861287117, 0.5777640342712402, 71.82445801210989, 89.01665456801894)" stroke="#000" stroke-linecap="round" stroke-linejoin="round" stroke-width="1.355" style="fill: rgb(255, 235, 212);"/>
  <path id="Path_2950" data-name="Path 2950" d="M93.479,246.21l-.916-3.4c-7.452-4.446-8.76-9.283-8.76-9.283s-3.661,6.93-8.368,6.93-5.1-3.519-5.1-3.519c-9.417,6.767-19.681,5.811-22.115-.127h0a7.843,7.843,0,0,1-.5-3.676c.784-9.022,9.413-9.936,9.413-9.936s-3.047-3.389-3.294-6.829c-.16-2.167.8-4.358,4.341-5.723,9.04-3.486,17.952,2.593,18.17,2.742v0c-.061-.213-1.21-4.2,2.226-4.961,3.53-.785,7.06,7.946,7.06,7.946s3.008-4.285,4.708-3.762-1.569,4.445-1.569,4.445c6.275-.915,9.282,1.307,10.46,13.075s-5.753,16.082-5.753,16.082" transform="matrix(0.5598739981651306, -0.00048800001968629653, -0.0028550000861287117, 0.5777640342712402, 72.8255779801436, 87.75626162097726)"/>
  <path id="Path_2951" data-name="Path 2951" d="M75.936,213.311c-15.69-4.576-22.514,2.978-22.514,2.978-.16-2.168.8-4.358,4.34-5.724,9.04-3.486,17.952,2.594,18.171,2.743Z" transform="matrix(0.5598739981651306, -0.00048800001968629653, -0.0028550000861287117, 0.5777640342712402, 73.05713743481664, 87.80228066761416)" fill="#fff"/>
  <path id="Path_2952" data-name="Path 2952" d="M48.221,235.81h0a7.83,7.83,0,0,1-.5-3.676c.785-9.021,9.414-9.936,9.414-9.936l.759.392c-10.355,2.876-9.668,13.22-9.668,13.22" transform="matrix(0.5598739981651306, -0.00048800001968629653, -0.0028550000861287117, 0.5777640342712402, 72.82272298005748, 88.3340256552485)" fill="#fff"/>
  <path id="Path_2953" data-name="Path 2953" d="M93.479,246.21s6.93-4.315,5.753-16.082-4.184-13.99-10.46-13.075c0,0,3.269-3.923,1.569-4.445s-4.708,3.762-4.708,3.762-3.53-8.731-7.06-7.946-2.223,4.968-2.223,4.968-9.021-6.275-18.173-2.745S57.131,223.2,57.131,223.2s-8.629.915-9.413,9.936,11.505,11.786,22.619,3.8c0,0,.392,3.521,5.1,3.521s8.368-6.93,8.368-6.93,1.308,4.837,8.76,9.283Z" transform="matrix(0.5598739981651306, -0.00048800001968629653, -0.0028550000861287117, 0.5777640342712402, 72.8255779801436, 87.75626162097726)" fill="none" stroke="#000" stroke-linecap="round" stroke-linejoin="round" stroke-width="1.355"/>
  <path id="Path_2954" data-name="Path 2954" d="M50.51,256.276s-2.789-4.01-3.138-6.8-.109-11,.676-12.7c.679-1.471,3.267-2.8,5.011-1.049a2.523,2.523,0,0,1,.712,1.876c-.093,2.754-.355,11.517.029,12.836a6.86,6.86,0,0,0,2.158,2.876Z" transform="matrix(0.5598739981651306, -0.00048800001968629653, -0.0028550000861287117, 0.5777640342712402, 72.80106628205274, 88.86443030961786)" fill="#fff"/>
  <path id="Path_2955" data-name="Path 2955" d="M50.51,256.276s-2.789-4.01-3.138-6.8-.109-11,.676-12.7c.679-1.471,3.267-2.8,5.011-1.049a2.523,2.523,0,0,1,.712,1.876c-.093,2.754-.355,11.517.029,12.836a6.86,6.86,0,0,0,2.158,2.876" transform="matrix(0.5598739981651306, -0.00048800001968629653, -0.0028550000861287117, 0.5777640342712402, 72.80106628205274, 88.86443030961786)" stroke="#000" stroke-linecap="round" stroke-linejoin="round" stroke-width="1.355" style="fill: rgb(255, 235, 212);"/>
  <path id="Path_2956" data-name="Path 2956" d="M44.674,324.443H32.563a9.452,9.452,0,0,1-7.925-4.249l-.06-.092a9.34,9.34,0,0,1-1.452-5.053V298.7" transform="matrix(0.5598739981651306, -0.00048800001968629653, -0.0028550000861287117, 0.5777640342712402, 71.81202448804169, 91.5328166727908)" fill="none" stroke="#000" stroke-linecap="round" stroke-linejoin="round" stroke-width="1.355"/>
  <path id="Path_2957" data-name="Path 2957" d="M660.922,412.8H482.452a7.535,7.535,0,0,1-7.536-7.534V313.252a7.535,7.535,0,0,1,7.536-7.534H660.922a7.534,7.534,0,0,1,7.534,7.534v92.014a7.535,7.535,0,0,1-7.534,7.534" style="fill: rgb(255, 164, 213);" transform="matrix(0.5598739981651306, -0.00048800001968629653, -0.0028550000861287117, 0.5777640342712402, 90.11229494239024, 91.81036933683302)"/>
  <path id="Path_2958" data-name="Path 2958" d="M652.794,408.4H474.322a7.534,7.534,0,0,1-7.534-7.534V308.849a7.533,7.533,0,0,1,7.534-7.534H652.794a7.534,7.534,0,0,1,7.534,7.534v92.014A7.535,7.535,0,0,1,652.794,408.4Z" transform="matrix(0.5598739981651306, -0.00048800001968629653, -0.0028550000861287117, 0.5777640342712402, 89.78399907666773, 91.62634941346698)" fill="none" stroke="#000" stroke-linecap="round" stroke-linejoin="round" stroke-width="1.355"/>
  <line id="Line_47" data-name="Line 47" x2="114.928" transform="matrix(0.5598739981651306, -0.00048800001968629653, -0.0028550000861287117, 0.5777640342712402, 377.1011044189563, 285.1530946424233)" fill="none" stroke="#fff" stroke-linecap="round" stroke-linejoin="round" stroke-width="1.355"/>
  <line id="Line_48" data-name="Line 48" x2="114.928" transform="matrix(0.5598739981651306, -0.00048800001968629653, -0.0028550000861287117, 0.5777640342712402, 377.0250072703593, 300.55281241599613)" fill="none" stroke="#fff" stroke-linecap="round" stroke-linejoin="round" stroke-width="1.355"/>
  <line id="Line_49" data-name="Line 49" x2="114.928" transform="matrix(0.5598739981651306, -0.00048800001968629653, -0.0028550000861287117, 0.5777640342712402, 376.9489100346347, 315.95254782152796)" fill="none" stroke="#fff" stroke-linecap="round" stroke-linejoin="round" stroke-width="1.355"/>
</svg>